<?xml version="1.0" encoding="UTF-8" standalone="no"?><!DOCTYPE svg PUBLIC "-//W3C//DTD SVG 1.1//EN" "http://www.w3.org/Graphics/SVG/1.1/DTD/svg11.dtd"><svg width="100%" height="100%" viewBox="0 0 545 462" version="1.1" xmlns="http://www.w3.org/2000/svg" xmlns:xlink="http://www.w3.org/1999/xlink" xml:space="preserve" xmlns:serif="http://www.serif.com/" style="fill-rule:evenodd;clip-rule:evenodd;stroke-linecap:round;stroke-linejoin:round;stroke-miterlimit:1.5;"><rect id="Bicyclist" x="0" y="0" width="544.427" height="461.16" style="fill:none;"/><g><path d="M531.091,167.091l2.959,251.713c-2.272,18.514 -14.915,28.853 -35.684,32.789l-68.386,-0.197c31.63,-19.529 80.52,-40.267 79.274,-90.097c-2.073,-82.923 -111.887,-63.029 -112.75,-83.483c-1.429,-33.883 97.446,-24.417 134.587,-110.725Z" style="fill:#008124;"/><path d="M426.371,74.51l56.124,-0c27.315,-0.204 49.084,18.645 48.528,62.864c-21.292,-32.728 -64.104,-46.237 -104.652,-62.864Z" style="fill:#008124;"/><path d="M8.155,116.977l6.224,305.198c4.906,16.736 16.033,27.559 36.592,29.418l102.977,-0.126c26.865,0.258 57.554,-32.009 56.119,-68.481c-2.11,-53.605 -84.925,-79.03 -87.488,-132.795c0.476,-15.318 12.23,-31.904 31.289,-42.18c63.202,-34.077 287.149,-42.558 288.018,-96.529c-7.416,-17.97 -28.046,-28.785 -53.529,-36.972l-336.988,0.658c-27.405,0.135 -44.133,12.003 -43.214,41.809Z" style="fill:#008124;"/></g><g><path d="M280.89,228.179c1.659,35.04 -21.521,70.006 -71.837,72.87c-48.676,2.771 -63.679,-31.487 -62.958,-56.688c1.169,-40.897 19.272,-61.938 62.524,-72.811c49.362,-1.189 69.808,20.581 72.271,56.629Zm-70.367,57.779c33.393,-1.459 57.932,-30.58 55.061,-57.5c-3.19,-29.908 -28.217,-49.97 -59.972,-40.45c-31.649,9.489 -42.3,29.583 -42.095,51.634c0.277,29.744 17.8,47.592 47.006,46.316Z" style="fill:#fff;stroke:#502e00;stroke-width:8.33px;"/><path d="M382.635,88.137l20.184,39.437c29.184,4.114 51.876,27.613 52.464,58.832c0.726,38.534 -28.944,68.666 -66.241,69.172c-40.588,0.551 -59.131,-19.981 -61.399,-50.335c-2.688,-35.98 14.569,-61.63 57.699,-74.812l-19.768,-32.069c-3.69,-7.107 13.19,-16.776 17.061,-10.225Zm7.717,55.573c-34.329,8.518 -48.484,28.323 -47.267,54.883c1.254,27.384 20.259,42.365 43.488,42.494c30.525,0.17 51.582,-23.158 52.594,-52.166c0.85,-24.342 -14.327,-39.202 -34.816,-45.427c3.516,24.18 -0.016,44.765 -16.837,53.46c6.844,-14.333 8.216,-33.066 2.838,-53.244Z" style="fill:#fff;stroke:#502e00;stroke-width:8.33px;"/><path d="M302.853,61.369c25.61,-6.38 30.582,-47.054 4.215,-46.995c-25.657,0.059 -32.472,25.202 -20.42,40.938c-17.381,-0.074 -28.907,7.906 -44.014,22.392c-21.505,20.619 -32.139,41.753 -33.737,66.399c-1.187,18.299 18.831,26.691 25.416,27.049c26.134,1.418 40.768,-7.191 67.089,-11.48c-28.24,66.365 10.342,107.038 8.011,88.198c-1.797,-14.522 2.232,-41.48 24.556,-88.99c8.159,-17.364 1.623,-27.261 -13.698,-31.091c-8.185,-2.045 -57.954,8.405 -63.708,3.468c-3.693,-3.17 -1.611,-10.064 12.971,-16.826c3.823,-1.773 5.383,-7.196 8.014,-12.027c3.519,9.26 10.5,19.059 31.007,17.29c38.385,-3.31 66.716,-44.513 63.422,-50.665c-4.084,-7.628 -38.788,30.486 -65.916,21.254c1.833,-14.36 2.965,-25.863 -3.208,-28.914Z" style="fill:#fff;stroke:#502e00;stroke-width:8.33px;"/></g></svg>