<?xml version="1.0" encoding="UTF-8" standalone="no"?>
<!DOCTYPE svg PUBLIC "-//W3C//DTD SVG 1.1//EN" "http://www.w3.org/Graphics/SVG/1.1/DTD/svg11.dtd">
<svg width="100%" height="100%" viewBox="0 0 1760 465" version="1.1" xmlns="http://www.w3.org/2000/svg" xmlns:xlink="http://www.w3.org/1999/xlink" xml:space="preserve" xmlns:serif="http://www.serif.com/" style="fill-rule:evenodd;clip-rule:evenodd;stroke-linecap:round;stroke-linejoin:round;stroke-miterlimit:1.5;">
    <g id="Full-Logo" serif:id="Full Logo" transform="matrix(0.940065,0,0,0.779334,-63.534,-993.651)">
        <rect x="67.585" y="1275" width="1871.44" height="595.803" style="fill:none;"/>
        <g transform="matrix(1.06376,0,0,1.28315,-56.3338,-1313.18)">
            <path d="M647.582,2184.15L650.541,2435.86C648.27,2454.38 635.626,2464.72 614.858,2468.65L546.472,2468.45C578.102,2448.93 626.992,2428.19 625.746,2378.36C623.672,2295.43 513.858,2315.33 512.995,2294.88C511.566,2260.99 610.441,2270.46 647.582,2184.15Z" style="fill:rgb(0,129,36);"/>
            <path d="M542.862,2091.57L598.986,2091.57C626.301,2091.37 648.071,2110.21 647.514,2154.43C626.222,2121.7 583.41,2108.2 542.862,2091.57Z" style="fill:rgb(0,129,36);"/>
            <path d="M124.646,2134.04L130.871,2439.23C135.776,2455.97 146.903,2466.79 167.463,2468.65L270.439,2468.53C297.304,2468.78 327.994,2436.52 326.558,2400.05C324.448,2346.44 241.634,2321.01 239.071,2267.25C239.547,2251.93 251.3,2235.35 270.36,2225.07C333.561,2190.99 557.508,2182.51 558.377,2128.54C550.961,2110.57 530.331,2099.76 504.848,2091.57L167.86,2092.23C140.455,2092.36 123.728,2104.23 124.646,2134.04Z" style="fill:rgb(0,129,36);"/>
        </g>
        <g transform="matrix(1.06376,0,0,1.28315,-56.3338,-1313.18)">
            <path d="M397.382,2245.24C399.04,2280.28 375.86,2315.24 325.544,2318.11C276.869,2320.88 261.866,2286.62 262.586,2261.42C263.755,2220.52 281.858,2199.48 325.11,2188.61C374.473,2187.42 394.918,2209.19 397.382,2245.24ZM327.015,2303.02C360.407,2301.56 384.946,2272.44 382.075,2245.52C378.885,2215.61 353.858,2195.55 322.104,2205.07C290.455,2214.56 279.803,2234.65 280.009,2256.7C280.285,2286.45 297.809,2304.29 327.015,2303.02Z" style="fill:white;stroke:rgb(80,46,0);stroke-width:8.33px;"/>
            <path d="M499.126,2105.2L519.311,2144.63C548.494,2148.75 571.186,2172.24 571.775,2203.47C572.501,2242 542.831,2272.13 505.533,2272.64C464.945,2273.19 446.402,2252.66 444.134,2222.3C441.446,2186.32 458.704,2160.67 501.833,2147.49L482.066,2115.42C478.376,2108.31 495.256,2098.64 499.126,2105.2ZM506.843,2160.77C472.515,2169.29 458.36,2189.09 459.576,2215.65C460.83,2243.04 479.835,2258.02 503.064,2258.15C533.589,2258.32 554.646,2234.99 555.658,2205.98C556.508,2181.64 541.332,2166.78 520.843,2160.55C524.359,2184.73 520.826,2205.32 504.006,2214.01C510.85,2199.68 512.221,2180.95 506.843,2160.77Z" style="fill:white;stroke:rgb(80,46,0);stroke-width:8.33px;"/>
            <path d="M419.345,2078.43C444.955,2072.05 449.926,2031.37 423.559,2031.43C397.903,2031.49 391.087,2056.64 403.14,2072.37C385.759,2072.3 374.233,2080.28 359.125,2094.76C337.621,2115.38 326.987,2136.52 325.388,2161.16C324.201,2179.46 344.219,2187.85 350.804,2188.21C376.939,2189.63 391.573,2181.02 417.894,2176.73C389.653,2243.1 428.235,2283.77 425.904,2264.93C424.107,2250.41 428.136,2223.45 450.46,2175.94C458.62,2158.57 452.083,2148.68 436.762,2144.85C428.577,2142.8 378.808,2153.25 373.055,2148.32C369.361,2145.15 371.443,2138.25 386.025,2131.49C389.848,2129.72 391.408,2124.29 394.039,2119.46C397.559,2128.72 404.539,2138.52 425.047,2136.75C463.431,2133.44 491.763,2092.24 488.469,2086.09C484.384,2078.46 449.68,2116.57 422.553,2107.34C424.386,2092.98 425.517,2081.48 419.345,2078.43Z" style="fill:white;stroke:rgb(80,46,0);stroke-width:8.33px;"/>
        </g>
        <g transform="matrix(0.841901,0,0,1.01554,202.839,42.6407)">
            <g transform="matrix(0.249062,0,0,0.249062,-22.8375,1349.57)">
                <path d="M1205.22,982.819C1205.22,1010.58 1189.85,1034.77 1159.11,1055.4C1128.36,1076.02 1095.93,1086.34 1061.82,1086.34C1027.7,1086.34 1001.17,1079.39 982.232,1065.52C963.293,1051.63 953.824,1034.71 953.824,1014.73C953.824,994.753 961.088,976.593 975.617,960.248C990.145,943.903 1009.02,931.061 1032.24,921.721C1055.46,912.382 1080.69,907.712 1107.93,907.712C1135.17,907.712 1158.2,914.911 1177.01,929.31C1195.82,943.709 1205.22,961.545 1205.22,982.819ZM1095.87,1465.76C1113.51,1465.76 1137.44,1461.55 1167.67,1453.12C1197.89,1444.68 1219.88,1437.16 1233.63,1430.55C1247.38,1423.93 1256.98,1420.62 1262.43,1420.62C1273.32,1420.62 1278.77,1426.07 1278.77,1436.97C1278.77,1441.9 1274.75,1447.47 1266.71,1453.7C1240.24,1473.42 1192.64,1493.91 1123.89,1515.19C1055.13,1536.46 993.777,1547.1 939.814,1547.1C906.347,1547.1 878.327,1541.78 855.756,1531.14C833.185,1520.51 821.899,1504.29 821.899,1482.5C821.899,1469.27 833.185,1436.84 855.756,1385.21C898.304,1287.4 919.578,1213.72 919.578,1164.17L919.189,1149.38C919.189,1136.41 931.772,1129.92 956.937,1129.92L1149.18,1125.64C1155.93,1125.64 1160.99,1127.65 1164.36,1131.67C1167.73,1135.69 1169.42,1140.17 1169.42,1145.1C1169.42,1163 1161.25,1192.51 1144.9,1233.63C1128.56,1274.75 1112.21,1315.16 1095.87,1354.85C1079.52,1394.55 1071.35,1422.96 1071.35,1440.08C1071.35,1457.2 1079.52,1465.76 1095.87,1465.76Z" style="fill:white;fill-rule:nonzero;"/>
                <path d="M943.59,1088.24C921.685,1067.38 911.548,1042.58 911.548,1014.73C911.548,984.525 922.052,956.875 944.019,932.161C962.652,911.2 986.684,894.477 1016.46,882.5C1044.53,871.21 1075,865.436 1107.93,865.436C1145.38,865.436 1176.84,875.945 1202.7,895.741C1233.15,919.05 1247.5,948.381 1247.5,982.819C1247.5,1023.4 1227.6,1060.35 1182.66,1090.5L1180.79,1091.75L1186.11,1094.65L1196.75,1104.51L1207.71,1123.14L1211.69,1145.1C1211.69,1166.09 1203.35,1201.03 1184.19,1249.25C1167.78,1290.53 1151.37,1331.1 1134.96,1370.95C1126.42,1391.7 1120.06,1408.5 1116.6,1421.57C1127.96,1419.73 1141.19,1416.61 1156.31,1412.4C1183.3,1404.86 1203.02,1398.36 1215.3,1392.45C1237.51,1381.77 1253.63,1378.35 1262.43,1378.35L1274.31,1379.36L1287.41,1383.24L1304.58,1394.81L1316.16,1411.98L1320.04,1425.08L1321.05,1436.97L1318.67,1452.52L1313.24,1464.69L1305.35,1475.4C1302.01,1479.13 1297.8,1483.09 1292.28,1487.37L1291.97,1487.6C1263.07,1509.13 1211.45,1532.35 1136.38,1555.57C1062.98,1578.29 997.428,1589.37 939.814,1589.37C899.126,1589.37 865.175,1582.32 837.734,1569.38C797.926,1550.62 779.624,1520.93 779.624,1482.5C779.624,1467.07 790.678,1428.54 816.994,1368.33C856.215,1278.17 877.144,1210.53 877.301,1164.69L876.913,1149.93L878.24,1136.77L882.661,1123.92L890.079,1112.43L899.369,1103.48C908.591,1096.35 923.052,1090.14 943.59,1088.24ZM1205.22,982.819C1205.22,961.545 1195.82,943.709 1177.01,929.31C1158.2,914.911 1135.17,907.712 1107.93,907.712C1080.69,907.712 1055.46,912.382 1032.24,921.721C1009.02,931.061 990.145,943.903 975.617,960.248C961.088,976.593 953.824,994.753 953.824,1014.73C953.824,1034.71 963.293,1051.63 982.232,1065.52C1001.17,1079.39 1027.7,1086.34 1061.82,1086.34C1095.93,1086.34 1128.36,1076.02 1159.11,1055.4C1189.85,1034.77 1205.22,1010.58 1205.22,982.819ZM1095.87,1465.76C1079.52,1465.76 1071.35,1457.2 1071.35,1440.08C1071.35,1422.96 1079.52,1394.55 1095.87,1354.85C1112.21,1315.16 1128.56,1274.75 1144.9,1233.63C1161.25,1192.51 1169.42,1163 1169.42,1145.1C1169.42,1140.17 1167.73,1135.69 1164.36,1131.67C1160.99,1127.65 1155.93,1125.64 1149.18,1125.64L956.937,1129.92C931.772,1129.92 919.189,1136.41 919.189,1149.38L919.578,1164.17C919.578,1213.72 898.304,1287.4 855.756,1385.21C833.185,1436.84 821.899,1469.27 821.899,1482.5C821.899,1504.29 833.185,1520.51 855.756,1531.14C878.327,1541.78 906.347,1547.1 939.814,1547.1C993.777,1547.1 1055.13,1536.46 1123.89,1515.19C1192.64,1493.91 1240.24,1473.42 1266.71,1453.7C1274.75,1447.47 1278.77,1441.9 1278.77,1436.97C1278.77,1426.07 1273.32,1420.62 1262.43,1420.62C1256.98,1420.62 1247.38,1423.93 1233.63,1430.55C1219.88,1437.16 1197.89,1444.68 1167.67,1453.12C1137.44,1461.55 1113.51,1465.76 1095.87,1465.76Z" style="fill:white;"/>
                <path d="M1995.99,1420.62C2005.59,1420.62 2010.39,1425.1 2010.39,1434.05C2010.39,1443 2005.65,1450.85 1996.18,1457.59C1986.71,1464.34 1972.77,1472.06 1954.35,1480.75C1935.93,1489.44 1913.03,1498.97 1885.66,1509.35C1858.29,1519.73 1826.64,1528.61 1790.71,1536.01C1754.78,1543.4 1720.47,1547.1 1687.78,1547.1C1610.72,1547.1 1572.2,1529.46 1572.2,1494.17C1572.2,1471.34 1585.23,1430.55 1611.31,1371.78C1637.38,1313.02 1650.42,1273.39 1650.42,1252.89C1650.42,1229.81 1632.39,1218.26 1596.32,1218.26C1579.98,1218.26 1561.43,1220.34 1540.67,1224.49C1530.82,1259.25 1513.24,1314.51 1487.94,1390.27C1462.65,1466.02 1448.38,1509.09 1445.14,1519.47C1441.89,1529.85 1434.95,1535.03 1424.32,1535.03L1223.9,1539.32C1221.05,1539.32 1217.87,1537.56 1214.37,1534.06C1210.86,1530.56 1209.11,1526.41 1209.11,1521.61C1209.11,1516.81 1214.62,1499.82 1225.65,1470.63C1236.68,1441.44 1248.87,1410.05 1262.23,1376.45C1275.59,1342.86 1287.79,1305.88 1298.81,1265.54C1309.84,1225.2 1315.35,1191.8 1315.35,1165.33L1314.96,1150.55C1314.96,1137.57 1327.55,1131.09 1352.71,1131.09L1537.17,1126.81C1543.92,1126.81 1548.98,1128.82 1552.35,1132.84C1555.72,1136.86 1557.41,1141.79 1557.41,1147.63C1557.41,1153.46 1555.98,1162.87 1553.13,1175.84C1644.45,1137.7 1719.43,1118.63 1778.06,1118.63C1802.97,1118.63 1825.67,1125.51 1846.16,1139.26C1868.99,1154.57 1880.41,1177.79 1880.41,1208.92C1880.41,1240.83 1868.35,1282.6 1844.22,1334.23C1820.09,1385.86 1808.03,1417.77 1808.03,1429.96C1808.03,1454.09 1817.62,1466.15 1836.82,1466.15C1849.02,1466.15 1869.84,1461.55 1899.28,1452.34C1928.73,1443.13 1950.52,1435.54 1964.66,1429.57C1978.8,1423.61 1989.24,1420.62 1995.99,1420.62Z" style="fill:white;fill-rule:nonzero;"/>
                <path d="M1591.51,1115.55C1665.1,1089.13 1727.35,1076.36 1778.06,1076.36C1811.58,1076.36 1842.12,1085.64 1869.71,1104.15C1904.24,1127.3 1922.68,1161.83 1922.68,1208.92C1922.68,1245.31 1910.03,1293.25 1882.52,1352.13C1869.53,1379.92 1859.22,1406.95 1853.98,1421.32C1862.75,1419.27 1873.62,1416.07 1886.66,1411.99C1914.38,1403.32 1934.91,1396.24 1948.22,1390.62C1969.63,1381.59 1985.78,1378.35 1995.99,1378.35L2006.85,1379.21L2019.02,1382.57L2035.62,1393.06L2047.5,1409.55L2051.6,1422.46L2052.66,1434.05L2050.19,1452.02L2043.04,1468.49L2032.69,1481.81C2029.26,1485.34 2025.29,1488.77 2020.71,1492.03C2009.75,1499.83 1993.71,1508.92 1972.39,1518.98C1953.15,1528.06 1929.24,1538.04 1900.65,1548.88C1871.41,1559.97 1837.61,1569.52 1799.23,1577.41C1760.32,1585.42 1723.17,1589.37 1687.78,1589.37C1641.35,1589.37 1606.7,1582.93 1583.49,1572.3C1546.32,1555.29 1529.92,1528.21 1529.92,1494.17C1529.92,1468.24 1543.05,1421.38 1572.66,1354.64C1591.88,1311.32 1604.2,1280.53 1607.34,1261.49C1603.91,1261 1599.79,1260.54 1596.32,1260.54C1589.27,1260.54 1581.74,1261.02 1573.72,1261.95C1563.27,1296.51 1548.05,1343.75 1528.04,1403.66C1502.9,1478.96 1488.71,1521.76 1485.49,1532.08L1477.39,1549.42L1462.81,1565L1443.57,1574.61C1443.57,1574.61 1424.32,1577.31 1425.22,1577.3L1224.35,1581.59L1212.49,1580.26L1202.97,1577.03L1184.47,1563.95L1177.21,1555.24L1171.47,1544.75L1167.95,1533.2L1166.84,1521.61C1166.84,1515.46 1171.97,1493.09 1186.1,1455.69C1197.21,1426.29 1209.49,1394.67 1222.95,1360.83C1235.77,1328.59 1247.45,1293.11 1258.03,1254.4C1267.77,1218.78 1273,1189.31 1273.08,1165.86L1272.69,1151.1L1274.01,1137.94L1278.43,1125.09L1285.85,1113.6L1295.14,1104.65C1306.18,1096.12 1324.71,1088.91 1352.17,1088.81L1536.68,1084.53L1549.01,1085.51L1561.64,1089.03L1574.1,1095.82L1584.74,1105.67L1591.37,1115.22L1591.51,1115.55ZM1995.99,1420.62C1989.24,1420.62 1978.8,1423.61 1964.66,1429.57C1950.52,1435.54 1928.73,1443.13 1899.28,1452.34C1869.84,1461.55 1849.02,1466.15 1836.82,1466.15C1817.62,1466.15 1808.03,1454.09 1808.03,1429.96C1808.03,1417.77 1820.09,1385.86 1844.22,1334.23C1868.35,1282.6 1880.41,1240.83 1880.41,1208.92C1880.41,1177.79 1868.99,1154.57 1846.16,1139.26C1825.67,1125.51 1802.97,1118.63 1778.06,1118.63C1719.43,1118.63 1644.45,1137.7 1553.13,1175.84C1555.98,1162.87 1557.41,1153.46 1557.41,1147.63C1557.41,1141.79 1555.72,1136.86 1552.35,1132.84C1548.98,1128.82 1543.92,1126.81 1537.17,1126.81L1352.71,1131.09C1327.55,1131.09 1314.96,1137.57 1314.96,1150.55L1315.35,1165.33C1315.35,1191.8 1309.84,1225.2 1298.81,1265.54C1287.79,1305.88 1275.59,1342.86 1262.23,1376.45C1248.87,1410.05 1236.68,1441.44 1225.65,1470.63C1214.62,1499.82 1209.11,1516.81 1209.11,1521.61C1209.11,1526.41 1210.86,1530.56 1214.37,1534.06C1217.87,1537.56 1221.05,1539.32 1223.9,1539.32L1424.32,1535.03C1434.95,1535.03 1441.89,1529.85 1445.14,1519.47C1448.38,1509.09 1462.65,1466.02 1487.94,1390.27C1513.24,1314.51 1530.82,1259.25 1540.67,1224.49C1561.43,1220.34 1579.98,1218.26 1596.32,1218.26C1632.39,1218.26 1650.42,1229.81 1650.42,1252.89C1650.42,1273.39 1637.38,1313.02 1611.31,1371.78C1585.23,1430.55 1572.2,1471.34 1572.2,1494.17C1572.2,1529.46 1610.72,1547.1 1687.78,1547.1C1720.47,1547.1 1754.78,1543.4 1790.71,1536.01C1826.64,1528.61 1858.29,1519.73 1885.66,1509.35C1913.03,1498.97 1935.93,1489.44 1954.35,1480.75C1972.77,1472.06 1986.71,1464.34 1996.18,1457.59C2005.65,1450.85 2010.39,1443 2010.39,1434.05C2010.39,1425.1 2005.59,1420.62 1995.99,1420.62Z" style="fill:white;"/>
                <path d="M2321.71,1135.37L2424.06,1122.14C2443.26,1122.14 2452.86,1129.66 2452.86,1144.71C2452.86,1159.76 2443.78,1169.16 2425.62,1172.92C2407.46,1176.68 2366.47,1181.68 2302.64,1187.9C2293.82,1211 2280.59,1243.04 2262.95,1284.03C2226.89,1368.09 2208.86,1418.55 2208.86,1435.41C2208.86,1453.83 2220.27,1463.04 2243.1,1463.04C2316.78,1463.04 2382.94,1450.72 2441.58,1426.07C2450.14,1422.44 2456.88,1420.62 2461.81,1420.62C2471.41,1420.62 2476.21,1424.9 2476.21,1433.46C2476.21,1442.03 2469.98,1450.46 2457.53,1458.76C2419.39,1483.92 2361.93,1504.94 2285.13,1521.8C2208.34,1538.67 2137.51,1547.1 2072.65,1547.1C2035.81,1547.1 2007.66,1541.33 1988.21,1529.78C1968.75,1518.24 1959.02,1502.35 1959.02,1482.11C1959.02,1461.61 1972.51,1423.35 1999.49,1367.31C2029.85,1304.52 2051.64,1249.39 2064.87,1201.91C2048.78,1202.69 2037.63,1203.08 2031.4,1203.08C2016.1,1203.08 2008.44,1196.86 2008.44,1184.4C2008.44,1175.32 2010.91,1169.23 2015.84,1166.11C2020.77,1163 2025.89,1160.79 2031.21,1159.5C2036.53,1158.2 2041.07,1157.36 2044.83,1156.97C2048.59,1156.58 2053.84,1156.12 2060.59,1155.61C2067.34,1155.09 2072.26,1154.7 2075.38,1154.44C2078.75,1134.72 2080.44,1116.17 2080.44,1098.79L2080.05,1084C2080.05,1072.33 2094.84,1064.41 2124.41,1060.26C2134.27,1058.96 2165.27,1052.48 2217.42,1040.8C2269.57,1029.13 2301.48,1023.29 2313.15,1023.29C2331.83,1023.29 2341.17,1029.78 2341.17,1042.75C2341.17,1065.06 2334.69,1095.93 2321.71,1135.37Z" style="fill:white;fill-rule:nonzero;"/>
                <path d="M2007.52,1241.74L2005.77,1241.32L1987.5,1231.21L1977.65,1220.88L1970.76,1208.6L1967.16,1196.09L1966.17,1184.4L1968.44,1165.27L1973.87,1151.26L1982,1139.79L1993.26,1130.37C2002.21,1124.72 2011.54,1120.78 2021.19,1118.42C2027.41,1116.91 2032.88,1115.88 2037.6,1115.26C2037.96,1109.82 2038.15,1104.51 2038.16,1099.31L2037.77,1084.56L2039.68,1069.56L2045.28,1056.19L2053.27,1045.52L2062.16,1037.69C2073.01,1029.75 2091.43,1022.2 2118.72,1018.37L2118.9,1018.35C2128.36,1017.1 2158.11,1010.76 2208.18,999.549C2265.3,986.762 2300.37,981.016 2313.15,981.016C2326.16,981.016 2336.75,983.182 2345.08,986.435L2356.41,992.184L2367.19,1001.02L2374.63,1010.62L2379.83,1021.43L2383.45,1042.75C2383.45,1054.76 2381.94,1068.97 2378.8,1085.36L2421.34,1079.86L2424.06,1079.86C2435.12,1079.86 2444.47,1081.49 2452.21,1084.09L2471.74,1094.51L2482.38,1105.26L2489.96,1118.29L2494,1131.84L2495.14,1144.71L2494.14,1157.03L2490.79,1169.65L2484.8,1181.78L2476.46,1192.41L2466.56,1200.87L2455.93,1207.11C2449.71,1210.11 2442.49,1212.6 2434.19,1214.32C2417.94,1217.69 2384.06,1222.1 2332.53,1227.4C2324.42,1247.5 2314.18,1271.94 2301.8,1300.71C2280.8,1349.64 2266.06,1386.82 2257.66,1412.29C2256.65,1415.35 2255.71,1418.13 2254.87,1420.65C2317.75,1419.43 2374.54,1408.39 2425.18,1387.1C2440.56,1380.59 2452.94,1378.35 2461.81,1378.35L2484.25,1382.29L2500.75,1392.28L2513.02,1408.6L2517.36,1421.69L2518.49,1433.46L2516.04,1450.46L2509.65,1465.13C2504.07,1474.61 2494.93,1484.63 2480.9,1493.99L2480.81,1494.05C2439.47,1521.32 2377.44,1544.82 2294.2,1563.1C2214.13,1580.68 2140.28,1589.37 2072.65,1589.37C2026.27,1589.37 1991.13,1580.67 1966.63,1566.14C1932.62,1545.95 1916.74,1517.49 1916.74,1482.11C1916.74,1458.46 1930.27,1413.62 1961.41,1348.94L1961.43,1348.91C1980.18,1310.12 1995.56,1274.41 2007.52,1241.74ZM2321.71,1135.37C2334.69,1095.93 2341.17,1065.06 2341.17,1042.75C2341.17,1029.78 2331.83,1023.29 2313.15,1023.29C2301.48,1023.29 2269.57,1029.13 2217.42,1040.8C2165.27,1052.48 2134.27,1058.96 2124.41,1060.26C2094.84,1064.41 2080.05,1072.33 2080.05,1084L2080.44,1098.79C2080.44,1116.17 2078.75,1134.72 2075.38,1154.44C2072.26,1154.7 2067.34,1155.09 2060.59,1155.61C2053.84,1156.12 2048.59,1156.58 2044.83,1156.97C2041.07,1157.36 2036.53,1158.2 2031.21,1159.5C2025.89,1160.79 2020.77,1163 2015.84,1166.11C2010.91,1169.23 2008.44,1175.32 2008.44,1184.4C2008.44,1196.86 2016.1,1203.08 2031.4,1203.08C2037.63,1203.08 2048.78,1202.69 2064.87,1201.91C2051.64,1249.39 2029.85,1304.52 1999.49,1367.31C1972.51,1423.35 1959.02,1461.61 1959.02,1482.11C1959.02,1502.35 1968.75,1518.24 1988.21,1529.78C2007.66,1541.33 2035.81,1547.1 2072.65,1547.1C2137.51,1547.1 2208.34,1538.67 2285.13,1521.8C2361.93,1504.94 2419.39,1483.92 2457.53,1458.76C2469.98,1450.46 2476.21,1442.03 2476.21,1433.46C2476.21,1424.9 2471.41,1420.62 2461.81,1420.62C2456.88,1420.62 2450.14,1422.44 2441.58,1426.07C2382.94,1450.72 2316.78,1463.04 2243.1,1463.04C2220.27,1463.04 2208.86,1453.83 2208.86,1435.41C2208.86,1418.55 2226.89,1368.09 2262.95,1284.03C2280.59,1243.04 2293.82,1211 2302.64,1187.9C2366.47,1181.68 2407.46,1176.68 2425.62,1172.92C2443.78,1169.16 2452.86,1159.76 2452.86,1144.71C2452.86,1129.66 2443.26,1122.14 2424.06,1122.14L2321.71,1135.37Z" style="fill:white;"/>
                <path d="M3060.72,1420.62C3069.81,1420.62 3074.35,1424.84 3074.35,1433.27C3074.35,1441.7 3068.18,1449.48 3055.86,1456.62C3043.54,1463.75 3028.3,1471.41 3010.13,1479.58C2991.97,1487.75 2966.94,1497.42 2935.03,1508.57C2861.61,1534.26 2778.72,1547.1 2686.36,1547.1C2510.97,1547.1 2423.28,1493.13 2423.28,1385.21C2423.28,1332.54 2439.95,1285.78 2473.29,1244.92C2506.63,1204.06 2551.32,1172.79 2607.36,1151.13C2663.39,1129.47 2724.49,1118.63 2790.65,1118.63C2856.81,1118.63 2905.26,1128.88 2936,1149.38C2966.74,1169.87 2982.12,1198.02 2982.12,1233.83C2982.12,1270.67 2967.39,1300.76 2937.95,1324.11C2908.5,1347.46 2869.39,1364.84 2820.62,1376.26C2771.58,1387.67 2715.41,1395.72 2652.11,1400.39C2656.26,1440.6 2685.06,1465.63 2738.5,1475.49C2752.25,1477.83 2766.78,1479 2782.09,1479C2842.8,1479 2930.36,1460.7 3044.77,1424.12C3051.77,1421.79 3057.09,1420.62 3060.72,1420.62ZM2652.5,1357.58C2697.64,1345.12 2733.31,1326.06 2759.52,1300.37C2785.72,1274.69 2798.82,1243.68 2798.82,1207.36C2798.82,1197.76 2795.71,1190.11 2789.48,1184.4C2783.26,1178.69 2773.85,1175.84 2761.27,1175.84C2748.68,1175.84 2735.58,1181.29 2721.96,1192.19C2708.34,1203.08 2696.86,1217.35 2687.52,1234.99C2667.8,1271.57 2656.13,1312.44 2652.5,1357.58Z" style="fill:white;fill-rule:nonzero;"/>
                <path d="M3060.72,1378.35L3071.34,1379.19L3083.3,1382.48L3099.71,1392.8L3111.5,1409.1L3115.57,1421.87L3116.62,1433.27L3114.08,1450.46L3107.27,1465.43C3101.38,1474.89 3091.78,1484.68 3077.04,1493.21C3063.68,1500.94 3047.17,1509.27 3027.48,1518.13C3008.5,1526.67 2982.34,1536.82 2948.98,1548.48C2871.43,1575.61 2783.91,1589.37 2686.36,1589.37C2477.8,1589.37 2381.01,1513.55 2381.01,1385.21C2381.01,1322.51 2400.85,1266.84 2440.53,1218.19C2478.28,1171.93 2528.66,1136.23 2592.11,1111.7C2652.82,1088.23 2718.98,1076.36 2790.65,1076.36C2867.68,1076.36 2923.65,1090.34 2959.45,1114.2C3002.94,1143.2 3024.39,1183.18 3024.39,1233.83C3024.39,1284.15 3004.44,1325.34 2964.21,1357.24C2930.53,1383.94 2886.04,1404.36 2830.22,1417.43L2830.2,1417.43C2803.26,1423.7 2774.24,1429.01 2743.14,1433.34C2744.05,1433.52 2744.96,1433.69 2746.01,1433.89C2757.4,1435.79 2769.43,1436.72 2782.09,1436.72C2839.82,1436.72 2922.93,1418.68 3031.52,1383.98C3044.27,1379.74 3054.11,1378.35 3060.72,1378.35ZM3060.72,1420.62C3057.09,1420.62 3051.77,1421.79 3044.77,1424.12C2930.36,1460.7 2842.8,1479 2782.09,1479C2766.78,1479 2752.25,1477.83 2738.5,1475.49C2685.06,1465.63 2656.26,1440.6 2652.11,1400.39C2715.41,1395.72 2771.58,1387.67 2820.62,1376.26C2869.39,1364.84 2908.5,1347.46 2937.95,1324.11C2967.39,1300.76 2982.12,1270.67 2982.12,1233.83C2982.12,1198.02 2966.74,1169.87 2936,1149.38C2905.26,1128.88 2856.81,1118.63 2790.65,1118.63C2724.49,1118.63 2663.39,1129.47 2607.36,1151.13C2551.32,1172.79 2506.63,1204.06 2473.29,1244.92C2439.95,1285.78 2423.28,1332.54 2423.28,1385.21C2423.28,1493.13 2510.97,1547.1 2686.36,1547.1C2778.72,1547.1 2861.61,1534.26 2935.03,1508.57C2966.94,1497.42 2991.97,1487.75 3010.13,1479.58C3028.3,1471.41 3043.54,1463.75 3055.86,1456.62C3068.18,1449.48 3074.35,1441.7 3074.35,1433.27C3074.35,1424.84 3069.81,1420.62 3060.72,1420.62ZM2652.5,1357.58C2656.13,1312.44 2667.8,1271.57 2687.52,1234.99C2696.86,1217.35 2708.34,1203.08 2721.96,1192.19C2735.58,1181.29 2748.68,1175.84 2761.27,1175.84C2773.85,1175.84 2783.26,1178.69 2789.48,1184.4C2795.71,1190.11 2798.82,1197.76 2798.82,1207.36C2798.82,1243.68 2785.72,1274.69 2759.52,1300.37C2733.31,1326.06 2697.64,1345.12 2652.5,1357.58ZM2755.75,1219.78C2753.4,1221.1 2751.02,1223.08 2748.37,1225.2C2739.01,1232.69 2731.31,1242.65 2724.81,1254.91L2724.74,1255.05C2719.38,1264.99 2714.72,1275.3 2710.76,1285.97C2717.73,1281.13 2724.12,1275.87 2729.92,1270.18C2744.57,1255.83 2753.2,1239.04 2755.75,1219.78Z" style="fill:white;"/>
                <path d="M3148.29,1131.09L3332.75,1126.81C3339.49,1126.81 3344.55,1128.82 3347.92,1132.84C3351.3,1136.86 3352.98,1140.56 3352.98,1143.93C3352.98,1147.3 3352.08,1152.88 3350.26,1160.66C3348.44,1168.45 3346.11,1177.85 3343.25,1188.88C3340.4,1199.9 3338.58,1206.97 3337.81,1210.09C3358.04,1185.96 3383.34,1164.69 3413.69,1146.27C3444.05,1127.85 3470.77,1118.63 3493.86,1118.63C3542.89,1118.63 3567.41,1129.21 3567.41,1150.35C3567.41,1171.5 3560.79,1196.79 3547.56,1226.24C3534.33,1255.68 3521.88,1275.08 3510.2,1284.42C3504.49,1288.57 3497.56,1290.64 3489.38,1290.64C3481.21,1290.64 3473.62,1288.05 3466.62,1282.86C3435.22,1259.51 3400.98,1247.84 3363.88,1247.84C3349.61,1247.84 3337.16,1248.87 3326.52,1250.95C3316.4,1285.71 3300.32,1336.76 3278.26,1404.08C3256.21,1471.41 3244.02,1508.96 3241.68,1516.74C3237.79,1528.94 3230.53,1535.03 3219.89,1535.03C3182.27,1535.03 3141.93,1537.05 3098.86,1541.07C3055.8,1545.09 3031.08,1547.1 3024.73,1547.1C3018.37,1547.1 3013.44,1545.35 3009.94,1541.85C3006.44,1538.34 3004.69,1534.19 3004.69,1529.39C3004.69,1524.59 3010.2,1507.21 3021.22,1477.24C3032.25,1447.28 3044.45,1415.04 3057.81,1380.54C3071.17,1346.03 3083.36,1308.15 3094.39,1266.9C3105.41,1225.65 3110.93,1191.8 3110.93,1165.33L3110.54,1150.55C3110.54,1137.57 3123.12,1131.09 3148.29,1131.09Z" style="fill:white;fill-rule:nonzero;"/>
                <path d="M3385.33,1114.11C3387.45,1112.77 3389.59,1111.44 3391.76,1110.12C3430.26,1086.76 3464.58,1076.36 3493.86,1076.36C3534.44,1076.36 3562.37,1084.06 3578.6,1094.56L3590.77,1104.38L3601.04,1117.73L3607.61,1133.78L3609.68,1150.35C3609.68,1176.27 3602.34,1207.47 3586.12,1243.57C3569.11,1281.44 3551.63,1305.42 3535.85,1318.04L3512.83,1329.59L3489.38,1332.92L3476.5,1331.87L3463.89,1328.7C3463.89,1328.7 3441.45,1316.83 3441.42,1316.81L3441.39,1316.78C3417.68,1299.15 3391.89,1290.11 3363.88,1290.11C3362.2,1290.11 3360.55,1290.13 3358.93,1290.16C3348.96,1322.9 3335.47,1365.26 3318.44,1417.24C3296.59,1483.96 3284.49,1521.18 3282.07,1529.25L3274.22,1546.76L3260.49,1562.84L3240.87,1573.91L3219.89,1577.31C3183.49,1577.31 3144.46,1579.27 3102.79,1583.16C3057.45,1587.39 3031.42,1589.37 3024.73,1589.37L3002.11,1585.62L2990.48,1580.02L2980.05,1571.74L2972.79,1563.02L2967.05,1552.54L2963.53,1540.99L2962.41,1529.39C2962.41,1523.3 2967.56,1500.68 2981.55,1462.64C2992.65,1432.47 3004.93,1400.02 3018.38,1365.27C3031.23,1332.09 3042.94,1295.66 3053.55,1255.99C3063.32,1219.42 3068.57,1189.41 3068.65,1165.86L3068.26,1151.1L3069.59,1137.94L3074.01,1125.09L3081.43,1113.6L3090.72,1104.65C3101.75,1096.12 3120.28,1088.91 3147.75,1088.81L3332.26,1084.53L3344.59,1085.51L3357.21,1089.03L3369.68,1095.82L3380.32,1105.67L3385.33,1114.11ZM3148.29,1131.09C3123.12,1131.09 3110.54,1137.57 3110.54,1150.55L3110.93,1165.33C3110.93,1191.8 3105.41,1225.65 3094.39,1266.9C3083.36,1308.15 3071.17,1346.03 3057.81,1380.54C3044.45,1415.04 3032.25,1447.28 3021.22,1477.24C3010.2,1507.21 3004.69,1524.59 3004.69,1529.39C3004.69,1534.19 3006.44,1538.34 3009.94,1541.85C3013.44,1545.35 3018.37,1547.1 3024.73,1547.1C3031.08,1547.1 3055.8,1545.09 3098.86,1541.07C3141.93,1537.05 3182.27,1535.03 3219.89,1535.03C3230.53,1535.03 3237.79,1528.94 3241.68,1516.74C3244.02,1508.96 3256.21,1471.41 3278.26,1404.08C3300.32,1336.76 3316.4,1285.71 3326.52,1250.95C3337.16,1248.87 3349.61,1247.84 3363.88,1247.84C3400.98,1247.84 3435.22,1259.51 3466.62,1282.86C3473.62,1288.05 3481.21,1290.64 3489.38,1290.64C3497.56,1290.64 3504.49,1288.57 3510.2,1284.42C3521.88,1275.08 3534.33,1255.68 3547.56,1226.24C3560.79,1196.79 3567.41,1171.5 3567.41,1150.35C3567.41,1129.21 3542.89,1118.63 3493.86,1118.63C3470.77,1118.63 3444.05,1127.85 3413.69,1146.27C3383.34,1164.69 3358.04,1185.96 3337.81,1210.09C3338.58,1206.97 3340.4,1199.9 3343.25,1188.88C3346.11,1177.85 3348.44,1168.45 3350.26,1160.66C3352.08,1152.88 3352.98,1147.3 3352.98,1143.93C3352.98,1140.56 3351.3,1136.86 3347.92,1132.84C3344.55,1128.82 3339.49,1126.81 3332.75,1126.81L3148.29,1131.09Z" style="fill:white;"/>
                <path d="M3687.66,1131.09L3863.56,1126.81C3870.3,1126.81 3875.36,1128.82 3878.74,1132.84C3882.11,1136.86 3883.79,1142.83 3883.79,1150.74C3883.79,1158.65 3876.6,1179.15 3862.2,1212.23C3847.8,1245.31 3833.33,1280.46 3818.81,1317.69C3804.28,1354.92 3797.01,1382.1 3797.01,1399.22C3797.01,1431.39 3814.14,1447.47 3848.38,1447.47C3864.72,1447.47 3882.63,1445.4 3902.08,1441.25C3908.31,1419.19 3918.69,1390.01 3933.22,1353.69C3970.06,1262.62 3992.24,1193.35 3999.76,1145.88C4001.06,1136.28 4007.93,1131.48 4020.39,1131.48C4058.01,1131.48 4097.57,1130.7 4139.08,1129.14C4180.59,1127.59 4204.52,1126.81 4210.88,1126.81C4217.24,1126.81 4222.17,1128.56 4225.67,1132.06C4229.17,1135.56 4230.92,1138.87 4230.92,1141.99C4230.92,1154.44 4222.88,1180.77 4206.8,1220.98C4190.71,1261.2 4174.62,1302.77 4158.54,1345.71C4142.45,1388.65 4134.41,1419.97 4134.41,1439.69C4134.41,1459.41 4143.17,1469.27 4160.68,1469.27C4178.19,1469.27 4202.45,1464.53 4233.45,1455.06C4264.45,1445.59 4286.12,1437.49 4298.44,1430.74C4310.77,1424 4318.74,1420.62 4322.38,1420.62C4332.23,1420.62 4337.16,1425.29 4337.16,1434.63C4337.16,1443.97 4330.22,1452.86 4316.34,1461.29C4302.46,1469.72 4285.73,1478.28 4266.14,1486.97C4246.55,1495.66 4223.01,1504.81 4195.51,1514.41C4132.21,1536.2 4067.74,1547.1 4002.1,1547.1C3936.46,1547.1 3899.49,1529.46 3891.19,1494.17C3866.02,1504.55 3845.4,1512.66 3829.31,1518.5C3813.23,1524.33 3790.91,1530.56 3762.38,1537.17C3733.84,1543.79 3707.64,1547.1 3683.77,1547.1C3607.49,1547.1 3569.35,1515.97 3569.35,1453.7C3569.35,1432.17 3573.51,1406.03 3581.81,1375.29C3590.11,1344.54 3599.32,1316.72 3609.44,1291.81C3636.16,1225.65 3649.52,1184.6 3649.52,1168.64C3649.52,1152.69 3651.86,1142.44 3656.53,1137.9C3661.2,1133.36 3671.57,1131.09 3687.66,1131.09Z" style="fill:white;fill-rule:nonzero;"/>
                <path d="M3687.1,1088.81L3687.12,1088.81L3863.04,1084.53L3875.4,1085.51L3888.03,1089.03L3900.49,1095.82L3911.13,1105.67L3921.71,1124.18L3925.15,1137.87C3925.74,1141.82 3926.07,1146.11 3926.07,1150.74C3926.07,1160.73 3919.14,1187.34 3900.96,1229.1C3886.76,1261.71 3872.51,1296.36 3858.19,1333.06C3846.34,1363.41 3839.29,1385.26 3839.29,1399.22C3839.29,1400.73 3839.53,1402.73 3839.76,1404.22C3841.97,1404.62 3845.63,1405.2 3848.38,1405.2C3855.09,1405.2 3862.11,1404.76 3869.44,1403.9C3875.7,1385.22 3883.86,1363.24 3894,1337.91L3894.03,1337.83C3929.25,1250.77 3950.82,1184.65 3957.87,1140.21L3960.25,1129.6L3965.01,1118.71L3972.36,1108.59L3981.69,1100.41L3997.94,1092.46L4020.39,1089.2C4057.51,1089.2 4096.54,1088.43 4137.5,1086.9C4179.92,1085.31 4204.39,1084.53 4210.88,1084.53L4233.5,1088.28L4245.13,1093.88L4255.56,1102.17L4263.95,1112.32L4268.94,1121.5L4272.01,1131.03L4273.2,1141.99C4273.2,1156.84 4265.23,1188.72 4246.05,1236.68C4230.07,1276.62 4214.1,1317.9 4198.13,1360.54C4187.94,1387.74 4180.98,1409.27 4178.13,1425.37C4190.09,1423.41 4204.4,1419.73 4221.1,1414.63C4248.26,1406.34 4267.35,1399.56 4278.14,1393.66C4300.34,1381.51 4315.83,1378.35 4322.38,1378.35L4333.45,1379.24L4345.82,1382.71L4362.54,1393.43L4374.35,1410.06L4378.39,1423L4379.44,1434.63L4376.79,1452.44L4369.79,1467.86C4363.66,1477.77 4353.61,1488.11 4338.29,1497.42C4323.08,1506.66 4304.76,1516.09 4283.29,1525.62C4262.81,1534.7 4238.2,1544.29 4209.36,1554.35L4209.27,1554.38C4141.47,1577.73 4072.41,1589.37 4002.1,1589.37C3939.05,1589.37 3897.1,1573.15 3872.91,1547.14C3861.95,1551.46 3852.23,1555.15 3843.73,1558.24C3826.47,1564.5 3802.55,1571.26 3771.92,1578.36C3739.93,1585.78 3710.53,1589.37 3683.77,1589.37C3621.78,1589.37 3579.71,1570.58 3554.92,1540.22C3537.17,1518.49 3527.08,1489.91 3527.08,1453.7C3527.08,1429.15 3531.53,1399.31 3540.99,1364.26C3549.78,1331.72 3559.56,1302.27 3570.24,1275.98C3593.66,1217.99 3607.24,1182.63 3607.24,1168.64C3607.24,1153.77 3609.02,1142.14 3611.64,1133.65L3618.47,1118.34L3627.06,1107.59C3636.3,1098.6 3655.41,1088.93 3687.1,1088.81ZM3687.66,1131.09C3671.57,1131.09 3661.2,1133.36 3656.53,1137.9C3651.86,1142.44 3649.52,1152.69 3649.52,1168.64C3649.52,1184.6 3636.16,1225.65 3609.44,1291.81C3599.32,1316.72 3590.11,1344.54 3581.81,1375.29C3573.51,1406.03 3569.35,1432.17 3569.35,1453.7C3569.35,1515.97 3607.49,1547.1 3683.77,1547.1C3707.64,1547.1 3733.84,1543.79 3762.38,1537.17C3790.91,1530.56 3813.23,1524.33 3829.31,1518.5C3845.4,1512.66 3866.02,1504.55 3891.19,1494.17C3899.49,1529.46 3936.46,1547.1 4002.1,1547.1C4067.74,1547.1 4132.21,1536.2 4195.51,1514.41C4223.01,1504.81 4246.55,1495.66 4266.14,1486.97C4285.73,1478.28 4302.46,1469.72 4316.34,1461.29C4330.22,1452.86 4337.16,1443.97 4337.16,1434.63C4337.16,1425.29 4332.23,1420.62 4322.38,1420.62C4318.74,1420.62 4310.77,1424 4298.44,1430.74C4286.12,1437.49 4264.45,1445.59 4233.45,1455.06C4202.45,1464.53 4178.19,1469.27 4160.68,1469.27C4143.17,1469.27 4134.41,1459.41 4134.41,1439.69C4134.41,1419.97 4142.45,1388.65 4158.54,1345.71C4174.62,1302.77 4190.71,1261.2 4206.8,1220.98C4222.88,1180.77 4230.92,1154.44 4230.92,1141.99C4230.92,1138.87 4229.17,1135.56 4225.67,1132.06C4222.17,1128.56 4217.24,1126.81 4210.88,1126.81C4204.52,1126.81 4180.59,1127.59 4139.08,1129.14C4097.57,1130.7 4058.01,1131.48 4020.39,1131.48C4007.93,1131.48 4001.06,1136.28 3999.76,1145.88C3992.24,1193.35 3970.06,1262.62 3933.22,1353.69C3918.69,1390.01 3908.31,1419.19 3902.08,1441.25C3882.63,1445.4 3864.72,1447.47 3848.38,1447.47C3814.14,1447.47 3797.01,1431.39 3797.01,1399.22C3797.01,1382.1 3804.28,1354.92 3818.81,1317.69C3833.33,1280.46 3847.8,1245.31 3862.2,1212.23C3876.6,1179.15 3883.79,1158.65 3883.79,1150.74C3883.79,1142.83 3882.11,1136.86 3878.74,1132.84C3875.36,1128.82 3870.3,1126.81 3863.56,1126.81L3687.66,1131.09Z" style="fill:white;"/>
                <path d="M4411.1,1131.09L4595.56,1126.81C4602.31,1126.81 4607.37,1128.82 4610.74,1132.84C4614.11,1136.86 4615.8,1140.56 4615.8,1143.93C4615.8,1147.3 4614.89,1152.88 4613.08,1160.66C4611.26,1168.45 4608.93,1177.85 4606.07,1188.88C4603.22,1199.9 4601.4,1206.97 4600.62,1210.09C4620.86,1185.96 4646.15,1164.69 4676.51,1146.27C4706.86,1127.85 4733.59,1118.63 4756.68,1118.63C4805.71,1118.63 4830.23,1129.21 4830.23,1150.35C4830.23,1171.5 4823.61,1196.79 4810.38,1226.24C4797.15,1255.68 4784.69,1275.08 4773.02,1284.42C4767.31,1288.57 4760.37,1290.64 4752.2,1290.64C4744.03,1290.64 4736.44,1288.05 4729.43,1282.86C4698.04,1259.51 4663.8,1247.84 4626.7,1247.84C4612.43,1247.84 4599.97,1248.87 4589.34,1250.95C4579.22,1285.71 4563.13,1336.76 4541.08,1404.08C4519.03,1471.41 4506.84,1508.96 4504.5,1516.74C4500.61,1528.94 4493.35,1535.03 4482.71,1535.03C4445.09,1535.03 4404.75,1537.05 4361.68,1541.07C4318.61,1545.09 4293.9,1547.1 4287.55,1547.1C4281.19,1547.1 4276.26,1545.35 4272.76,1541.85C4269.26,1538.34 4267.5,1534.19 4267.5,1529.39C4267.5,1524.59 4273.02,1507.21 4284.04,1477.24C4295.07,1447.28 4307.26,1415.04 4320.62,1380.54C4333.98,1346.03 4346.18,1308.15 4357.2,1266.9C4368.23,1225.65 4373.74,1191.8 4373.74,1165.33L4373.36,1150.55C4373.36,1137.57 4385.94,1131.09 4411.1,1131.09Z" style="fill:white;fill-rule:nonzero;"/>
                <path d="M4648.15,1114.11C4650.27,1112.77 4652.41,1111.44 4654.58,1110.12C4693.07,1086.76 4727.39,1076.36 4756.68,1076.36C4797.26,1076.36 4825.18,1084.06 4841.42,1094.56L4853.59,1104.38L4863.86,1117.73L4870.43,1133.78L4872.5,1150.35C4872.5,1176.27 4865.16,1207.47 4848.94,1243.57C4831.92,1281.44 4814.44,1305.42 4798.67,1318.04L4775.65,1329.59L4752.2,1332.92L4739.31,1331.87L4726.7,1328.7C4726.7,1328.7 4704.27,1316.83 4704.24,1316.81L4704.2,1316.78C4680.5,1299.15 4654.71,1290.11 4626.7,1290.11C4625.02,1290.11 4623.37,1290.13 4621.75,1290.16C4611.78,1322.9 4598.28,1365.26 4581.26,1417.24C4559.4,1483.96 4547.31,1521.18 4544.89,1529.25L4537.04,1546.76L4523.31,1562.84L4503.68,1573.91L4482.71,1577.31C4446.31,1577.31 4407.28,1579.27 4365.61,1583.16C4320.27,1587.39 4294.24,1589.37 4287.55,1589.37L4264.93,1585.62L4253.3,1580.02L4242.86,1571.74L4235.61,1563.02L4229.87,1552.54L4226.34,1540.99L4225.23,1529.39C4225.23,1523.3 4230.37,1500.68 4244.37,1462.64C4255.47,1432.47 4267.75,1400.02 4281.2,1365.27C4294.05,1332.09 4305.76,1295.66 4316.36,1255.99C4326.14,1219.42 4331.39,1189.41 4331.47,1165.86L4331.08,1151.1L4332.41,1137.94L4336.83,1125.09L4344.24,1113.6L4353.53,1104.65C4364.57,1096.12 4383.1,1088.91 4410.57,1088.81L4595.07,1084.53L4607.4,1085.51L4620.03,1089.03L4632.49,1095.82L4643.13,1105.67L4648.15,1114.11ZM4411.1,1131.09C4385.94,1131.09 4373.36,1137.57 4373.36,1150.55L4373.74,1165.33C4373.74,1191.8 4368.23,1225.65 4357.2,1266.9C4346.18,1308.15 4333.98,1346.03 4320.62,1380.54C4307.26,1415.04 4295.07,1447.28 4284.04,1477.24C4273.02,1507.21 4267.5,1524.59 4267.5,1529.39C4267.5,1534.19 4269.26,1538.34 4272.76,1541.85C4276.26,1545.35 4281.19,1547.1 4287.55,1547.1C4293.9,1547.1 4318.61,1545.09 4361.68,1541.07C4404.75,1537.05 4445.09,1535.03 4482.71,1535.03C4493.35,1535.03 4500.61,1528.94 4504.5,1516.74C4506.84,1508.96 4519.03,1471.41 4541.08,1404.08C4563.13,1336.76 4579.22,1285.71 4589.34,1250.95C4599.97,1248.87 4612.43,1247.84 4626.7,1247.84C4663.8,1247.84 4698.04,1259.51 4729.43,1282.86C4736.44,1288.05 4744.03,1290.64 4752.2,1290.64C4760.37,1290.64 4767.31,1288.57 4773.02,1284.42C4784.69,1275.08 4797.15,1255.68 4810.38,1226.24C4823.61,1196.79 4830.23,1171.5 4830.23,1150.35C4830.23,1129.21 4805.71,1118.63 4756.68,1118.63C4733.59,1118.63 4706.86,1127.85 4676.51,1146.27C4646.15,1164.69 4620.86,1185.96 4600.62,1210.09C4601.4,1206.97 4603.22,1199.9 4606.07,1188.88C4608.93,1177.85 4611.26,1168.45 4613.08,1160.66C4614.89,1152.88 4615.8,1147.3 4615.8,1143.93C4615.8,1140.56 4614.11,1136.86 4610.74,1132.84C4607.37,1128.82 4602.31,1126.81 4595.56,1126.81L4411.1,1131.09Z" style="fill:white;"/>
                <path d="M4963.01,1501.18C4887.25,1526.86 4838.93,1539.7 4818.05,1539.7C4797.16,1539.7 4780.3,1535.36 4767.46,1526.67C4754.62,1517.98 4748.19,1507.14 4748.19,1494.17C4748.19,1484.31 4765.19,1432.17 4799.17,1337.73C4863.52,1157.94 4895.69,1041.84 4895.69,989.435L4895.3,974.647C4895.3,961.675 4907.88,955.189 4933.05,955.189L5034.61,955.189L5112.84,954.021C5119.58,954.021 5124.64,956.032 5128.01,960.053C5131.39,964.075 5133.07,968.55 5133.07,973.479C5133.07,997.607 5109.2,1073.1 5061.47,1199.97L5061.86,1199.58C5084.43,1173.9 5111.73,1153.98 5143.77,1139.84C5175.82,1125.7 5210.39,1118.63 5247.48,1118.63C5355.67,1118.63 5409.76,1169.23 5409.76,1270.41C5409.76,1309.32 5400.16,1346.81 5380.97,1382.87C5361.77,1418.94 5335.69,1450.33 5302.74,1477.05C5387.84,1469.53 5454.39,1452.66 5502.38,1426.46C5509.39,1422.57 5515.48,1420.62 5520.67,1420.62C5530.79,1420.62 5535.85,1424.71 5535.85,1432.88C5535.85,1441.05 5531.31,1448.51 5522.23,1455.26C5488.24,1478.87 5435.84,1499.75 5365.01,1517.91C5294.18,1536.07 5218.17,1545.28 5136.96,1545.54C5123.99,1546.58 5109.72,1547.1 5094.16,1547.1C5078.59,1547.1 5057.12,1543.01 5029.75,1534.84C5002.38,1526.67 4980.13,1515.45 4963.01,1501.18ZM5138.52,1217.48C5089.75,1217.48 5049.01,1254.84 5016.32,1329.56C5001.28,1363.81 4993.75,1391.57 4993.75,1412.84C4993.75,1434.11 4997.32,1448.77 5004.45,1456.81C5011.59,1464.86 5025.6,1468.88 5046.48,1468.88C5067.37,1468.88 5089.94,1459.21 5114.2,1439.88C5138.45,1420.56 5157.98,1396.24 5172.77,1366.92C5187.55,1337.6 5194.95,1311.2 5194.95,1287.72C5194.95,1264.25 5189.76,1246.67 5179.38,1234.99C5169,1223.32 5155.38,1217.48 5138.52,1217.48Z" style="fill:white;fill-rule:nonzero;"/>
                <path d="M5144.16,1094.14C5176.49,1082.33 5210.93,1076.36 5247.48,1076.36C5314.72,1076.36 5364.45,1094.26 5398.07,1125.7C5432.64,1158.03 5452.04,1205.75 5452.04,1270.41C5452.04,1316.19 5440.87,1360.32 5418.28,1402.74C5415.76,1407.48 5413.13,1412.16 5410.39,1416.76C5437.9,1409.51 5461.8,1400.44 5481.87,1389.49C5489.57,1385.21 5496.75,1382.38 5503.25,1380.67L5520.67,1378.35L5542.24,1381.78L5558.62,1390.8L5567.65,1400.2L5573.98,1411.39L5577.24,1422.64L5578.13,1432.88L5575.6,1450.67L5568.56,1466.59L5558.7,1479.32C5555.48,1482.69 5551.74,1486 5546.9,1489.59L5546.35,1489.98C5509.36,1515.67 5452.6,1539.1 5375.51,1558.86C5301.92,1577.73 5222.99,1587.42 5138.72,1587.81C5125.16,1588.85 5110.31,1589.37 5094.16,1589.37C5075.69,1589.37 5050.12,1585.04 5017.66,1575.35C4993.87,1568.25 4973.33,1559.08 4955.91,1548.11C4885,1571.34 4838.88,1581.98 4818.05,1581.98C4787.26,1581.98 4762.69,1574.49 4743.76,1561.68C4731.57,1553.43 4722.74,1543.87 4716.65,1533.58L4708.58,1514.51L4705.92,1494.17C4705.92,1483.45 4722.43,1426.13 4759.38,1323.46C4820.95,1151.42 4853.19,1040.5 4853.41,989.943L4853.02,975.203L4854.35,962.042L4858.77,949.194L4866.19,937.696L4875.48,928.749C4886.58,920.163 4905.28,912.913 4933.05,912.913L5034.3,912.913L5112.52,911.746L5124.68,912.723L5137.3,916.243L5149.77,923.031L5160.4,932.886L5171.37,951.519L5175.35,973.479C5175.35,990.242 5165.29,1030.57 5144.16,1094.14ZM4963.01,1501.18C4980.13,1515.45 5002.38,1526.67 5029.75,1534.84C5057.12,1543.01 5078.59,1547.1 5094.16,1547.1C5109.72,1547.1 5123.99,1546.58 5136.96,1545.54C5218.17,1545.28 5294.18,1536.07 5365.01,1517.91C5435.84,1499.75 5488.24,1478.87 5522.23,1455.26C5531.31,1448.51 5535.85,1441.05 5535.85,1432.88C5535.85,1424.71 5530.79,1420.62 5520.67,1420.62C5515.48,1420.62 5509.39,1422.57 5502.38,1426.46C5454.39,1452.66 5387.84,1469.53 5302.74,1477.05C5335.69,1450.33 5361.77,1418.94 5380.97,1382.87C5400.16,1346.81 5409.76,1309.32 5409.76,1270.41C5409.76,1169.23 5355.67,1118.63 5247.48,1118.63C5210.39,1118.63 5175.82,1125.7 5143.77,1139.84C5111.73,1153.98 5084.43,1173.9 5061.86,1199.58L5061.47,1199.97C5109.2,1073.1 5133.07,997.607 5133.07,973.479C5133.07,968.55 5131.39,964.075 5128.01,960.053C5124.64,956.032 5119.58,954.021 5112.84,954.021L5034.61,955.189L4933.05,955.189C4907.88,955.189 4895.3,961.675 4895.3,974.647L4895.69,989.435C4895.69,1041.84 4863.52,1157.94 4799.17,1337.73C4765.19,1432.17 4748.19,1484.31 4748.19,1494.17C4748.19,1507.14 4754.62,1517.98 4767.46,1526.67C4780.3,1535.36 4797.16,1539.7 4818.05,1539.7C4838.93,1539.7 4887.25,1526.86 4963.01,1501.18ZM5080.74,1237.68C5083.46,1236.26 5086.31,1234.37 5089.17,1231.88C5104.59,1222.28 5121.04,1217.48 5138.52,1217.48C5155.38,1217.48 5169,1223.32 5179.38,1234.99C5189.76,1246.67 5194.95,1264.25 5194.95,1287.72C5194.95,1311.2 5187.55,1337.6 5172.77,1366.92C5157.98,1396.24 5138.45,1420.56 5114.2,1439.88C5089.94,1459.21 5067.37,1468.88 5046.48,1468.88C5025.6,1468.88 5011.59,1464.86 5004.45,1456.81C4997.32,1448.77 4993.75,1434.11 4993.75,1412.84C4993.75,1391.57 5001.28,1363.81 5016.32,1329.56C5035.14,1286.56 5056.61,1255.94 5080.74,1237.68ZM5037.13,1425.89C5040.03,1426.26 5043.55,1426.6 5046.48,1426.6C5059.49,1426.6 5072.75,1418.85 5087.85,1406.82C5107.43,1391.23 5123.09,1371.53 5135.02,1347.88C5146.29,1325.53 5152.67,1305.62 5152.67,1287.72C5152.67,1277 5152.53,1268.41 5147.78,1263.08C5145.49,1260.5 5142.25,1259.76 5138.52,1259.76C5103.11,1259.76 5078.79,1292.26 5055.04,1346.54L5055.03,1346.57C5043.01,1373.93 5036.03,1395.84 5036.03,1412.84C5036.03,1417.07 5036.6,1422.11 5037.13,1425.89Z" style="fill:white;"/>
                <path d="M5700.47,1448.25C5749.24,1448.25 5789.98,1410.89 5822.67,1336.17C5837.71,1301.93 5845.24,1274.17 5845.24,1252.89C5845.24,1231.62 5841.67,1216.96 5834.53,1208.92C5827.4,1200.88 5813.39,1196.86 5792.51,1196.86C5771.62,1196.86 5749.05,1206.52 5724.79,1225.85C5700.53,1245.18 5681.01,1269.5 5666.23,1298.82C5651.44,1328.13 5644.04,1354.53 5644.04,1378.01C5644.04,1401.49 5649.23,1419.07 5659.61,1430.74C5669.99,1442.41 5683.61,1448.25 5700.47,1448.25ZM5902.83,1118.63L6081.07,1126.81C6087.81,1126.81 6092.87,1128.82 6096.24,1132.84C6099.62,1136.86 6101.3,1141.34 6101.3,1146.27C6101.3,1165.2 6093.45,1195.36 6077.76,1236.75C6062.06,1278.12 6046.37,1319.12 6030.67,1359.72C6014.98,1400.32 6007.13,1427.17 6007.13,1440.27C6007.13,1453.38 6009.14,1461.74 6013.16,1465.38C6017.18,1469.01 6024.9,1470.82 6036.31,1470.82C6047.73,1470.82 6068.55,1465.31 6098.77,1454.28C6129,1443.26 6149.49,1434.89 6160.26,1429.18C6171.03,1423.48 6179.27,1420.62 6184.97,1420.62C6195.09,1420.62 6200.15,1425.16 6200.15,1434.24C6200.15,1453.44 6161.23,1478.61 6083.4,1509.74C6057.2,1520.38 6025.61,1529.26 5988.64,1536.4C5951.67,1543.53 5914.12,1547.1 5875.98,1547.1C5812.42,1547.1 5774.15,1526.86 5761.18,1486.39C5720.71,1526.86 5666.23,1547.1 5597.73,1547.1C5550.77,1547.1 5511.08,1535.81 5478.65,1513.24C5443.37,1488.6 5425.73,1449.81 5425.73,1396.88C5425.73,1341.1 5442.2,1289.74 5475.15,1242.78C5511.21,1190.63 5559.47,1154.7 5619.91,1134.98C5653.38,1124.08 5689.32,1118.63 5727.71,1118.63C5786.6,1118.63 5832.4,1133.16 5865.08,1162.22C5865.34,1160.66 5865.47,1158.2 5865.47,1154.83L5865.08,1138.09C5865.08,1125.12 5877.67,1118.63 5902.83,1118.63Z" style="fill:white;fill-rule:nonzero;"/>
                <path d="M5840.15,1097.12L5845.27,1092.19C5856.37,1083.61 5875.07,1076.36 5903.8,1076.36L6083,1084.58L6081.07,1084.53L6092.91,1085.51L6105.53,1089.03L6118,1095.82L6128.64,1105.67L6139.6,1124.31L6143.58,1146.27C6143.58,1168.29 6135.54,1203.63 6117.29,1251.74C6101.56,1293.2 6085.83,1334.28 6070.1,1374.96C6061.65,1396.84 6055.34,1413.63 6052.02,1425.59C6060.46,1423.16 6071.18,1419.35 6084.28,1414.57C6111.86,1404.51 6130.64,1397.04 6140.46,1391.83C6159.61,1381.68 6174.82,1378.35 6184.97,1378.35L6195.8,1379.17L6207.89,1382.39L6224.59,1392.56L6236.93,1409.08L6241.29,1422.31L6242.43,1434.24L6240.89,1447.41L6236.98,1458.85L6228.77,1472.56C6226.12,1476.07 6222.94,1479.7 6219.16,1483.39C6200.6,1501.51 6161.06,1524.2 6099.2,1548.95C6070.82,1560.46 6036.66,1570.18 5996.65,1577.91C5957.05,1585.55 5916.83,1589.37 5875.98,1589.37C5818.38,1589.37 5777.31,1574.65 5750.83,1548.73C5708.96,1575.52 5658.05,1589.37 5597.73,1589.37C5541.18,1589.37 5493.56,1575.12 5454.47,1547.92L5454.44,1547.9C5408.38,1515.73 5383.45,1465.97 5383.45,1396.88C5383.45,1332.37 5402.38,1272.93 5440.46,1218.61C5481.91,1158.72 5537.35,1117.44 5606.82,1094.79L5606.83,1094.78C5644.36,1082.56 5684.65,1076.36 5727.71,1076.36C5771.23,1076.36 5808.63,1083.52 5840.15,1097.12ZM5902.83,1118.63C5877.67,1118.63 5865.08,1125.12 5865.08,1138.09L5865.47,1154.83C5865.47,1158.2 5865.34,1160.66 5865.08,1162.22C5832.4,1133.16 5786.6,1118.63 5727.71,1118.63C5689.32,1118.63 5653.38,1124.08 5619.91,1134.98C5559.47,1154.7 5511.21,1190.63 5475.15,1242.78C5442.2,1289.74 5425.73,1341.1 5425.73,1396.88C5425.73,1449.81 5443.37,1488.6 5478.65,1513.24C5511.08,1535.81 5550.77,1547.1 5597.73,1547.1C5666.23,1547.1 5720.71,1526.86 5761.18,1486.39C5774.15,1526.86 5812.42,1547.1 5875.98,1547.1C5914.12,1547.1 5951.67,1543.53 5988.64,1536.4C6025.61,1529.26 6057.2,1520.38 6083.4,1509.74C6161.23,1478.61 6200.15,1453.44 6200.15,1434.24C6200.15,1425.16 6195.09,1420.62 6184.97,1420.62C6179.27,1420.62 6171.03,1423.48 6160.26,1429.18C6149.49,1434.89 6129,1443.26 6098.77,1454.28C6068.55,1465.31 6047.73,1470.82 6036.31,1470.82C6024.9,1470.82 6017.18,1469.01 6013.16,1465.38C6009.14,1461.74 6007.13,1453.38 6007.13,1440.27C6007.13,1427.17 6014.98,1400.32 6030.67,1359.72C6046.37,1319.12 6062.06,1278.12 6077.76,1236.75C6093.45,1195.36 6101.3,1165.2 6101.3,1146.27C6101.3,1141.34 6099.62,1136.86 6096.24,1132.84C6092.87,1128.82 6087.81,1126.81 6081.07,1126.81L5902.83,1118.63ZM5700.47,1448.25C5683.61,1448.25 5669.99,1442.41 5659.61,1430.74C5649.23,1419.07 5644.04,1401.49 5644.04,1378.01C5644.04,1354.53 5651.44,1328.13 5666.23,1298.82C5681.01,1269.5 5700.53,1245.18 5724.79,1225.85C5749.05,1206.52 5771.62,1196.86 5792.51,1196.86C5813.39,1196.86 5827.4,1200.88 5834.53,1208.92C5841.67,1216.96 5845.24,1231.62 5845.24,1252.89C5845.24,1274.17 5837.71,1301.93 5822.67,1336.17C5789.98,1410.89 5749.24,1448.25 5700.47,1448.25ZM5801.86,1239.85C5798.96,1239.48 5795.44,1239.13 5792.51,1239.13C5779.51,1239.13 5766.24,1246.88 5751.14,1258.91C5731.57,1274.51 5715.9,1294.2 5703.97,1317.86C5692.7,1340.2 5686.32,1360.11 5686.32,1378.01C5686.32,1388.74 5686.46,1397.32 5691.21,1402.65C5693.5,1405.24 5696.74,1405.98 5700.47,1405.98C5735.88,1405.98 5760.2,1373.48 5783.95,1319.2L5783.96,1319.17C5795.98,1291.81 5802.96,1269.89 5802.96,1252.89C5802.96,1248.67 5802.39,1243.63 5801.86,1239.85Z" style="fill:white;"/>
                <path d="M6883.89,1420.62C6893.49,1420.62 6898.29,1425.1 6898.29,1434.05C6898.29,1443 6893.56,1450.85 6884.09,1457.59C6874.62,1464.34 6860.67,1472.06 6842.25,1480.75C6823.83,1489.44 6800.94,1498.97 6773.57,1509.35C6746.2,1519.73 6714.55,1528.61 6678.61,1536.01C6642.68,1543.4 6608.37,1547.1 6575.68,1547.1C6498.63,1547.1 6460.1,1529.46 6460.1,1494.17C6460.1,1471.34 6473.14,1430.55 6499.21,1371.78C6525.28,1313.02 6538.32,1273.39 6538.32,1252.89C6538.32,1229.81 6520.29,1218.26 6484.23,1218.26C6467.88,1218.26 6449.33,1220.34 6428.58,1224.49C6418.72,1259.25 6401.14,1314.51 6375.85,1390.27C6350.55,1466.02 6336.28,1509.09 6333.04,1519.47C6329.8,1529.85 6322.86,1535.03 6312.22,1535.03L6111.8,1539.32C6108.95,1539.32 6105.77,1537.56 6102.27,1534.06C6098.77,1530.56 6097.02,1526.41 6097.02,1521.61C6097.02,1516.81 6102.53,1499.82 6113.56,1470.63C6124.58,1441.44 6136.78,1410.05 6150.14,1376.45C6163.5,1342.86 6175.69,1305.88 6186.72,1265.54C6197.74,1225.2 6203.26,1191.8 6203.26,1165.33L6202.87,1150.55C6202.87,1137.57 6215.45,1131.09 6240.62,1131.09L6425.08,1126.81C6431.82,1126.81 6436.88,1128.82 6440.25,1132.84C6443.63,1136.86 6445.31,1141.79 6445.31,1147.63C6445.31,1153.46 6443.89,1162.87 6441.03,1175.84C6532.35,1137.7 6607.33,1118.63 6665.97,1118.63C6690.87,1118.63 6713.57,1125.51 6734.07,1139.26C6756.9,1154.57 6768.31,1177.79 6768.31,1208.92C6768.31,1240.83 6756.25,1282.6 6732.12,1334.23C6707.99,1385.86 6695.93,1417.77 6695.93,1429.96C6695.93,1454.09 6705.53,1466.15 6724.73,1466.15C6736.92,1466.15 6757.74,1461.55 6787.19,1452.34C6816.63,1443.13 6838.43,1435.54 6852.57,1429.57C6866.71,1423.61 6877.15,1420.62 6883.89,1420.62Z" style="fill:white;fill-rule:nonzero;"/>
                <path d="M6479.42,1115.55C6553,1089.13 6615.26,1076.36 6665.97,1076.36C6699.49,1076.36 6730.03,1085.64 6757.61,1104.15C6792.14,1127.3 6810.59,1161.83 6810.59,1208.92C6810.59,1245.31 6797.94,1293.25 6770.42,1352.13C6757.44,1379.92 6747.12,1406.95 6741.89,1421.32C6750.65,1419.27 6761.52,1416.07 6774.57,1411.99C6802.28,1403.32 6822.82,1396.24 6836.13,1390.62C6857.53,1381.59 6873.68,1378.35 6883.89,1378.35L6894.75,1379.21L6906.93,1382.57L6923.52,1393.06L6935.41,1409.55L6939.51,1422.46L6940.57,1434.05L6938.1,1452.02L6930.94,1468.49L6920.6,1481.81C6917.17,1485.34 6913.19,1488.77 6908.62,1492.03C6897.66,1499.83 6881.61,1508.92 6860.29,1518.98C6841.05,1528.06 6817.15,1538.04 6788.56,1548.88C6759.32,1559.97 6725.52,1569.52 6687.13,1577.41C6648.23,1585.42 6611.07,1589.37 6575.68,1589.37C6529.25,1589.37 6494.61,1582.93 6471.4,1572.3C6434.23,1555.29 6417.82,1528.21 6417.82,1494.17C6417.82,1468.24 6430.95,1421.38 6460.57,1354.64C6479.79,1311.32 6492.1,1280.53 6495.25,1261.49C6491.82,1261 6487.69,1260.54 6484.23,1260.54C6477.17,1260.54 6469.64,1261.02 6461.62,1261.95C6451.17,1296.51 6435.95,1343.75 6415.95,1403.66C6390.8,1478.96 6376.61,1521.76 6373.39,1532.08L6365.29,1549.42L6350.72,1565L6331.47,1574.61C6331.47,1574.61 6312.22,1577.31 6313.12,1577.3L6112.26,1581.59L6100.39,1580.26L6090.88,1577.03L6072.38,1563.95L6065.12,1555.24L6059.38,1544.75L6055.86,1533.2L6054.74,1521.61C6054.74,1515.46 6059.88,1493.09 6074.01,1455.69C6085.11,1426.29 6097.4,1394.67 6110.85,1360.83C6123.67,1328.59 6135.36,1293.11 6145.94,1254.4C6155.67,1218.78 6160.9,1189.31 6160.98,1165.86L6160.59,1151.1L6161.92,1137.94L6166.34,1125.09L6173.76,1113.6L6183.05,1104.65C6194.08,1096.12 6212.61,1088.91 6240.08,1088.81L6424.59,1084.53L6436.92,1085.51L6449.54,1089.03L6462.01,1095.82L6472.65,1105.67L6479.27,1115.22L6479.42,1115.55ZM6883.89,1420.62C6877.15,1420.62 6866.71,1423.61 6852.57,1429.57C6838.43,1435.54 6816.63,1443.13 6787.19,1452.34C6757.74,1461.55 6736.92,1466.15 6724.73,1466.15C6705.53,1466.15 6695.93,1454.09 6695.93,1429.96C6695.93,1417.77 6707.99,1385.86 6732.12,1334.23C6756.25,1282.6 6768.31,1240.83 6768.31,1208.92C6768.31,1177.79 6756.9,1154.57 6734.07,1139.26C6713.57,1125.51 6690.87,1118.63 6665.97,1118.63C6607.33,1118.63 6532.35,1137.7 6441.03,1175.84C6443.89,1162.87 6445.31,1153.46 6445.31,1147.63C6445.31,1141.79 6443.63,1136.86 6440.25,1132.84C6436.88,1128.82 6431.82,1126.81 6425.08,1126.81L6240.62,1131.09C6215.45,1131.09 6202.87,1137.57 6202.87,1150.55L6203.26,1165.33C6203.26,1191.8 6197.74,1225.2 6186.72,1265.54C6175.69,1305.88 6163.5,1342.86 6150.14,1376.45C6136.78,1410.05 6124.58,1441.44 6113.56,1470.63C6102.53,1499.82 6097.02,1516.81 6097.02,1521.61C6097.02,1526.41 6098.77,1530.56 6102.27,1534.06C6105.77,1537.56 6108.95,1539.32 6111.8,1539.32L6312.22,1535.03C6322.86,1535.03 6329.8,1529.85 6333.04,1519.47C6336.28,1509.09 6350.55,1466.02 6375.85,1390.27C6401.14,1314.51 6418.72,1259.25 6428.58,1224.49C6449.33,1220.34 6467.88,1218.26 6484.23,1218.26C6520.29,1218.26 6538.32,1229.81 6538.32,1252.89C6538.32,1273.39 6525.28,1313.02 6499.21,1371.78C6473.14,1430.55 6460.1,1471.34 6460.1,1494.17C6460.1,1529.46 6498.63,1547.1 6575.68,1547.1C6608.37,1547.1 6642.68,1543.4 6678.61,1536.01C6714.55,1528.61 6746.2,1519.73 6773.57,1509.35C6800.94,1498.97 6823.83,1489.44 6842.25,1480.75C6860.67,1472.06 6874.62,1464.34 6884.09,1457.59C6893.56,1450.85 6898.29,1443 6898.29,1434.05C6898.29,1425.1 6893.49,1420.62 6883.89,1420.62Z" style="fill:white;"/>
                <path d="M7184.56,982.819C7184.56,1010.58 7169.19,1034.77 7138.44,1055.4C7107.7,1076.02 7075.27,1086.34 7041.15,1086.34C7007.04,1086.34 6980.51,1079.39 6961.57,1065.52C6942.63,1051.63 6933.16,1034.71 6933.16,1014.73C6933.16,994.753 6940.43,976.593 6954.95,960.248C6969.48,943.903 6988.36,931.061 7011.58,921.721C7034.8,912.382 7060.03,907.712 7087.27,907.712C7114.51,907.712 7137.53,914.911 7156.34,929.31C7175.15,943.709 7184.56,961.545 7184.56,982.819ZM7075.2,1465.76C7092.85,1465.76 7116.78,1461.55 7147,1453.12C7177.23,1444.68 7199.22,1437.16 7212.97,1430.55C7226.72,1423.93 7236.32,1420.62 7241.76,1420.62C7252.66,1420.62 7258.11,1426.07 7258.11,1436.97C7258.11,1441.9 7254.09,1447.47 7246.04,1453.7C7219.58,1473.42 7171.97,1493.91 7103.22,1515.19C7034.47,1536.46 6973.11,1547.1 6919.15,1547.1C6885.68,1547.1 6857.66,1541.78 6835.09,1531.14C6812.52,1520.51 6801.24,1504.29 6801.24,1482.5C6801.24,1469.27 6812.52,1436.84 6835.09,1385.21C6877.64,1287.4 6898.91,1213.72 6898.91,1164.17L6898.53,1149.38C6898.53,1136.41 6911.11,1129.92 6936.27,1129.92L7128.52,1125.64C7135.26,1125.64 7140.32,1127.65 7143.69,1131.67C7147.07,1135.69 7148.75,1140.17 7148.75,1145.1C7148.75,1163 7140.58,1192.51 7124.24,1233.63C7107.89,1274.75 7091.55,1315.16 7075.2,1354.85C7058.86,1394.55 7050.69,1422.96 7050.69,1440.08C7050.69,1457.2 7058.86,1465.76 7075.2,1465.76Z" style="fill:white;fill-rule:nonzero;"/>
                <path d="M6922.93,1088.24C6901.02,1067.38 6890.89,1042.58 6890.89,1014.73C6890.89,984.525 6901.39,956.875 6923.36,932.161C6941.99,911.2 6966.02,894.477 6995.8,882.5C7023.87,871.21 7054.34,865.436 7087.27,865.436C7124.72,865.436 7156.18,875.945 7182.04,895.741C7212.49,919.05 7226.83,948.381 7226.83,982.819C7226.83,1023.4 7206.94,1060.35 7161.99,1090.5L7160.12,1091.75L7165.45,1094.65L7176.09,1104.51L7187.05,1123.14L7191.03,1145.1C7191.03,1166.09 7182.69,1201.03 7163.52,1249.25C7147.11,1290.53 7130.7,1331.1 7114.3,1370.95C7105.75,1391.7 7099.4,1408.5 7095.94,1421.57C7107.3,1419.73 7120.52,1416.61 7135.64,1412.4C7162.64,1404.86 7182.35,1398.36 7194.64,1392.45C7216.84,1381.77 7232.96,1378.35 7241.76,1378.35L7253.65,1379.36L7266.75,1383.24L7283.91,1394.81L7295.49,1411.98L7299.37,1425.08L7300.38,1436.97L7298.01,1452.52L7292.58,1464.69L7284.69,1475.4C7281.35,1479.13 7277.14,1483.09 7271.62,1487.37L7271.3,1487.6C7242.41,1509.13 7190.79,1532.35 7115.72,1555.57C7042.32,1578.29 6976.77,1589.37 6919.15,1589.37C6878.46,1589.37 6844.51,1582.32 6817.07,1569.38C6777.26,1550.62 6758.96,1520.93 6758.96,1482.5C6758.96,1467.07 6770.02,1428.54 6796.33,1368.33C6835.55,1278.17 6856.48,1210.53 6856.64,1164.69L6856.25,1149.93L6857.58,1136.77L6862,1123.92L6869.42,1112.43L6878.71,1103.48C6887.93,1096.35 6902.39,1090.14 6922.93,1088.24ZM7075.2,1465.76C7058.86,1465.76 7050.69,1457.2 7050.69,1440.08C7050.69,1422.96 7058.86,1394.55 7075.2,1354.85C7091.55,1315.16 7107.89,1274.75 7124.24,1233.63C7140.58,1192.51 7148.75,1163 7148.75,1145.1C7148.75,1140.17 7147.07,1135.69 7143.69,1131.67C7140.32,1127.65 7135.26,1125.64 7128.52,1125.64L6936.27,1129.92C6911.11,1129.92 6898.53,1136.41 6898.53,1149.38L6898.91,1164.17C6898.91,1213.72 6877.64,1287.4 6835.09,1385.21C6812.52,1436.84 6801.24,1469.27 6801.24,1482.5C6801.24,1504.29 6812.52,1520.51 6835.09,1531.14C6857.66,1541.78 6885.68,1547.1 6919.15,1547.1C6973.11,1547.1 7034.47,1536.46 7103.22,1515.19C7171.97,1493.91 7219.58,1473.42 7246.04,1453.7C7254.09,1447.47 7258.11,1441.9 7258.11,1436.97C7258.11,1426.07 7252.66,1420.62 7241.76,1420.62C7236.32,1420.62 7226.72,1423.93 7212.97,1430.55C7199.22,1437.16 7177.23,1444.68 7147,1453.12C7116.78,1461.55 7092.85,1465.76 7075.2,1465.76ZM7184.56,982.819C7184.56,961.545 7175.15,943.709 7156.34,929.31C7137.53,914.911 7114.51,907.712 7087.27,907.712C7060.03,907.712 7034.8,912.382 7011.58,921.721C6988.36,931.061 6969.48,943.903 6954.95,960.248C6940.43,976.593 6933.16,994.753 6933.16,1014.73C6933.16,1034.71 6942.63,1051.63 6961.57,1065.52C6980.51,1079.39 7007.04,1086.34 7041.15,1086.34C7075.27,1086.34 7107.7,1076.02 7138.44,1055.4C7169.19,1034.77 7184.56,1010.58 7184.56,982.819Z" style="fill:white;"/>
                <path d="M7443.62,1546.71C7437.14,1546.97 7427.54,1547.1 7414.82,1547.1C7355.15,1547.1 7298.92,1541.52 7246.12,1530.36C7193.33,1519.21 7162.13,1506.24 7152.53,1491.45C7149.42,1486.78 7147.86,1480.94 7147.86,1473.94C7147.86,1466.93 7156.16,1455.71 7172.77,1440.27C7189.37,1424.84 7200.79,1417.12 7207.01,1417.12C7213.24,1417.12 7219.66,1419.39 7226.28,1423.93C7232.89,1428.47 7240.22,1433.98 7248.26,1440.47C7256.31,1446.95 7265.26,1453.44 7275.12,1459.93C7298.73,1475.49 7327.13,1483.28 7360.34,1483.28C7373.57,1483.28 7384.27,1479.9 7392.45,1473.16C7400.62,1466.41 7404.7,1457.92 7404.7,1447.67C7404.7,1437.42 7401.27,1428.54 7394.39,1421.01C7387.52,1413.49 7378.57,1406.94 7367.54,1401.36C7356.51,1395.78 7344.39,1390.2 7331.15,1384.62C7317.92,1379.05 7304.63,1372.95 7291.27,1366.33C7277.9,1359.72 7265.65,1352.52 7254.49,1344.74C7229.84,1327.35 7217.52,1305.76 7217.52,1279.94C7217.52,1254.13 7225.37,1231.75 7241.06,1212.81C7256.76,1193.87 7276.54,1178.69 7300.41,1167.28C7324.28,1155.87 7351.26,1146.27 7381.36,1138.48C7434.28,1125.25 7484.29,1118.63 7531.38,1118.63C7578.46,1118.63 7622.31,1121.04 7662.91,1125.84C7703.51,1130.63 7731.47,1137.7 7746.78,1147.04C7750.93,1149.38 7753,1155.54 7753,1165.53C7753,1175.52 7749.5,1189.79 7742.49,1208.34C7735.49,1226.89 7726.6,1244.01 7715.84,1259.7C7705.07,1275.4 7695.41,1283.25 7686.85,1283.25C7683.47,1283.25 7680.62,1281.82 7678.28,1278.97C7653.64,1249.39 7629.7,1226.63 7606.48,1210.67C7583.26,1194.72 7558.03,1186.74 7530.79,1186.74C7510.04,1186.74 7495.18,1190.95 7486.23,1199.39C7477.28,1207.82 7472.81,1216.57 7472.81,1225.65C7472.81,1234.73 7477.8,1243.42 7487.79,1251.73C7497.78,1260.03 7510.23,1267.55 7525.15,1274.3C7540.07,1281.04 7556.28,1288.89 7573.79,1297.84C7591.31,1306.79 7607.52,1315.87 7622.44,1325.08C7637.36,1334.29 7649.81,1345.84 7659.8,1359.72C7669.79,1373.6 7674.78,1391.05 7674.78,1412.06C7674.78,1433.08 7667.13,1453.57 7651.82,1473.55C7716.16,1460.58 7766.49,1444.62 7802.81,1425.68C7809.04,1422.31 7814.36,1420.62 7818.77,1420.62C7828.63,1420.62 7833.56,1425.55 7833.56,1435.41C7833.56,1443.71 7828.5,1451.3 7818.38,1458.18C7808.26,1465.05 7791.53,1473.35 7768.18,1483.08C7744.83,1492.81 7717.07,1502.6 7684.9,1512.46C7609.92,1535.29 7529.49,1546.71 7443.62,1546.71Z" style="fill:white;fill-rule:nonzero;"/>
                <path d="M7229.37,1378.75C7192.4,1352.39 7175.24,1318.95 7175.24,1279.94C7175.24,1243.72 7186.49,1212.41 7208.51,1185.84C7228.02,1162.3 7252.51,1143.33 7282.17,1129.14C7308.3,1116.64 7337.82,1106.07 7370.94,1097.51L7371.1,1097.47C7427.64,1083.33 7481.07,1076.36 7531.38,1076.36C7580.24,1076.36 7625.74,1078.87 7667.87,1083.85C7716.92,1089.65 7750.3,1099.67 7768.8,1110.96L7767.5,1110.2L7781.08,1121.36L7789.15,1133.97L7793.6,1147.68C7794.63,1152.68 7795.28,1158.62 7795.28,1165.53C7795.28,1178.95 7791.46,1198.34 7782.04,1223.27C7773.81,1245.07 7763.35,1265.18 7750.7,1283.62C7740.38,1298.67 7730.11,1308.67 7721.05,1314.69L7706.03,1322.23L7686.85,1325.53L7686.75,1325.52C7689.31,1328.59 7691.76,1331.76 7694.11,1335.03C7708.86,1355.52 7717.06,1381.04 7717.06,1412.06C7717.06,1412.73 7717.05,1413.4 7717.04,1414.07C7742.83,1406.32 7764.84,1397.78 7782.89,1388.39C7789.95,1384.59 7796.47,1382.08 7802.3,1380.54L7818.77,1378.35L7830.22,1379.32L7842.96,1383.1L7859.75,1394.42L7871.08,1411.21L7874.86,1423.96L7875.83,1435.41L7873.94,1450.65L7868.58,1464.64L7856.47,1481.23C7852.52,1485.3 7847.78,1489.31 7842.14,1493.14C7830.48,1501.06 7811.34,1510.9 7784.44,1522.11C7760,1532.29 7730.96,1542.57 7697.25,1552.89L7697.21,1552.91C7618.67,1576.82 7534.46,1588.9 7444.54,1588.98L7444.44,1588.99C7437.6,1589.24 7427.72,1589.37 7414.82,1589.37C7352.06,1589.37 7292.92,1583.46 7237.38,1571.73C7201.22,1564.09 7174.04,1555.33 7155.63,1546.19C7136.2,1536.56 7124.01,1525.15 7117.36,1514.9L7108.18,1494.46L7105.59,1473.94C7105.59,1461.36 7114.18,1437.02 7143.98,1409.31C7159.7,1394.69 7172.38,1385.71 7181.23,1381.33L7194.37,1376.42L7207.01,1374.84L7229.37,1378.75ZM7443.62,1546.71C7529.49,1546.71 7609.92,1535.29 7684.9,1512.46C7717.07,1502.6 7744.83,1492.81 7768.18,1483.08C7791.53,1473.35 7808.26,1465.05 7818.38,1458.18C7828.5,1451.3 7833.56,1443.71 7833.56,1435.41C7833.56,1425.55 7828.63,1420.62 7818.77,1420.62C7814.36,1420.62 7809.04,1422.31 7802.81,1425.68C7766.49,1444.62 7716.16,1460.58 7651.82,1473.55C7667.13,1453.57 7674.78,1433.08 7674.78,1412.06C7674.78,1391.05 7669.79,1373.6 7659.8,1359.72C7649.81,1345.84 7637.36,1334.29 7622.44,1325.08C7607.52,1315.87 7591.31,1306.79 7573.79,1297.84C7556.28,1288.89 7540.07,1281.04 7525.15,1274.3C7510.23,1267.55 7497.78,1260.03 7487.79,1251.73C7477.8,1243.42 7472.81,1234.73 7472.81,1225.65C7472.81,1216.57 7477.28,1207.82 7486.23,1199.39C7495.18,1190.95 7510.04,1186.74 7530.79,1186.74C7558.03,1186.74 7583.26,1194.72 7606.48,1210.67C7629.7,1226.63 7653.64,1249.39 7678.28,1278.97C7680.62,1281.82 7683.47,1283.25 7686.85,1283.25C7695.41,1283.25 7705.07,1275.4 7715.84,1259.7C7726.6,1244.01 7735.49,1226.89 7742.49,1208.34C7749.5,1189.79 7753,1175.52 7753,1165.53C7753,1155.54 7750.93,1149.38 7746.78,1147.04C7731.47,1137.7 7703.51,1130.63 7662.91,1125.84C7622.31,1121.04 7578.46,1118.63 7531.38,1118.63C7484.29,1118.63 7434.28,1125.25 7381.36,1138.48C7351.26,1146.27 7324.28,1155.87 7300.41,1167.28C7276.54,1178.69 7256.76,1193.87 7241.06,1212.81C7225.37,1231.75 7217.52,1254.13 7217.52,1279.94C7217.52,1305.76 7229.84,1327.35 7254.49,1344.74C7265.65,1352.52 7277.9,1359.72 7291.27,1366.33C7304.63,1372.95 7317.92,1379.05 7331.15,1384.62C7344.39,1390.2 7356.51,1395.78 7367.54,1401.36C7378.57,1406.94 7387.52,1413.49 7394.39,1421.01C7401.27,1428.54 7404.7,1437.42 7404.7,1447.67C7404.7,1457.92 7400.62,1466.41 7392.45,1473.16C7384.27,1479.9 7373.57,1483.28 7360.34,1483.28C7327.13,1483.28 7298.73,1475.49 7275.12,1459.93C7265.26,1453.44 7256.31,1446.95 7248.26,1440.47C7240.22,1433.98 7232.89,1428.47 7226.28,1423.93C7219.66,1419.39 7213.24,1417.12 7207.01,1417.12C7200.79,1417.12 7189.37,1424.84 7172.77,1440.27C7156.16,1455.71 7147.86,1466.93 7147.86,1473.94C7147.86,1480.94 7149.42,1486.78 7152.53,1491.45C7162.13,1506.24 7193.33,1519.21 7246.12,1530.36C7298.92,1541.52 7355.15,1547.1 7414.82,1547.1C7427.54,1547.1 7437.14,1546.97 7443.62,1546.71ZM7267.18,1401.53C7269.65,1403.45 7272.19,1405.46 7274.8,1407.56C7281.85,1413.25 7289.71,1418.92 7298.37,1424.62L7298.39,1424.63C7313.41,1434.54 7331.22,1439.66 7351.63,1440.77C7350.6,1440.19 7349.55,1439.63 7348.46,1439.08C7338.24,1433.91 7326.99,1428.75 7314.73,1423.58C7300.73,1417.68 7286.65,1411.22 7272.51,1404.22C7270.71,1403.33 7268.94,1402.43 7267.18,1401.53ZM7613.39,1270.96C7602.97,1260.99 7592.7,1252.49 7582.54,1245.51C7566.65,1234.6 7549.43,1229.01 7530.79,1229.01C7530.29,1229.01 7529.77,1229.03 7529.24,1229.05C7533.35,1231.38 7537.8,1233.62 7542.57,1235.78C7558.04,1242.78 7574.87,1250.91 7593.03,1260.2C7600.01,1263.77 7606.8,1267.35 7613.39,1270.96Z" style="fill:white;"/>
                <path d="M8115.4,1135.37L8217.74,1122.14C8236.94,1122.14 8246.54,1129.66 8246.54,1144.71C8246.54,1159.76 8237.46,1169.16 8219.3,1172.92C8201.14,1176.68 8160.15,1181.68 8096.33,1187.9C8087.51,1211 8074.27,1243.04 8056.63,1284.03C8020.57,1368.09 8002.54,1418.55 8002.54,1435.41C8002.54,1453.83 8013.95,1463.04 8036.78,1463.04C8110.47,1463.04 8176.62,1450.72 8235.26,1426.07C8243.82,1422.44 8250.56,1420.62 8255.49,1420.62C8265.09,1420.62 8269.89,1424.9 8269.89,1433.46C8269.89,1442.03 8263.66,1450.46 8251.21,1458.76C8213.07,1483.92 8155.61,1504.94 8078.81,1521.8C8002.02,1538.67 7931.19,1547.1 7866.33,1547.1C7829.49,1547.1 7801.34,1541.33 7781.89,1529.78C7762.43,1518.24 7752.7,1502.35 7752.7,1482.11C7752.7,1461.61 7766.19,1423.35 7793.17,1367.31C7823.53,1304.52 7845.32,1249.39 7858.55,1201.91C7842.47,1202.69 7831.31,1203.08 7825.08,1203.08C7809.78,1203.08 7802.12,1196.86 7802.12,1184.4C7802.12,1175.32 7804.59,1169.23 7809.52,1166.11C7814.45,1163 7819.57,1160.79 7824.89,1159.5C7830.21,1158.2 7834.75,1157.36 7838.51,1156.97C7842.27,1156.58 7847.52,1156.12 7854.27,1155.61C7861.02,1155.09 7865.95,1154.7 7869.06,1154.44C7872.43,1134.72 7874.12,1116.17 7874.12,1098.79L7873.73,1084C7873.73,1072.33 7888.52,1064.41 7918.09,1060.26C7927.95,1058.96 7958.95,1052.48 8011.1,1040.8C8063.25,1029.13 8095.16,1023.29 8106.83,1023.29C8125.51,1023.29 8134.85,1029.78 8134.85,1042.75C8134.85,1065.06 8128.37,1095.93 8115.4,1135.37Z" style="fill:white;fill-rule:nonzero;"/>
                <path d="M7801.2,1241.74L7799.45,1241.32L7781.18,1231.21L7771.33,1220.88L7764.44,1208.6L7760.84,1196.09L7759.85,1184.4L7762.13,1165.27L7767.55,1151.26L7775.68,1139.79L7786.94,1130.37C7795.89,1124.72 7805.22,1120.78 7814.87,1118.42C7821.09,1116.91 7826.56,1115.88 7831.28,1115.26C7831.64,1109.82 7831.83,1104.51 7831.84,1099.31L7831.45,1084.56L7833.36,1069.56L7838.96,1056.19L7846.95,1045.52L7855.85,1037.69C7866.69,1029.75 7885.11,1022.2 7912.4,1018.37L7912.58,1018.35C7922.04,1017.1 7951.79,1010.76 8001.86,999.549C8058.98,986.762 8094.05,981.016 8106.83,981.016C8119.85,981.016 8130.43,983.182 8138.76,986.435L8150.09,992.184L8160.87,1001.02L8168.31,1010.62L8173.51,1021.43L8177.13,1042.75C8177.13,1054.76 8175.62,1068.97 8172.48,1085.36L8215.02,1079.86L8217.74,1079.86C8228.8,1079.86 8238.15,1081.49 8245.89,1084.09L8265.42,1094.51L8276.06,1105.26L8283.65,1118.29L8287.68,1131.84L8288.82,1144.71L8287.82,1157.03L8284.47,1169.65L8278.49,1181.78L8270.14,1192.41L8260.24,1200.87L8249.61,1207.11C8243.39,1210.11 8236.17,1212.6 8227.88,1214.32C8211.62,1217.69 8177.74,1222.1 8126.21,1227.4C8118.1,1247.5 8107.86,1271.94 8095.48,1300.71C8074.49,1349.64 8059.74,1386.82 8051.34,1412.29C8050.33,1415.35 8049.39,1418.13 8048.55,1420.65C8111.43,1419.43 8168.22,1408.39 8218.86,1387.1C8234.24,1380.59 8246.62,1378.35 8255.49,1378.35L8277.93,1382.29L8294.43,1392.28L8306.7,1408.6L8311.04,1421.69L8312.17,1433.46L8309.72,1450.46L8303.33,1465.13C8297.75,1474.61 8288.61,1484.63 8274.58,1493.99L8274.5,1494.05C8233.16,1521.32 8171.12,1544.82 8087.88,1563.1C8007.82,1580.68 7933.96,1589.37 7866.33,1589.37C7819.95,1589.37 7784.81,1580.67 7760.31,1566.14C7726.3,1545.95 7710.42,1517.49 7710.42,1482.11C7710.42,1458.46 7723.95,1413.62 7755.1,1348.94L7755.11,1348.91C7773.86,1310.12 7789.24,1274.41 7801.2,1241.74ZM8115.4,1135.37C8128.37,1095.93 8134.85,1065.06 8134.85,1042.75C8134.85,1029.78 8125.51,1023.29 8106.83,1023.29C8095.16,1023.29 8063.25,1029.13 8011.1,1040.8C7958.95,1052.48 7927.95,1058.96 7918.09,1060.26C7888.52,1064.41 7873.73,1072.33 7873.73,1084L7874.12,1098.79C7874.12,1116.17 7872.43,1134.72 7869.06,1154.44C7865.95,1154.7 7861.02,1155.09 7854.27,1155.61C7847.52,1156.12 7842.27,1156.58 7838.51,1156.97C7834.75,1157.36 7830.21,1158.2 7824.89,1159.5C7819.57,1160.79 7814.45,1163 7809.52,1166.11C7804.59,1169.23 7802.12,1175.32 7802.12,1184.4C7802.12,1196.86 7809.78,1203.08 7825.08,1203.08C7831.31,1203.08 7842.47,1202.69 7858.55,1201.91C7845.32,1249.39 7823.53,1304.52 7793.17,1367.31C7766.19,1423.35 7752.7,1461.61 7752.7,1482.11C7752.7,1502.35 7762.43,1518.24 7781.89,1529.78C7801.34,1541.33 7829.49,1547.1 7866.33,1547.1C7931.19,1547.1 8002.02,1538.67 8078.81,1521.8C8155.61,1504.94 8213.07,1483.92 8251.21,1458.76C8263.66,1450.46 8269.89,1442.03 8269.89,1433.46C8269.89,1424.9 8265.09,1420.62 8255.49,1420.62C8250.56,1420.62 8243.82,1422.44 8235.26,1426.07C8176.62,1450.72 8110.47,1463.04 8036.78,1463.04C8013.95,1463.04 8002.54,1453.83 8002.54,1435.41C8002.54,1418.55 8020.57,1368.09 8056.63,1284.03C8074.27,1243.04 8087.51,1211 8096.33,1187.9C8160.15,1181.68 8201.14,1176.68 8219.3,1172.92C8237.46,1169.16 8246.54,1159.76 8246.54,1144.71C8246.54,1129.66 8236.94,1122.14 8217.74,1122.14L8115.4,1135.37Z" style="fill:white;"/>
            </g>
            <g transform="matrix(0.249062,0,0,0.249062,-22.8375,1349.57)">
                <path d="M1205.22,982.819C1205.22,1010.58 1189.85,1034.77 1159.11,1055.4C1128.36,1076.02 1095.93,1086.34 1061.82,1086.34C1027.7,1086.34 1001.17,1079.39 982.232,1065.52C963.293,1051.63 953.824,1034.71 953.824,1014.73C953.824,994.753 961.088,976.593 975.617,960.248C990.145,943.903 1009.02,931.061 1032.24,921.721C1055.46,912.382 1080.69,907.712 1107.93,907.712C1135.17,907.712 1158.2,914.911 1177.01,929.31C1195.82,943.709 1205.22,961.545 1205.22,982.819ZM1095.87,1465.76C1113.51,1465.76 1137.44,1461.55 1167.67,1453.12C1197.89,1444.68 1219.88,1437.16 1233.63,1430.55C1247.38,1423.93 1256.98,1420.62 1262.43,1420.62C1273.32,1420.62 1278.77,1426.07 1278.77,1436.97C1278.77,1441.9 1274.75,1447.47 1266.71,1453.7C1240.24,1473.42 1192.64,1493.91 1123.89,1515.19C1055.13,1536.46 993.777,1547.1 939.814,1547.1C906.347,1547.1 878.327,1541.78 855.756,1531.14C833.185,1520.51 821.899,1504.29 821.899,1482.5C821.899,1469.27 833.185,1436.84 855.756,1385.21C898.304,1287.4 919.578,1213.72 919.578,1164.17L919.189,1149.38C919.189,1136.41 931.772,1129.92 956.937,1129.92L1149.18,1125.64C1155.93,1125.64 1160.99,1127.65 1164.36,1131.67C1167.73,1135.69 1169.42,1140.17 1169.42,1145.1C1169.42,1163 1161.25,1192.51 1144.9,1233.63C1128.56,1274.75 1112.21,1315.16 1095.87,1354.85C1079.52,1394.55 1071.35,1422.96 1071.35,1440.08C1071.35,1457.2 1079.52,1465.76 1095.87,1465.76Z" style="fill-rule:nonzero;"/>
                <path d="M1995.99,1420.62C2005.59,1420.62 2010.39,1425.1 2010.39,1434.05C2010.39,1443 2005.65,1450.85 1996.18,1457.59C1986.71,1464.34 1972.77,1472.06 1954.35,1480.75C1935.93,1489.44 1913.03,1498.97 1885.66,1509.35C1858.29,1519.73 1826.64,1528.61 1790.71,1536.01C1754.78,1543.4 1720.47,1547.1 1687.78,1547.1C1610.72,1547.1 1572.2,1529.46 1572.2,1494.17C1572.2,1471.34 1585.23,1430.55 1611.31,1371.78C1637.38,1313.02 1650.42,1273.39 1650.42,1252.89C1650.42,1229.81 1632.39,1218.26 1596.32,1218.26C1579.98,1218.26 1561.43,1220.34 1540.67,1224.49C1530.82,1259.25 1513.24,1314.51 1487.94,1390.27C1462.65,1466.02 1448.38,1509.09 1445.14,1519.47C1441.89,1529.85 1434.95,1535.03 1424.32,1535.03L1223.9,1539.32C1221.05,1539.32 1217.87,1537.56 1214.37,1534.06C1210.86,1530.56 1209.11,1526.41 1209.11,1521.61C1209.11,1516.81 1214.62,1499.82 1225.65,1470.63C1236.68,1441.44 1248.87,1410.05 1262.23,1376.45C1275.59,1342.86 1287.79,1305.88 1298.81,1265.54C1309.84,1225.2 1315.35,1191.8 1315.35,1165.33L1314.96,1150.55C1314.96,1137.57 1327.55,1131.09 1352.71,1131.09L1537.17,1126.81C1543.92,1126.81 1548.98,1128.82 1552.35,1132.84C1555.72,1136.86 1557.41,1141.79 1557.41,1147.63C1557.41,1153.46 1555.98,1162.87 1553.13,1175.84C1644.45,1137.7 1719.43,1118.63 1778.06,1118.63C1802.97,1118.63 1825.67,1125.51 1846.16,1139.26C1868.99,1154.57 1880.41,1177.79 1880.41,1208.92C1880.41,1240.83 1868.35,1282.6 1844.22,1334.23C1820.09,1385.86 1808.03,1417.77 1808.03,1429.96C1808.03,1454.09 1817.62,1466.15 1836.82,1466.15C1849.02,1466.15 1869.84,1461.55 1899.28,1452.34C1928.73,1443.13 1950.52,1435.54 1964.66,1429.57C1978.8,1423.61 1989.24,1420.62 1995.99,1420.62Z" style="fill-rule:nonzero;"/>
                <path d="M2321.71,1135.37L2424.06,1122.14C2443.26,1122.14 2452.86,1129.66 2452.86,1144.71C2452.86,1159.76 2443.78,1169.16 2425.62,1172.92C2407.46,1176.68 2366.47,1181.68 2302.64,1187.9C2293.82,1211 2280.59,1243.04 2262.95,1284.03C2226.89,1368.09 2208.86,1418.55 2208.86,1435.41C2208.86,1453.83 2220.27,1463.04 2243.1,1463.04C2316.78,1463.04 2382.94,1450.72 2441.58,1426.07C2450.14,1422.44 2456.88,1420.62 2461.81,1420.62C2471.41,1420.62 2476.21,1424.9 2476.21,1433.46C2476.21,1442.03 2469.98,1450.46 2457.53,1458.76C2419.39,1483.92 2361.93,1504.94 2285.13,1521.8C2208.34,1538.67 2137.51,1547.1 2072.65,1547.1C2035.81,1547.1 2007.66,1541.33 1988.21,1529.78C1968.75,1518.24 1959.02,1502.35 1959.02,1482.11C1959.02,1461.61 1972.51,1423.35 1999.49,1367.31C2029.85,1304.52 2051.64,1249.39 2064.87,1201.91C2048.78,1202.69 2037.63,1203.08 2031.4,1203.08C2016.1,1203.08 2008.44,1196.86 2008.44,1184.4C2008.44,1175.32 2010.91,1169.23 2015.84,1166.11C2020.77,1163 2025.89,1160.79 2031.21,1159.5C2036.53,1158.2 2041.07,1157.36 2044.83,1156.97C2048.59,1156.58 2053.84,1156.12 2060.59,1155.61C2067.34,1155.09 2072.26,1154.7 2075.38,1154.44C2078.75,1134.72 2080.44,1116.17 2080.44,1098.79L2080.05,1084C2080.05,1072.33 2094.84,1064.41 2124.41,1060.26C2134.27,1058.96 2165.27,1052.48 2217.42,1040.8C2269.57,1029.13 2301.48,1023.29 2313.15,1023.29C2331.83,1023.29 2341.17,1029.78 2341.17,1042.75C2341.17,1065.06 2334.69,1095.93 2321.71,1135.37Z" style="fill-rule:nonzero;"/>
                <path d="M3060.72,1420.62C3069.81,1420.62 3074.35,1424.84 3074.35,1433.27C3074.35,1441.7 3068.18,1449.48 3055.86,1456.62C3043.54,1463.75 3028.3,1471.41 3010.13,1479.58C2991.97,1487.75 2966.94,1497.42 2935.03,1508.57C2861.61,1534.26 2778.72,1547.1 2686.36,1547.1C2510.97,1547.1 2423.28,1493.13 2423.28,1385.21C2423.28,1332.54 2439.95,1285.78 2473.29,1244.92C2506.63,1204.06 2551.32,1172.79 2607.36,1151.13C2663.39,1129.47 2724.49,1118.63 2790.65,1118.63C2856.81,1118.63 2905.26,1128.88 2936,1149.38C2966.74,1169.87 2982.12,1198.02 2982.12,1233.83C2982.12,1270.67 2967.39,1300.76 2937.95,1324.11C2908.5,1347.46 2869.39,1364.84 2820.62,1376.26C2771.58,1387.67 2715.41,1395.72 2652.11,1400.39C2656.26,1440.6 2685.06,1465.63 2738.5,1475.49C2752.25,1477.83 2766.78,1479 2782.09,1479C2842.8,1479 2930.36,1460.7 3044.77,1424.12C3051.77,1421.79 3057.09,1420.62 3060.72,1420.62ZM2652.5,1357.58C2697.64,1345.12 2733.31,1326.06 2759.52,1300.37C2785.72,1274.69 2798.82,1243.68 2798.82,1207.36C2798.82,1197.76 2795.71,1190.11 2789.48,1184.4C2783.26,1178.69 2773.85,1175.84 2761.27,1175.84C2748.68,1175.84 2735.58,1181.29 2721.96,1192.19C2708.34,1203.08 2696.86,1217.35 2687.52,1234.99C2667.8,1271.57 2656.13,1312.44 2652.5,1357.58Z" style="fill-rule:nonzero;"/>
                <path d="M3148.29,1131.09L3332.75,1126.81C3339.49,1126.81 3344.55,1128.82 3347.92,1132.84C3351.3,1136.86 3352.98,1140.56 3352.98,1143.93C3352.98,1147.3 3352.08,1152.88 3350.26,1160.66C3348.44,1168.45 3346.11,1177.85 3343.25,1188.88C3340.4,1199.9 3338.58,1206.97 3337.81,1210.09C3358.04,1185.96 3383.34,1164.69 3413.69,1146.27C3444.05,1127.85 3470.77,1118.63 3493.86,1118.63C3542.89,1118.63 3567.41,1129.21 3567.41,1150.35C3567.41,1171.5 3560.79,1196.79 3547.56,1226.24C3534.33,1255.68 3521.88,1275.08 3510.2,1284.42C3504.49,1288.57 3497.56,1290.64 3489.38,1290.64C3481.21,1290.64 3473.62,1288.05 3466.62,1282.86C3435.22,1259.51 3400.98,1247.84 3363.88,1247.84C3349.61,1247.84 3337.16,1248.87 3326.52,1250.95C3316.4,1285.71 3300.32,1336.76 3278.26,1404.08C3256.21,1471.41 3244.02,1508.96 3241.68,1516.74C3237.79,1528.94 3230.53,1535.03 3219.89,1535.03C3182.27,1535.03 3141.93,1537.05 3098.86,1541.07C3055.8,1545.09 3031.08,1547.1 3024.73,1547.1C3018.37,1547.1 3013.44,1545.35 3009.94,1541.85C3006.44,1538.34 3004.69,1534.19 3004.69,1529.39C3004.69,1524.59 3010.2,1507.21 3021.22,1477.24C3032.25,1447.28 3044.45,1415.04 3057.81,1380.54C3071.17,1346.03 3083.36,1308.15 3094.39,1266.9C3105.41,1225.65 3110.93,1191.8 3110.93,1165.33L3110.54,1150.55C3110.54,1137.57 3123.12,1131.09 3148.29,1131.09Z" style="fill-rule:nonzero;"/>
                <path d="M3687.66,1131.09L3863.56,1126.81C3870.3,1126.81 3875.36,1128.82 3878.74,1132.84C3882.11,1136.86 3883.79,1142.83 3883.79,1150.74C3883.79,1158.65 3876.6,1179.15 3862.2,1212.23C3847.8,1245.31 3833.33,1280.46 3818.81,1317.69C3804.28,1354.92 3797.01,1382.1 3797.01,1399.22C3797.01,1431.39 3814.14,1447.47 3848.38,1447.47C3864.72,1447.47 3882.63,1445.4 3902.08,1441.25C3908.31,1419.19 3918.69,1390.01 3933.22,1353.69C3970.06,1262.62 3992.24,1193.35 3999.76,1145.88C4001.06,1136.28 4007.93,1131.48 4020.39,1131.48C4058.01,1131.48 4097.57,1130.7 4139.08,1129.14C4180.59,1127.59 4204.52,1126.81 4210.88,1126.81C4217.24,1126.81 4222.17,1128.56 4225.67,1132.06C4229.17,1135.56 4230.92,1138.87 4230.92,1141.99C4230.92,1154.44 4222.88,1180.77 4206.8,1220.98C4190.71,1261.2 4174.62,1302.77 4158.54,1345.71C4142.45,1388.65 4134.41,1419.97 4134.41,1439.69C4134.41,1459.41 4143.17,1469.27 4160.68,1469.27C4178.19,1469.27 4202.45,1464.53 4233.45,1455.06C4264.45,1445.59 4286.12,1437.49 4298.44,1430.74C4310.77,1424 4318.74,1420.62 4322.38,1420.62C4332.23,1420.62 4337.16,1425.29 4337.16,1434.63C4337.16,1443.97 4330.22,1452.86 4316.34,1461.29C4302.46,1469.72 4285.73,1478.28 4266.14,1486.97C4246.55,1495.66 4223.01,1504.81 4195.51,1514.41C4132.21,1536.2 4067.74,1547.1 4002.1,1547.1C3936.46,1547.1 3899.49,1529.46 3891.19,1494.17C3866.02,1504.55 3845.4,1512.66 3829.31,1518.5C3813.23,1524.33 3790.91,1530.56 3762.38,1537.17C3733.84,1543.79 3707.64,1547.1 3683.77,1547.1C3607.49,1547.1 3569.35,1515.97 3569.35,1453.7C3569.35,1432.17 3573.51,1406.03 3581.81,1375.29C3590.11,1344.54 3599.32,1316.72 3609.44,1291.81C3636.16,1225.65 3649.52,1184.6 3649.52,1168.64C3649.52,1152.69 3651.86,1142.44 3656.53,1137.9C3661.2,1133.36 3671.57,1131.09 3687.66,1131.09Z" style="fill-rule:nonzero;"/>
                <path d="M4411.1,1131.09L4595.56,1126.81C4602.31,1126.81 4607.37,1128.82 4610.74,1132.84C4614.11,1136.86 4615.8,1140.56 4615.8,1143.93C4615.8,1147.3 4614.89,1152.88 4613.08,1160.66C4611.26,1168.45 4608.93,1177.85 4606.07,1188.88C4603.22,1199.9 4601.4,1206.97 4600.62,1210.09C4620.86,1185.96 4646.15,1164.69 4676.51,1146.27C4706.86,1127.85 4733.59,1118.63 4756.68,1118.63C4805.71,1118.63 4830.23,1129.21 4830.23,1150.35C4830.23,1171.5 4823.61,1196.79 4810.38,1226.24C4797.15,1255.68 4784.69,1275.08 4773.02,1284.42C4767.31,1288.57 4760.37,1290.64 4752.2,1290.64C4744.03,1290.64 4736.44,1288.05 4729.43,1282.86C4698.04,1259.51 4663.8,1247.84 4626.7,1247.84C4612.43,1247.84 4599.97,1248.87 4589.34,1250.95C4579.22,1285.71 4563.13,1336.76 4541.08,1404.08C4519.03,1471.41 4506.84,1508.96 4504.5,1516.74C4500.61,1528.94 4493.35,1535.03 4482.71,1535.03C4445.09,1535.03 4404.75,1537.05 4361.68,1541.07C4318.61,1545.09 4293.9,1547.1 4287.55,1547.1C4281.19,1547.1 4276.26,1545.35 4272.76,1541.85C4269.26,1538.34 4267.5,1534.19 4267.5,1529.39C4267.5,1524.59 4273.02,1507.21 4284.04,1477.24C4295.07,1447.28 4307.26,1415.04 4320.62,1380.54C4333.98,1346.03 4346.18,1308.15 4357.2,1266.9C4368.23,1225.65 4373.74,1191.8 4373.74,1165.33L4373.36,1150.55C4373.36,1137.57 4385.94,1131.09 4411.1,1131.09Z" style="fill-rule:nonzero;"/>
                <path d="M4963.01,1501.18C4887.25,1526.86 4838.93,1539.7 4818.05,1539.7C4797.16,1539.7 4780.3,1535.36 4767.46,1526.67C4754.62,1517.98 4748.19,1507.14 4748.19,1494.17C4748.19,1484.31 4765.19,1432.17 4799.17,1337.73C4863.52,1157.94 4895.69,1041.84 4895.69,989.435L4895.3,974.647C4895.3,961.675 4907.88,955.189 4933.05,955.189L5034.61,955.189L5112.84,954.021C5119.58,954.021 5124.64,956.032 5128.01,960.053C5131.39,964.075 5133.07,968.55 5133.07,973.479C5133.07,997.607 5109.2,1073.1 5061.47,1199.97L5061.86,1199.58C5084.43,1173.9 5111.73,1153.98 5143.77,1139.84C5175.82,1125.7 5210.39,1118.63 5247.48,1118.63C5355.67,1118.63 5409.76,1169.23 5409.76,1270.41C5409.76,1309.32 5400.16,1346.81 5380.97,1382.87C5361.77,1418.94 5335.69,1450.33 5302.74,1477.05C5387.84,1469.53 5454.39,1452.66 5502.38,1426.46C5509.39,1422.57 5515.48,1420.62 5520.67,1420.62C5530.79,1420.62 5535.85,1424.71 5535.85,1432.88C5535.85,1441.05 5531.31,1448.51 5522.23,1455.26C5488.24,1478.87 5435.84,1499.75 5365.01,1517.91C5294.18,1536.07 5218.17,1545.28 5136.96,1545.54C5123.99,1546.58 5109.72,1547.1 5094.16,1547.1C5078.59,1547.1 5057.12,1543.01 5029.75,1534.84C5002.38,1526.67 4980.13,1515.45 4963.01,1501.18ZM5138.52,1217.48C5089.75,1217.48 5049.01,1254.84 5016.32,1329.56C5001.28,1363.81 4993.75,1391.57 4993.75,1412.84C4993.75,1434.11 4997.32,1448.77 5004.45,1456.81C5011.59,1464.86 5025.6,1468.88 5046.48,1468.88C5067.37,1468.88 5089.94,1459.21 5114.2,1439.88C5138.45,1420.56 5157.98,1396.24 5172.77,1366.92C5187.55,1337.6 5194.95,1311.2 5194.95,1287.72C5194.95,1264.25 5189.76,1246.67 5179.38,1234.99C5169,1223.32 5155.38,1217.48 5138.52,1217.48Z" style="fill-rule:nonzero;"/>
                <path d="M5700.47,1448.25C5749.24,1448.25 5789.98,1410.89 5822.67,1336.17C5837.71,1301.93 5845.24,1274.17 5845.24,1252.89C5845.24,1231.62 5841.67,1216.96 5834.53,1208.92C5827.4,1200.88 5813.39,1196.86 5792.51,1196.86C5771.62,1196.86 5749.05,1206.52 5724.79,1225.85C5700.53,1245.18 5681.01,1269.5 5666.23,1298.82C5651.44,1328.13 5644.04,1354.53 5644.04,1378.01C5644.04,1401.49 5649.23,1419.07 5659.61,1430.74C5669.99,1442.41 5683.61,1448.25 5700.47,1448.25ZM5902.83,1118.63L6081.07,1126.81C6087.81,1126.81 6092.87,1128.82 6096.24,1132.84C6099.62,1136.86 6101.3,1141.34 6101.3,1146.27C6101.3,1165.2 6093.45,1195.36 6077.76,1236.75C6062.06,1278.12 6046.37,1319.12 6030.67,1359.72C6014.98,1400.32 6007.13,1427.17 6007.13,1440.27C6007.13,1453.38 6009.14,1461.74 6013.16,1465.38C6017.18,1469.01 6024.9,1470.82 6036.31,1470.82C6047.73,1470.82 6068.55,1465.31 6098.77,1454.28C6129,1443.26 6149.49,1434.89 6160.26,1429.18C6171.03,1423.48 6179.27,1420.62 6184.97,1420.62C6195.09,1420.62 6200.15,1425.16 6200.15,1434.24C6200.15,1453.44 6161.23,1478.61 6083.4,1509.74C6057.2,1520.38 6025.61,1529.26 5988.64,1536.4C5951.67,1543.53 5914.12,1547.1 5875.98,1547.1C5812.42,1547.1 5774.15,1526.86 5761.18,1486.39C5720.71,1526.86 5666.23,1547.1 5597.73,1547.1C5550.77,1547.1 5511.08,1535.81 5478.65,1513.24C5443.37,1488.6 5425.73,1449.81 5425.73,1396.88C5425.73,1341.1 5442.2,1289.74 5475.15,1242.78C5511.21,1190.63 5559.47,1154.7 5619.91,1134.98C5653.38,1124.08 5689.32,1118.63 5727.71,1118.63C5786.6,1118.63 5832.4,1133.16 5865.08,1162.22C5865.34,1160.66 5865.47,1158.2 5865.47,1154.83L5865.08,1138.09C5865.08,1125.12 5877.67,1118.63 5902.83,1118.63Z" style="fill-rule:nonzero;"/>
                <path d="M6883.89,1420.62C6893.49,1420.62 6898.29,1425.1 6898.29,1434.05C6898.29,1443 6893.56,1450.85 6884.09,1457.59C6874.62,1464.34 6860.67,1472.06 6842.25,1480.75C6823.83,1489.44 6800.94,1498.97 6773.57,1509.35C6746.2,1519.73 6714.55,1528.61 6678.61,1536.01C6642.68,1543.4 6608.37,1547.1 6575.68,1547.1C6498.63,1547.1 6460.1,1529.46 6460.1,1494.17C6460.1,1471.34 6473.14,1430.55 6499.21,1371.78C6525.28,1313.02 6538.32,1273.39 6538.32,1252.89C6538.32,1229.81 6520.29,1218.26 6484.23,1218.26C6467.88,1218.26 6449.33,1220.34 6428.58,1224.49C6418.72,1259.25 6401.14,1314.51 6375.85,1390.27C6350.55,1466.02 6336.28,1509.09 6333.04,1519.47C6329.8,1529.85 6322.86,1535.03 6312.22,1535.03L6111.8,1539.32C6108.95,1539.32 6105.77,1537.56 6102.27,1534.06C6098.77,1530.56 6097.02,1526.41 6097.02,1521.61C6097.02,1516.81 6102.53,1499.82 6113.56,1470.63C6124.58,1441.44 6136.78,1410.05 6150.14,1376.45C6163.5,1342.86 6175.69,1305.88 6186.72,1265.54C6197.74,1225.2 6203.26,1191.8 6203.26,1165.33L6202.87,1150.55C6202.87,1137.57 6215.45,1131.09 6240.62,1131.09L6425.08,1126.81C6431.82,1126.81 6436.88,1128.82 6440.25,1132.84C6443.63,1136.86 6445.31,1141.79 6445.31,1147.63C6445.31,1153.46 6443.89,1162.87 6441.03,1175.84C6532.35,1137.7 6607.33,1118.63 6665.97,1118.63C6690.87,1118.63 6713.57,1125.51 6734.07,1139.26C6756.9,1154.57 6768.31,1177.79 6768.31,1208.92C6768.31,1240.83 6756.25,1282.6 6732.12,1334.23C6707.99,1385.86 6695.93,1417.77 6695.93,1429.96C6695.93,1454.09 6705.53,1466.15 6724.73,1466.15C6736.92,1466.15 6757.74,1461.55 6787.19,1452.34C6816.63,1443.13 6838.43,1435.54 6852.57,1429.57C6866.71,1423.61 6877.15,1420.62 6883.89,1420.62Z" style="fill-rule:nonzero;"/>
                <path d="M7184.56,982.819C7184.56,1010.58 7169.19,1034.77 7138.44,1055.4C7107.7,1076.02 7075.27,1086.34 7041.15,1086.34C7007.04,1086.34 6980.51,1079.39 6961.57,1065.52C6942.63,1051.63 6933.16,1034.71 6933.16,1014.73C6933.16,994.753 6940.43,976.593 6954.95,960.248C6969.48,943.903 6988.36,931.061 7011.58,921.721C7034.8,912.382 7060.03,907.712 7087.27,907.712C7114.51,907.712 7137.53,914.911 7156.34,929.31C7175.15,943.709 7184.56,961.545 7184.56,982.819ZM7075.2,1465.76C7092.85,1465.76 7116.78,1461.55 7147,1453.12C7177.23,1444.68 7199.22,1437.16 7212.97,1430.55C7226.72,1423.93 7236.32,1420.62 7241.76,1420.62C7252.66,1420.62 7258.11,1426.07 7258.11,1436.97C7258.11,1441.9 7254.09,1447.47 7246.04,1453.7C7219.58,1473.42 7171.97,1493.91 7103.22,1515.19C7034.47,1536.46 6973.11,1547.1 6919.15,1547.1C6885.68,1547.1 6857.66,1541.78 6835.09,1531.14C6812.52,1520.51 6801.24,1504.29 6801.24,1482.5C6801.24,1469.27 6812.52,1436.84 6835.09,1385.21C6877.64,1287.4 6898.91,1213.72 6898.91,1164.17L6898.53,1149.38C6898.53,1136.41 6911.11,1129.92 6936.27,1129.92L7128.52,1125.64C7135.26,1125.64 7140.32,1127.65 7143.69,1131.67C7147.07,1135.69 7148.75,1140.17 7148.75,1145.1C7148.75,1163 7140.58,1192.51 7124.24,1233.63C7107.89,1274.75 7091.55,1315.16 7075.2,1354.85C7058.86,1394.55 7050.69,1422.96 7050.69,1440.08C7050.69,1457.2 7058.86,1465.76 7075.2,1465.76Z" style="fill-rule:nonzero;"/>
                <path d="M7443.62,1546.71C7437.14,1546.97 7427.54,1547.1 7414.82,1547.1C7355.15,1547.1 7298.92,1541.52 7246.12,1530.36C7193.33,1519.21 7162.13,1506.24 7152.53,1491.45C7149.42,1486.78 7147.86,1480.94 7147.86,1473.94C7147.86,1466.93 7156.16,1455.71 7172.77,1440.27C7189.37,1424.84 7200.79,1417.12 7207.01,1417.12C7213.24,1417.12 7219.66,1419.39 7226.28,1423.93C7232.89,1428.47 7240.22,1433.98 7248.26,1440.47C7256.31,1446.95 7265.26,1453.44 7275.12,1459.93C7298.73,1475.49 7327.13,1483.28 7360.34,1483.28C7373.57,1483.28 7384.27,1479.9 7392.45,1473.16C7400.62,1466.41 7404.7,1457.92 7404.7,1447.67C7404.7,1437.42 7401.27,1428.54 7394.39,1421.01C7387.52,1413.49 7378.57,1406.94 7367.54,1401.36C7356.51,1395.78 7344.39,1390.2 7331.15,1384.62C7317.92,1379.05 7304.63,1372.95 7291.27,1366.33C7277.9,1359.72 7265.65,1352.52 7254.49,1344.74C7229.84,1327.35 7217.52,1305.76 7217.52,1279.94C7217.52,1254.13 7225.37,1231.75 7241.06,1212.81C7256.76,1193.87 7276.54,1178.69 7300.41,1167.28C7324.28,1155.87 7351.26,1146.27 7381.36,1138.48C7434.28,1125.25 7484.29,1118.63 7531.38,1118.63C7578.46,1118.63 7622.31,1121.04 7662.91,1125.84C7703.51,1130.63 7731.47,1137.7 7746.78,1147.04C7750.93,1149.38 7753,1155.54 7753,1165.53C7753,1175.52 7749.5,1189.79 7742.49,1208.34C7735.49,1226.89 7726.6,1244.01 7715.84,1259.7C7705.07,1275.4 7695.41,1283.25 7686.85,1283.25C7683.47,1283.25 7680.62,1281.82 7678.28,1278.97C7653.64,1249.39 7629.7,1226.63 7606.48,1210.67C7583.26,1194.72 7558.03,1186.74 7530.79,1186.74C7510.04,1186.74 7495.18,1190.95 7486.23,1199.39C7477.28,1207.82 7472.81,1216.57 7472.81,1225.65C7472.81,1234.73 7477.8,1243.42 7487.79,1251.73C7497.78,1260.03 7510.23,1267.55 7525.15,1274.3C7540.07,1281.04 7556.28,1288.89 7573.79,1297.84C7591.31,1306.79 7607.52,1315.87 7622.44,1325.08C7637.36,1334.29 7649.81,1345.84 7659.8,1359.72C7669.79,1373.6 7674.78,1391.05 7674.78,1412.06C7674.78,1433.08 7667.13,1453.57 7651.82,1473.55C7716.16,1460.58 7766.49,1444.62 7802.81,1425.68C7809.04,1422.31 7814.36,1420.62 7818.77,1420.62C7828.63,1420.62 7833.56,1425.55 7833.56,1435.41C7833.56,1443.71 7828.5,1451.3 7818.38,1458.18C7808.26,1465.05 7791.53,1473.35 7768.18,1483.08C7744.83,1492.81 7717.07,1502.6 7684.9,1512.46C7609.92,1535.29 7529.49,1546.71 7443.62,1546.71Z" style="fill-rule:nonzero;"/>
                <path d="M8115.4,1135.37L8217.74,1122.14C8236.94,1122.14 8246.54,1129.66 8246.54,1144.71C8246.54,1159.76 8237.46,1169.16 8219.3,1172.92C8201.14,1176.68 8160.15,1181.68 8096.33,1187.9C8087.51,1211 8074.27,1243.04 8056.63,1284.03C8020.57,1368.09 8002.54,1418.55 8002.54,1435.41C8002.54,1453.83 8013.95,1463.04 8036.78,1463.04C8110.47,1463.04 8176.62,1450.72 8235.26,1426.07C8243.82,1422.44 8250.56,1420.62 8255.49,1420.62C8265.09,1420.62 8269.89,1424.9 8269.89,1433.46C8269.89,1442.03 8263.66,1450.46 8251.21,1458.76C8213.07,1483.92 8155.61,1504.94 8078.81,1521.8C8002.02,1538.67 7931.19,1547.1 7866.33,1547.1C7829.49,1547.1 7801.34,1541.33 7781.89,1529.78C7762.43,1518.24 7752.7,1502.35 7752.7,1482.11C7752.7,1461.61 7766.19,1423.35 7793.17,1367.31C7823.53,1304.52 7845.32,1249.39 7858.55,1201.91C7842.47,1202.69 7831.31,1203.08 7825.08,1203.08C7809.78,1203.08 7802.12,1196.86 7802.12,1184.4C7802.12,1175.32 7804.59,1169.23 7809.52,1166.11C7814.45,1163 7819.57,1160.79 7824.89,1159.5C7830.21,1158.2 7834.75,1157.36 7838.51,1156.97C7842.27,1156.58 7847.52,1156.12 7854.27,1155.61C7861.02,1155.09 7865.95,1154.7 7869.06,1154.44C7872.43,1134.72 7874.12,1116.17 7874.12,1098.79L7873.73,1084C7873.73,1072.33 7888.52,1064.41 7918.09,1060.26C7927.95,1058.96 7958.95,1052.48 8011.1,1040.8C8063.25,1029.13 8095.16,1023.29 8106.83,1023.29C8125.51,1023.29 8134.85,1029.78 8134.85,1042.75C8134.85,1065.06 8128.37,1095.93 8115.4,1135.37Z" style="fill-rule:nonzero;"/>
            </g>
        </g>
    </g>
</svg>
