<?xml version="1.0" encoding="UTF-8" standalone="no"?><!DOCTYPE svg PUBLIC "-//W3C//DTD SVG 1.1//EN" "http://www.w3.org/Graphics/SVG/1.1/DTD/svg11.dtd"><svg width="100%" height="100%" viewBox="0 0 1504 158" version="1.1" xmlns="http://www.w3.org/2000/svg" xmlns:xlink="http://www.w3.org/1999/xlink" xml:space="preserve" xmlns:serif="http://www.serif.com/" style="fill-rule:evenodd;clip-rule:evenodd;stroke-linejoin:round;stroke-miterlimit:2;"><rect id="interurbanist" x="0" y="-0" width="1503.28" height="157.298" style="fill:none;"/><g><g><path d="M93.26,29.693c-0,5.472 -3.031,10.241 -9.091,14.307c-6.06,4.065 -12.452,6.098 -19.177,6.098c-6.725,0 -11.954,-1.368 -15.687,-4.104c-3.734,-2.736 -5.6,-6.073 -5.6,-10.011c-0,-3.937 1.432,-7.517 4.296,-10.739c2.863,-3.222 6.584,-5.753 11.161,-7.594c4.577,-1.841 9.55,-2.762 14.92,-2.762c5.37,0 9.908,1.419 13.616,4.258c3.708,2.838 5.562,6.354 5.562,10.547Zm-21.556,95.197c3.477,0 8.195,-0.831 14.153,-2.493c5.958,-1.662 10.292,-3.145 13.002,-4.449c2.711,-1.304 4.603,-1.956 5.677,-1.956c2.148,0 3.222,1.074 3.222,3.222c-0,0.972 -0.793,2.071 -2.378,3.298c-5.217,3.887 -14.601,7.927 -28.153,12.121c-13.552,4.193 -25.647,6.29 -36.284,6.29c-6.597,-0 -12.12,-1.049 -16.569,-3.145c-4.449,-2.097 -6.674,-5.293 -6.674,-9.589c0,-2.608 2.225,-9.001 6.674,-19.178c8.387,-19.279 12.58,-33.803 12.58,-43.571l-0.076,-2.915c-0,-2.557 2.48,-3.835 7.44,-3.835l37.895,-0.844c1.33,-0 2.327,0.396 2.992,1.189c0.665,0.793 0.997,1.675 0.997,2.646c0,3.529 -1.611,9.346 -4.833,17.452c-3.221,8.106 -6.443,16.071 -9.665,23.895c-3.222,7.824 -4.833,13.424 -4.833,16.8c0,3.375 1.611,5.062 4.833,5.062Z" style="fill:#fff;fill-rule:nonzero;"/><path d="M41.687,50.474c-4.317,-4.113 -6.316,-9.002 -6.316,-14.491c0,-5.954 2.071,-11.404 6.401,-16.275c3.673,-4.132 8.41,-7.429 14.28,-9.79c5.533,-2.225 11.539,-3.363 18.03,-3.363c7.382,-0 13.584,2.071 18.681,5.974c6.002,4.594 8.83,10.376 8.83,17.164c-0,7.999 -3.922,15.284 -12.781,21.227l-0.369,0.245l1.05,0.572l2.097,1.943l2.161,3.673l0.785,4.328c-0,4.138 -1.645,11.025 -5.423,20.53c-3.234,8.138 -6.469,16.134 -9.703,23.99c-1.684,4.089 -2.936,7.402 -3.619,9.978c2.24,-0.362 4.846,-0.977 7.827,-1.809c5.321,-1.484 9.207,-2.766 11.628,-3.931c4.378,-2.106 7.555,-2.78 9.29,-2.78l2.342,0.199l2.584,0.764l3.383,2.283l2.282,3.383l0.765,2.584l0.199,2.342l-0.469,3.066l-1.069,2.398l-1.556,2.112c-0.658,0.736 -1.488,1.516 -2.577,2.359l-0.061,0.046c-5.696,4.244 -15.871,8.82 -30.669,13.399c-14.468,4.477 -27.39,6.662 -38.747,6.662c-8.02,0 -14.712,-1.391 -20.122,-3.94c-7.847,-3.698 -11.454,-9.551 -11.454,-17.127c-0,-3.042 2.179,-10.637 7.366,-22.504c7.731,-17.772 11.857,-31.105 11.888,-40.142l-0.077,-2.908l0.262,-2.595l0.871,-2.532l1.462,-2.267l1.832,-1.763c1.818,-1.406 4.668,-2.63 8.716,-3.004Zm30.017,74.416c-3.222,0 -4.833,-1.687 -4.833,-5.062c0,-3.376 1.611,-8.976 4.833,-16.8c3.222,-7.824 6.444,-15.789 9.665,-23.895c3.222,-8.106 4.833,-13.923 4.833,-17.452c0,-0.971 -0.332,-1.853 -0.997,-2.646c-0.665,-0.793 -1.662,-1.189 -2.992,-1.189l-37.895,0.844c-4.96,-0 -7.44,1.278 -7.44,3.835l0.076,2.915c0,9.768 -4.193,24.292 -12.58,43.571c-4.449,10.177 -6.674,16.57 -6.674,19.178c0,4.296 2.225,7.492 6.674,9.589c4.449,2.096 9.972,3.145 16.569,3.145c10.637,-0 22.732,-2.097 36.284,-6.29c13.552,-4.194 22.936,-8.234 28.153,-12.121c1.585,-1.227 2.378,-2.326 2.378,-3.298c-0,-2.148 -1.074,-3.222 -3.222,-3.222c-1.074,0 -2.966,0.652 -5.677,1.956c-2.71,1.304 -7.044,2.787 -13.002,4.449c-5.958,1.662 -10.676,2.493 -14.153,2.493Zm21.556,-95.197c-0,-4.193 -1.854,-7.709 -5.562,-10.547c-3.708,-2.839 -8.246,-4.258 -13.616,-4.258c-5.37,0 -10.343,0.921 -14.92,2.762c-4.577,1.841 -8.298,4.372 -11.161,7.594c-2.864,3.222 -4.296,6.802 -4.296,10.739c-0,3.938 1.866,7.275 5.6,10.011c3.733,2.736 8.962,4.104 15.687,4.104c6.725,0 13.117,-2.033 19.177,-6.098c6.06,-4.066 9.091,-8.835 9.091,-14.307Z" style="fill:#fff;"/><path d="M249.134,115.992c1.893,0 2.839,0.882 2.839,2.647c-0,1.764 -0.934,3.311 -2.8,4.641c-1.867,1.329 -4.616,2.851 -8.247,4.564c-3.631,1.713 -8.144,3.592 -13.539,5.638c-5.395,2.046 -11.634,3.797 -18.717,5.255c-7.083,1.457 -13.846,2.186 -20.29,2.186c-15.189,-0 -22.783,-3.478 -22.783,-10.433c0,-4.5 2.57,-12.542 7.709,-24.125c5.14,-11.583 7.71,-19.395 7.71,-23.435c-0,-4.551 -3.554,-6.827 -10.663,-6.827c-3.222,-0 -6.878,0.409 -10.969,1.227c-1.944,6.853 -5.408,17.746 -10.395,32.679c-4.986,14.933 -7.799,23.422 -8.438,25.467c-0.639,2.046 -2.007,3.069 -4.104,3.069l-39.505,0.844c-0.563,-0 -1.189,-0.346 -1.88,-1.036c-0.69,-0.69 -1.035,-1.509 -1.035,-2.455c-0,-0.946 1.086,-4.295 3.26,-10.049c2.173,-5.753 4.577,-11.941 7.211,-18.564c2.633,-6.622 5.037,-13.91 7.21,-21.862c2.174,-7.952 3.26,-14.536 3.26,-19.753l-0.076,-2.915c-0,-2.557 2.48,-3.835 7.441,-3.835l36.36,-0.844c1.33,-0 2.327,0.396 2.992,1.189c0.665,0.793 0.997,1.764 0.997,2.915c0,1.151 -0.281,3.004 -0.844,5.561c18.002,-7.517 32.781,-11.276 44.339,-11.276c4.909,0 9.384,1.355 13.424,4.066c4.5,3.017 6.75,7.594 6.75,13.731c0,6.29 -2.378,14.524 -7.134,24.7c-4.756,10.177 -7.134,16.468 -7.134,18.871c0,4.756 1.893,7.134 5.677,7.134c2.403,0 6.507,-0.908 12.312,-2.723c5.804,-1.816 10.1,-3.311 12.887,-4.488c2.787,-1.176 4.846,-1.764 6.175,-1.764Z" style="fill:#fff;fill-rule:nonzero;"/><path d="M169.405,55.857c14.504,-5.207 26.776,-7.725 36.772,-7.725c6.607,-0 12.628,1.83 18.065,5.478c6.807,4.563 10.443,11.37 10.443,20.652c-0,7.173 -2.495,16.624 -7.918,28.229c-2.56,5.478 -4.592,10.806 -5.625,13.639c1.728,-0.404 3.871,-1.035 6.442,-1.839c5.464,-1.709 9.512,-3.105 12.135,-4.212c4.219,-1.781 7.403,-2.42 9.415,-2.42l2.141,0.17l2.399,0.663l3.272,2.067l2.343,3.25l0.808,2.545l0.209,2.285l-0.488,3.543l-1.41,3.245l-2.039,2.627c-0.676,0.695 -1.46,1.37 -2.361,2.013c-2.161,1.539 -5.324,3.331 -9.526,5.313c-3.792,1.79 -8.505,3.757 -14.141,5.894c-5.763,2.185 -12.425,4.068 -19.992,5.625c-7.668,1.578 -14.992,2.357 -21.969,2.357c-9.152,0 -15.981,-1.269 -20.557,-3.365c-7.326,-3.355 -10.559,-8.691 -10.559,-15.401c-0,-5.111 2.588,-14.349 8.425,-27.505c3.789,-8.538 6.217,-14.608 6.836,-18.36c-0.676,-0.098 -1.489,-0.189 -2.172,-0.189c-1.39,0 -2.875,0.095 -4.456,0.279c-2.06,6.812 -5.06,16.124 -9.003,27.933c-4.956,14.843 -7.753,23.281 -8.389,25.314l-1.596,3.419l-2.873,3.071l-3.793,1.893c-0,0 -3.796,0.533 -3.618,0.531l-39.594,0.846l-2.339,-0.262l-1.876,-0.638l-3.646,-2.576l-1.431,-1.719l-1.132,-2.066l-0.694,-2.277l-0.22,-2.286c0,-1.212 1.013,-5.621 3.798,-12.994c2.189,-5.795 4.61,-12.027 7.263,-18.698c2.527,-6.355 4.83,-13.349 6.916,-20.98c1.918,-7.02 2.95,-12.83 2.965,-17.453l-0.077,-2.908l0.262,-2.594l0.871,-2.533l1.463,-2.266l1.831,-1.764c2.175,-1.682 5.828,-3.103 11.242,-3.121l36.369,-0.844l2.431,0.192l2.489,0.694l2.457,1.338l2.097,1.943l1.306,1.883l0.029,0.064Zm79.729,60.135c-1.329,0 -3.388,0.588 -6.175,1.764c-2.787,1.177 -7.083,2.672 -12.887,4.488c-5.805,1.815 -9.909,2.723 -12.312,2.723c-3.784,0 -5.677,-2.378 -5.677,-7.134c0,-2.403 2.378,-8.694 7.134,-18.871c4.756,-10.176 7.134,-18.41 7.134,-24.7c0,-6.137 -2.25,-10.714 -6.75,-13.731c-4.04,-2.711 -8.515,-4.066 -13.424,-4.066c-11.558,0 -26.337,3.759 -44.339,11.276c0.563,-2.557 0.844,-4.41 0.844,-5.561c0,-1.151 -0.332,-2.122 -0.997,-2.915c-0.665,-0.793 -1.662,-1.189 -2.992,-1.189l-36.36,0.844c-4.961,-0 -7.441,1.278 -7.441,3.835l0.076,2.915c0,5.217 -1.086,11.801 -3.26,19.753c-2.173,7.952 -4.577,15.24 -7.21,21.862c-2.634,6.623 -5.038,12.811 -7.211,18.564c-2.174,5.754 -3.26,9.103 -3.26,10.049c-0,0.946 0.345,1.765 1.035,2.455c0.691,0.69 1.317,1.036 1.88,1.036l39.505,-0.844c2.097,-0 3.465,-1.023 4.104,-3.069c0.639,-2.045 3.452,-10.534 8.438,-25.467c4.987,-14.933 8.451,-25.826 10.395,-32.679c4.091,-0.818 7.747,-1.227 10.969,-1.227c7.109,-0 10.663,2.276 10.663,6.827c-0,4.04 -2.57,11.852 -7.71,23.435c-5.139,11.583 -7.709,19.625 -7.709,24.125c0,6.955 7.594,10.433 22.783,10.433c6.444,-0 13.207,-0.729 20.29,-2.186c7.083,-1.458 13.322,-3.209 18.717,-5.255c5.395,-2.046 9.908,-3.925 13.539,-5.638c3.631,-1.713 6.38,-3.235 8.247,-4.564c1.866,-1.33 2.8,-2.877 2.8,-4.641c-0,-1.765 -0.946,-2.647 -2.839,-2.647Z" style="fill:#fff;"/><path d="M313.341,59.764l20.174,-2.609c3.785,0 5.677,1.483 5.677,4.45c-0,2.966 -1.79,4.82 -5.37,5.561c-3.58,0.742 -11.66,1.726 -24.24,2.953c-1.739,4.552 -4.347,10.868 -7.825,18.948c-7.108,16.569 -10.662,26.516 -10.662,29.84c-0,3.631 2.25,5.446 6.75,5.446c14.524,0 27.565,-2.429 39.122,-7.287c1.688,-0.716 3.018,-1.074 3.989,-1.074c1.892,0 2.839,0.844 2.839,2.531c-0,1.688 -1.228,3.35 -3.683,4.987c-7.517,4.96 -18.845,9.103 -33.982,12.427c-15.138,3.324 -29.099,4.986 -41.884,4.986c-7.262,-0 -12.81,-1.138 -16.646,-3.414c-3.835,-2.276 -5.753,-5.408 -5.753,-9.397c-0,-4.04 2.659,-11.583 7.978,-22.629c5.983,-12.376 10.279,-23.243 12.887,-32.602c-3.171,0.153 -5.37,0.23 -6.597,0.23c-3.017,0 -4.526,-1.227 -4.526,-3.682c0,-1.79 0.486,-2.992 1.458,-3.605c0.971,-0.614 1.981,-1.049 3.03,-1.304c1.048,-0.256 1.943,-0.422 2.684,-0.499c0.742,-0.077 1.778,-0.166 3.107,-0.268c1.33,-0.103 2.301,-0.179 2.915,-0.231c0.665,-3.886 0.997,-7.543 0.997,-10.969l-0.076,-2.915c-0,-2.301 2.915,-3.861 8.745,-4.679c1.943,-0.256 8.054,-1.535 18.333,-3.836c10.279,-2.301 16.57,-3.452 18.871,-3.452c3.682,0 5.523,1.279 5.523,3.836c0,4.398 -1.278,10.483 -3.835,18.257Z" style="fill:#fff;fill-rule:nonzero;"/><path d="M251.408,80.731l-0.345,-0.083l-3.602,-1.993l-1.942,-2.036l-1.358,-2.42l-0.709,-2.466l-0.196,-2.304l0.449,-3.771l1.069,-2.762l1.602,-2.261l2.221,-1.857c1.763,-1.114 3.602,-1.89 5.505,-2.354c1.225,-0.299 2.304,-0.502 3.234,-0.625c0.071,-1.071 0.109,-2.119 0.111,-3.143l-0.077,-2.909l0.377,-2.955l1.103,-2.636l1.575,-2.104l1.754,-1.543c2.137,-1.565 5.769,-3.053 11.147,-3.808l0.036,-0.005c1.866,-0.245 7.729,-1.495 17.6,-3.705c11.258,-2.521 18.17,-3.653 20.691,-3.653c2.565,-0 4.651,0.427 6.293,1.068l2.234,1.133l2.124,1.742l1.467,1.893l1.025,2.129l0.713,4.204c0,2.367 -0.297,5.169 -0.917,8.399l8.387,-1.084l0.536,0c2.18,0 4.023,0.322 5.549,0.834l3.849,2.053l2.098,2.119l1.495,2.569l0.795,2.671l0.224,2.537l-0.197,2.428l-0.66,2.489l-1.179,2.391l-1.644,2.095l-1.952,1.668l-2.095,1.228c-1.227,0.593 -2.65,1.083 -4.285,1.422c-3.204,0.664 -9.883,1.535 -20.041,2.579c-1.598,3.962 -3.617,8.779 -6.057,14.45c-4.139,9.646 -7.045,16.975 -8.7,21.994c-0.199,0.603 -0.385,1.152 -0.55,1.649c12.394,-0.24 23.589,-2.418 33.57,-6.613c3.033,-1.284 5.474,-1.726 7.221,-1.726l4.423,0.777l3.253,1.97l2.418,3.217l0.856,2.581l0.222,2.319l-0.483,3.351l-1.259,2.891c-1.1,1.868 -2.901,3.845 -5.667,5.689l-0.017,0.011c-8.149,5.377 -20.376,10.008 -36.785,13.611c-15.782,3.466 -30.341,5.18 -43.671,5.18c-9.143,0 -16.069,-1.715 -20.898,-4.58c-6.706,-3.979 -9.834,-9.59 -9.834,-16.564c-0,-4.661 2.667,-13.501 8.805,-26.25l0.003,-0.006c3.696,-7.645 6.728,-14.685 9.086,-21.125Zm61.933,-20.967c2.557,-7.774 3.835,-13.859 3.835,-18.257c0,-2.557 -1.841,-3.836 -5.523,-3.836c-2.301,0 -8.592,1.151 -18.871,3.452c-10.279,2.301 -16.39,3.58 -18.333,3.836c-5.83,0.818 -8.745,2.378 -8.745,4.679l0.076,2.915c0,3.426 -0.332,7.083 -0.997,10.969c-0.614,0.052 -1.585,0.128 -2.915,0.231c-1.329,0.102 -2.365,0.191 -3.107,0.268c-0.741,0.077 -1.636,0.243 -2.684,0.499c-1.049,0.255 -2.059,0.69 -3.03,1.304c-0.972,0.613 -1.458,1.815 -1.458,3.605c0,2.455 1.509,3.682 4.526,3.682c1.227,0 3.426,-0.077 6.597,-0.23c-2.608,9.359 -6.904,20.226 -12.887,32.602c-5.319,11.046 -7.978,18.589 -7.978,22.629c-0,3.989 1.918,7.121 5.753,9.397c3.836,2.276 9.384,3.414 16.646,3.414c12.785,-0 26.746,-1.662 41.884,-4.986c15.137,-3.324 26.465,-7.467 33.982,-12.427c2.455,-1.637 3.683,-3.299 3.683,-4.987c-0,-1.687 -0.947,-2.531 -2.839,-2.531c-0.971,0 -2.301,0.358 -3.989,1.074c-11.557,4.858 -24.598,7.287 -39.122,7.287c-4.5,0 -6.75,-1.815 -6.75,-5.446c-0,-3.324 3.554,-13.271 10.662,-29.84c3.478,-8.08 6.086,-14.396 7.825,-18.948c12.58,-1.227 20.66,-2.211 24.24,-2.953c3.58,-0.741 5.37,-2.595 5.37,-5.561c-0,-2.967 -1.892,-4.45 -5.677,-4.45l-20.174,2.609Z" style="fill:#fff;"/><path d="M459.013,115.992c1.79,0 2.685,0.831 2.685,2.493c-0,1.662 -1.215,3.196 -3.644,4.603c-2.429,1.406 -5.433,2.915 -9.013,4.526c-3.58,1.611 -8.515,3.515 -14.805,5.715c-14.473,5.062 -30.812,7.594 -49.018,7.594c-34.571,-0 -51.856,-10.637 -51.856,-31.912c-0,-10.381 3.286,-19.599 9.857,-27.654c6.572,-8.054 15.381,-14.216 26.427,-18.487c11.046,-4.27 23.09,-6.405 36.13,-6.405c13.041,0 22.591,2.02 28.651,6.06c6.061,4.04 9.091,9.589 9.091,16.646c-0,7.262 -2.903,13.194 -8.707,17.797c-5.804,4.603 -13.514,8.029 -23.128,10.279c-9.666,2.25 -20.737,3.836 -33.216,4.756c0.819,7.927 6.495,12.862 17.03,14.805c2.711,0.46 5.574,0.691 8.592,0.691c11.966,-0 29.226,-3.606 51.779,-10.817c1.381,-0.46 2.429,-0.69 3.145,-0.69Zm-80.469,-12.427c8.899,-2.455 15.93,-6.213 21.095,-11.276c5.166,-5.063 7.748,-11.174 7.748,-18.334c0,-1.892 -0.614,-3.401 -1.841,-4.526c-1.227,-1.125 -3.081,-1.688 -5.561,-1.688c-2.481,0 -5.063,1.074 -7.748,3.222c-2.685,2.148 -4.948,4.961 -6.789,8.438c-3.887,7.211 -6.188,15.266 -6.904,24.164Z" style="fill:#fff;fill-rule:nonzero;"/><path d="M459.013,107.659l2.093,0.165l2.358,0.65l3.233,2.035l2.326,3.213l0.801,2.515l0.207,2.248l-0.5,3.388l-1.343,2.951c-1.162,1.865 -3.055,3.794 -5.959,5.476c-2.633,1.524 -5.887,3.166 -9.769,4.913c-3.742,1.684 -8.898,3.683 -15.473,5.982c-15.287,5.347 -32.539,8.061 -51.769,8.061c-41.109,0 -60.189,-14.947 -60.189,-40.245c-0,-12.358 3.91,-23.333 11.733,-32.922c7.441,-9.119 17.372,-16.157 29.879,-20.991c11.966,-4.626 25.008,-6.966 39.135,-6.966c15.185,-0 26.218,2.755 33.274,7.459c8.573,5.716 12.801,13.597 12.801,23.58c-0,9.92 -3.933,18.039 -11.862,24.327c-6.639,5.264 -15.41,9.289 -26.412,11.864l-0.005,0.001c-5.311,1.237 -11.03,2.283 -17.16,3.136c0.178,0.035 0.357,0.07 0.565,0.108c2.245,0.376 4.616,0.558 7.112,0.558c11.38,0 27.763,-3.555 49.168,-10.396c2.513,-0.836 4.451,-1.11 5.756,-1.11Zm0,8.333c-0.716,0 -1.764,0.23 -3.145,0.69c-22.553,7.211 -39.813,10.817 -51.779,10.817c-3.018,-0 -5.881,-0.231 -8.592,-0.691c-10.535,-1.943 -16.211,-6.878 -17.03,-14.805c12.479,-0.92 23.55,-2.506 33.216,-4.756c9.614,-2.25 17.324,-5.676 23.128,-10.279c5.804,-4.603 8.707,-10.535 8.707,-17.797c-0,-7.057 -3.03,-12.606 -9.091,-16.646c-6.06,-4.04 -15.61,-6.06 -28.651,-6.06c-13.04,0 -25.084,2.135 -36.13,6.405c-11.046,4.271 -19.855,10.433 -26.427,18.487c-6.571,8.055 -9.857,17.273 -9.857,27.654c-0,21.275 17.285,31.912 51.856,31.912c18.206,-0 34.545,-2.532 49.018,-7.594c6.29,-2.2 11.225,-4.104 14.805,-5.715c3.58,-1.611 6.584,-3.12 9.013,-4.526c2.429,-1.407 3.644,-2.941 3.644,-4.603c-0,-1.662 -0.895,-2.493 -2.685,-2.493Zm-80.469,-12.427c0.716,-8.898 3.017,-16.953 6.904,-24.164c1.841,-3.477 4.104,-6.29 6.789,-8.438c2.685,-2.148 5.267,-3.222 7.748,-3.222c2.48,0 4.334,0.563 5.561,1.688c1.227,1.125 1.841,2.634 1.841,4.526c0,7.16 -2.582,13.271 -7.748,18.334c-5.165,5.063 -12.196,8.821 -21.095,11.276Zm20.352,-27.163c-0.462,0.261 -0.931,0.65 -1.453,1.068c-1.846,1.477 -3.364,3.44 -4.645,5.858l-0.014,0.027c-1.056,1.959 -1.974,3.991 -2.755,6.094c1.373,-0.954 2.633,-1.99 3.777,-3.112c2.886,-2.829 4.588,-6.138 5.09,-9.935Z" style="fill:#fff;"/><path d="M476.273,58.92l36.36,-0.844c1.33,-0 2.327,0.396 2.992,1.189c0.665,0.793 0.997,1.521 0.997,2.186c0,0.665 -0.179,1.765 -0.537,3.299c-0.358,1.534 -0.818,3.388 -1.38,5.561c-0.563,2.174 -0.921,3.567 -1.074,4.181c3.988,-4.756 8.975,-8.95 14.958,-12.581c5.983,-3.63 11.251,-5.446 15.802,-5.446c9.666,0 14.499,2.084 14.499,6.252c-0,4.168 -1.305,9.154 -3.913,14.958c-2.608,5.805 -5.063,9.627 -7.364,11.469c-1.125,0.818 -2.493,1.227 -4.104,1.227c-1.611,-0 -3.107,-0.512 -4.487,-1.534c-6.188,-4.603 -12.939,-6.904 -20.252,-6.904c-2.813,-0 -5.267,0.204 -7.364,0.613c-1.994,6.853 -5.165,16.915 -9.512,30.186c-4.347,13.271 -6.751,20.673 -7.211,22.207c-0.767,2.404 -2.199,3.606 -4.296,3.606c-7.415,-0 -15.367,0.396 -23.856,1.189c-8.49,0.792 -13.361,1.189 -14.614,1.189c-1.253,-0 -2.224,-0.345 -2.915,-1.036c-0.69,-0.69 -1.035,-1.508 -1.035,-2.454c-0,-0.947 1.086,-4.373 3.26,-10.28c2.173,-5.906 4.577,-12.26 7.211,-19.062c2.633,-6.802 5.037,-14.268 7.21,-22.399c2.174,-8.132 3.261,-14.805 3.261,-20.022l-0.077,-2.915c-0,-2.557 2.48,-3.835 7.441,-3.835Z" style="fill:#fff;fill-rule:nonzero;"/><path d="M522.998,55.573c0.418,-0.265 0.841,-0.527 1.268,-0.786c7.588,-4.605 14.353,-6.655 20.125,-6.655c8.001,-0 13.505,1.517 16.705,3.587l2.399,1.935l2.024,2.633l1.295,3.163l0.409,3.267c-0,5.109 -1.448,11.259 -4.644,18.374c-3.355,7.465 -6.8,12.192 -9.91,14.679l-4.538,2.278l-4.622,0.656l-2.54,-0.206l-2.486,-0.625c0,-0 -4.422,-2.34 -4.428,-2.345l-0.007,-0.005c-4.673,-3.475 -9.755,-5.257 -15.278,-5.257c-0.331,0 -0.656,0.003 -0.975,0.01c-1.965,6.453 -4.626,14.804 -7.982,25.05c-4.308,13.152 -6.692,20.488 -7.169,22.078l-1.546,3.452l-2.707,3.171l-3.869,2.181l-4.135,0.67c-7.174,0 -14.868,0.386 -23.082,1.153c-8.938,0.835 -14.068,1.225 -15.388,1.225l-4.458,-0.74l-2.293,-1.103l-2.056,-1.633l-1.431,-1.718l-1.131,-2.067l-0.695,-2.277l-0.22,-2.285c0,-1.201 1.015,-5.66 3.773,-13.157c2.189,-5.948 4.609,-12.346 7.261,-19.194c2.532,-6.541 4.841,-13.723 6.931,-21.542c1.927,-7.209 2.962,-13.124 2.977,-17.767l-0.076,-2.908l0.261,-2.594l0.872,-2.533l1.462,-2.266l1.831,-1.764c2.175,-1.682 5.828,-3.103 11.242,-3.121l36.37,-0.844l2.431,0.192l2.488,0.694l2.457,1.338l2.097,1.943l0.988,1.663Zm-46.725,3.347c-4.961,-0 -7.441,1.278 -7.441,3.835l0.077,2.915c-0,5.217 -1.087,11.89 -3.261,20.022c-2.173,8.131 -4.577,15.597 -7.21,22.399c-2.634,6.802 -5.038,13.156 -7.211,19.062c-2.174,5.907 -3.26,9.333 -3.26,10.28c-0,0.946 0.345,1.764 1.035,2.454c0.691,0.691 1.662,1.036 2.915,1.036c1.253,-0 6.124,-0.397 14.614,-1.189c8.489,-0.793 16.441,-1.189 23.856,-1.189c2.097,-0 3.529,-1.202 4.296,-3.606c0.46,-1.534 2.864,-8.936 7.211,-22.207c4.347,-13.271 7.518,-23.333 9.512,-30.186c2.097,-0.409 4.551,-0.613 7.364,-0.613c7.313,-0 14.064,2.301 20.252,6.904c1.38,1.022 2.876,1.534 4.487,1.534c1.611,-0 2.979,-0.409 4.104,-1.227c2.301,-1.842 4.756,-5.664 7.364,-11.469c2.608,-5.804 3.913,-10.79 3.913,-14.958c-0,-4.168 -4.833,-6.252 -14.499,-6.252c-4.551,0 -9.819,1.816 -15.802,5.446c-5.983,3.631 -10.97,7.825 -14.958,12.581c0.153,-0.614 0.511,-2.007 1.074,-4.181c0.562,-2.173 1.022,-4.027 1.38,-5.561c0.358,-1.534 0.537,-2.634 0.537,-3.299c0,-0.665 -0.332,-1.393 -0.997,-2.186c-0.665,-0.793 -1.662,-1.189 -2.992,-1.189l-36.36,0.844Z" style="fill:#fff;"/><path d="M582.593,58.92l34.673,-0.844c1.329,-0 2.327,0.396 2.992,1.189c0.664,0.793 0.997,1.969 0.997,3.529c-0,1.559 -1.419,5.599 -4.258,12.12c-2.838,6.52 -5.689,13.45 -8.553,20.788c-2.864,7.339 -4.296,12.696 -4.296,16.071c0,6.341 3.376,9.512 10.126,9.512c3.222,0 6.751,-0.409 10.586,-1.227c1.228,-4.347 3.273,-10.1 6.137,-17.26c7.262,-17.95 11.634,-31.605 13.117,-40.963c0.256,-1.892 1.611,-2.839 4.066,-2.839c7.415,0 15.214,-0.153 23.397,-0.46c8.182,-0.307 12.9,-0.46 14.153,-0.46c1.253,-0 2.224,0.345 2.915,1.036c0.69,0.69 1.035,1.342 1.035,1.956c0,2.454 -1.585,7.645 -4.756,15.572c-3.171,7.926 -6.341,16.122 -9.512,24.585c-3.171,8.464 -4.756,14.639 -4.756,18.526c0,3.886 1.726,5.83 5.178,5.83c3.452,-0 8.234,-0.934 14.345,-2.8c6.111,-1.867 10.381,-3.465 12.81,-4.794c2.429,-1.33 4.002,-1.995 4.718,-1.995c1.943,0 2.915,0.921 2.915,2.762c-0,1.841 -1.368,3.592 -4.104,5.254c-2.736,1.662 -6.035,3.35 -9.896,5.063c-3.861,1.713 -8.502,3.516 -13.922,5.408c-12.479,4.296 -25.187,6.444 -38.125,6.444c-12.939,-0 -20.226,-3.478 -21.863,-10.433c-4.96,2.046 -9.026,3.644 -12.197,4.795c-3.17,1.15 -7.568,2.378 -13.194,3.682c-5.625,1.304 -10.79,1.956 -15.495,1.956c-15.035,-0 -22.553,-6.137 -22.553,-18.411c0,-4.244 0.818,-9.397 2.455,-15.457c1.636,-6.06 3.452,-11.545 5.446,-16.454c5.268,-13.041 7.901,-21.134 7.901,-24.279c0,-3.145 0.461,-5.165 1.381,-6.06c0.921,-0.895 2.966,-1.342 6.137,-1.342Z" style="fill:#fff;fill-rule:nonzero;"/><path d="M582.483,50.587l0.003,-0l34.678,-0.844l2.436,0.192l2.489,0.694l2.456,1.338l2.097,1.943l2.088,3.648l0.676,2.699c0.117,0.778 0.182,1.624 0.182,2.537c0,1.969 -1.366,7.213 -4.95,15.446c-2.798,6.427 -5.608,13.258 -8.431,20.492c-2.335,5.983 -3.725,10.289 -3.725,13.041c-0,0.299 0.049,0.693 0.092,0.986c0.437,0.079 1.157,0.193 1.7,0.193c1.323,-0 2.706,-0.087 4.152,-0.256c1.233,-3.682 2.842,-8.014 4.84,-13.008l0.006,-0.015c6.943,-17.162 11.194,-30.195 12.584,-38.954l0.47,-2.093l0.939,-2.146l1.448,-1.995l1.839,-1.612l3.203,-1.567l4.425,-0.643c7.316,0 15.011,-0.152 23.084,-0.454c8.363,-0.314 13.185,-0.466 14.466,-0.466l4.458,0.739l2.293,1.104l2.056,1.633l1.653,2.001l0.984,1.81l0.604,1.878l0.235,2.16c0,2.927 -1.57,9.213 -5.352,18.667c-3.148,7.871 -6.297,16.009 -9.445,24.414c-2.009,5.362 -3.381,9.606 -3.942,12.779c2.358,-0.386 5.178,-1.111 8.47,-2.117c5.353,-1.635 9.117,-2.97 11.244,-4.134c4.376,-2.396 7.429,-3.018 8.719,-3.018l2.183,0.176l2.439,0.684l3.295,2.114l2.328,3.277l0.797,2.551l0.206,2.293l-0.522,3.511l-1.38,3.038c-1.208,1.953 -3.189,3.993 -6.208,5.827c-2.999,1.822 -6.611,3.68 -10.843,5.558c-4.037,1.792 -8.888,3.68 -14.573,5.665l-0.017,0.006c-13.366,4.601 -26.979,6.897 -40.837,6.897c-12.429,0 -20.698,-3.197 -25.466,-8.324c-2.16,0.85 -4.077,1.579 -5.751,2.186c-3.402,1.235 -8.118,2.567 -14.155,3.967c-6.307,1.462 -12.102,2.171 -17.377,2.171c-12.219,0 -20.511,-3.705 -25.399,-9.69c-3.497,-4.282 -5.487,-9.916 -5.487,-17.054c-0,-4.838 0.877,-10.721 2.743,-17.629c1.732,-6.416 3.659,-12.221 5.764,-17.403c4.617,-11.431 7.295,-18.401 7.295,-21.158c-0,-2.932 0.351,-5.223 0.866,-6.897l1.347,-3.018l1.692,-2.12c1.822,-1.771 5.589,-3.678 11.836,-3.7Zm0.11,8.333c-3.171,-0 -5.216,0.447 -6.137,1.342c-0.92,0.895 -1.381,2.915 -1.381,6.06c0,3.145 -2.633,11.238 -7.901,24.279c-1.994,4.909 -3.81,10.394 -5.446,16.454c-1.637,6.06 -2.455,11.213 -2.455,15.457c0,12.274 7.518,18.411 22.553,18.411c4.705,-0 9.87,-0.652 15.495,-1.956c5.626,-1.304 10.024,-2.532 13.194,-3.682c3.171,-1.151 7.237,-2.749 12.197,-4.795c1.637,6.955 8.924,10.433 21.863,10.433c12.938,-0 25.646,-2.148 38.125,-6.444c5.42,-1.892 10.061,-3.695 13.922,-5.408c3.861,-1.713 7.16,-3.401 9.896,-5.063c2.736,-1.662 4.104,-3.413 4.104,-5.254c-0,-1.841 -0.972,-2.762 -2.915,-2.762c-0.716,0 -2.289,0.665 -4.718,1.995c-2.429,1.329 -6.699,2.927 -12.81,4.794c-6.111,1.866 -10.893,2.8 -14.345,2.8c-3.452,-0 -5.178,-1.944 -5.178,-5.83c0,-3.887 1.585,-10.062 4.756,-18.526c3.171,-8.463 6.341,-16.659 9.512,-24.585c3.171,-7.927 4.756,-13.118 4.756,-15.572c0,-0.614 -0.345,-1.266 -1.035,-1.956c-0.691,-0.691 -1.662,-1.036 -2.915,-1.036c-1.253,-0 -5.971,0.153 -14.153,0.46c-8.183,0.307 -15.982,0.46 -23.397,0.46c-2.455,0 -3.81,0.947 -4.066,2.839c-1.483,9.358 -5.855,23.013 -13.117,40.963c-2.864,7.16 -4.909,12.913 -6.137,17.26c-3.835,0.818 -7.364,1.227 -10.586,1.227c-6.75,0 -10.126,-3.171 -10.126,-9.512c0,-3.375 1.432,-8.732 4.296,-16.071c2.864,-7.338 5.715,-14.268 8.553,-20.788c2.839,-6.521 4.258,-10.561 4.258,-12.12c-0,-1.56 -0.333,-2.736 -0.997,-3.529c-0.665,-0.793 -1.663,-1.189 -2.992,-1.189l-34.673,0.844Z" style="fill:#fff;"/><path d="M725.197,58.92l36.36,-0.844c1.33,-0 2.327,0.396 2.992,1.189c0.665,0.793 0.997,1.521 0.997,2.186c0,0.665 -0.179,1.765 -0.537,3.299c-0.358,1.534 -0.818,3.388 -1.38,5.561c-0.563,2.174 -0.921,3.567 -1.074,4.181c3.989,-4.756 8.975,-8.95 14.958,-12.581c5.984,-3.63 11.251,-5.446 15.802,-5.446c9.666,0 14.499,2.084 14.499,6.252c-0,4.168 -1.304,9.154 -3.913,14.958c-2.608,5.805 -5.062,9.627 -7.364,11.469c-1.125,0.818 -2.493,1.227 -4.104,1.227c-1.611,-0 -3.107,-0.512 -4.487,-1.534c-6.188,-4.603 -12.939,-6.904 -20.252,-6.904c-2.812,-0 -5.267,0.204 -7.364,0.613c-1.994,6.853 -5.165,16.915 -9.512,30.186c-4.347,13.271 -6.75,20.673 -7.211,22.207c-0.767,2.404 -2.199,3.606 -4.295,3.606c-7.416,-0 -15.368,0.396 -23.857,1.189c-8.49,0.792 -13.361,1.189 -14.614,1.189c-1.252,-0 -2.224,-0.345 -2.915,-1.036c-0.69,-0.69 -1.035,-1.508 -1.035,-2.454c-0,-0.947 1.087,-4.373 3.26,-10.28c2.174,-5.906 4.577,-12.26 7.211,-19.062c2.634,-6.802 5.037,-14.268 7.211,-22.399c2.173,-8.132 3.26,-14.805 3.26,-20.022l-0.077,-2.915c0,-2.557 2.48,-3.835 7.441,-3.835Z" style="fill:#fff;fill-rule:nonzero;"/><path d="M771.922,55.573c0.418,-0.265 0.841,-0.527 1.268,-0.786c7.588,-4.605 14.353,-6.655 20.125,-6.655c8.001,-0 13.505,1.517 16.705,3.587l2.399,1.935l2.024,2.633l1.295,3.163l0.409,3.267c-0,5.109 -1.447,11.259 -4.644,18.374c-3.355,7.465 -6.8,12.192 -9.909,14.679l-4.539,2.278l-4.622,0.656l-2.54,-0.206l-2.486,-0.625c0,-0 -4.422,-2.34 -4.428,-2.345l-0.007,-0.005c-4.673,-3.475 -9.755,-5.257 -15.278,-5.257c-0.331,0 -0.656,0.003 -0.974,0.01c-1.966,6.453 -4.626,14.804 -7.983,25.05c-4.308,13.152 -6.692,20.488 -7.169,22.078l-1.546,3.452l-2.707,3.171l-3.869,2.181l-4.134,0.67c-7.175,0 -14.869,0.386 -23.083,1.153c-8.938,0.835 -14.068,1.225 -15.388,1.225l-4.458,-0.74l-2.293,-1.103l-2.056,-1.633l-1.431,-1.718l-1.131,-2.067l-0.695,-2.277l-0.219,-2.285c-0,-1.201 1.014,-5.66 3.772,-13.157c2.189,-5.948 4.609,-12.346 7.261,-19.194c2.533,-6.541 4.841,-13.723 6.931,-21.542c1.927,-7.209 2.962,-13.124 2.977,-17.767l-0.076,-2.908l0.261,-2.594l0.872,-2.533l1.462,-2.266l1.831,-1.764c2.175,-1.682 5.828,-3.103 11.242,-3.121l36.37,-0.844l2.431,0.192l2.488,0.694l2.457,1.338l2.097,1.943l0.988,1.663Zm-46.725,3.347c-4.961,-0 -7.441,1.278 -7.441,3.835l0.077,2.915c-0,5.217 -1.087,11.89 -3.26,20.022c-2.174,8.131 -4.577,15.597 -7.211,22.399c-2.634,6.802 -5.037,13.156 -7.211,19.062c-2.173,5.907 -3.26,9.333 -3.26,10.28c-0,0.946 0.345,1.764 1.035,2.454c0.691,0.691 1.663,1.036 2.915,1.036c1.253,-0 6.124,-0.397 14.614,-1.189c8.489,-0.793 16.441,-1.189 23.857,-1.189c2.096,-0 3.528,-1.202 4.295,-3.606c0.461,-1.534 2.864,-8.936 7.211,-22.207c4.347,-13.271 7.518,-23.333 9.512,-30.186c2.097,-0.409 4.552,-0.613 7.364,-0.613c7.313,-0 14.064,2.301 20.252,6.904c1.38,1.022 2.876,1.534 4.487,1.534c1.611,-0 2.979,-0.409 4.104,-1.227c2.302,-1.842 4.756,-5.664 7.364,-11.469c2.609,-5.804 3.913,-10.79 3.913,-14.958c-0,-4.168 -4.833,-6.252 -14.499,-6.252c-4.551,0 -9.818,1.816 -15.802,5.446c-5.983,3.631 -10.969,7.825 -14.958,12.581c0.153,-0.614 0.511,-2.007 1.074,-4.181c0.562,-2.173 1.022,-4.027 1.38,-5.561c0.358,-1.534 0.537,-2.634 0.537,-3.299c0,-0.665 -0.332,-1.393 -0.997,-2.186c-0.665,-0.793 -1.662,-1.189 -2.992,-1.189l-36.36,0.844Z" style="fill:#fff;"/><path d="M833.988,131.871c-14.933,5.063 -24.458,7.594 -28.575,7.594c-4.117,0 -7.441,-0.856 -9.972,-2.569c-2.532,-1.714 -3.797,-3.849 -3.797,-6.406c-0,-1.943 3.349,-12.222 10.049,-30.837c12.682,-35.44 19.024,-58.325 19.024,-68.656l-0.077,-2.915c0,-2.557 2.48,-3.835 7.441,-3.835l20.021,-0l15.419,-0.23c1.33,-0 2.327,0.396 2.992,1.189c0.665,0.792 0.997,1.675 0.997,2.646c-0,4.756 -4.705,19.638 -14.115,44.645l0.077,-0.076c4.449,-5.063 9.832,-8.988 16.148,-11.775c6.315,-2.787 13.13,-4.181 20.443,-4.181c21.325,0 31.988,9.972 31.988,29.917c-0,7.671 -1.892,15.061 -5.677,22.169c-3.784,7.109 -8.924,13.297 -15.418,18.564c16.774,-1.483 29.891,-4.807 39.352,-9.972c1.381,-0.767 2.582,-1.151 3.605,-1.151c1.995,0 2.992,0.806 2.992,2.416c-0,1.611 -0.895,3.082 -2.685,4.411c-6.699,4.654 -17.03,8.771 -30.991,12.351c-13.961,3.579 -28.945,5.395 -44.952,5.446c-2.557,0.205 -5.37,0.307 -8.438,0.307c-3.068,-0 -7.3,-0.806 -12.696,-2.417c-5.395,-1.61 -9.78,-3.822 -13.155,-6.635Zm34.596,-55.922c-9.614,0 -17.643,7.365 -24.087,22.093c-2.966,6.75 -4.449,12.222 -4.449,16.416c-0,4.193 0.703,7.083 2.109,8.668c1.407,1.585 4.168,2.378 8.285,2.378c4.117,0 8.566,-1.905 13.348,-5.715c4.781,-3.81 8.629,-8.604 11.544,-14.383c2.915,-5.779 4.373,-10.982 4.373,-15.61c-0,-4.629 -1.023,-8.093 -3.069,-10.395c-2.045,-2.301 -4.73,-3.452 -8.054,-3.452Z" style="fill:#fff;fill-rule:nonzero;"/><path d="M869.695,51.636c6.374,-2.328 13.161,-3.504 20.368,-3.504c13.253,-0 23.056,3.528 29.683,9.726c6.814,6.372 10.638,15.779 10.638,28.524c0,9.024 -2.202,17.723 -6.654,26.085c-0.498,0.935 -1.016,1.856 -1.555,2.764c5.421,-1.428 10.132,-3.217 14.089,-5.375c1.519,-0.843 2.933,-1.401 4.215,-1.739l3.434,-0.458l4.252,0.676l3.228,1.778l1.781,1.854l1.247,2.205l0.643,2.219l0.174,2.017l-0.498,3.507l-1.388,3.137l-1.942,2.511c-0.636,0.663 -1.373,1.316 -2.327,2.025l-0.109,0.075c-7.291,5.065 -18.48,9.683 -33.675,13.579c-14.505,3.719 -30.065,5.63 -46.675,5.706c-2.673,0.204 -5.602,0.308 -8.785,0.308c-3.64,0 -8.679,-0.854 -15.08,-2.765c-4.689,-1.4 -8.737,-3.207 -12.171,-5.369c-13.977,4.579 -23.068,6.677 -27.175,6.677c-6.068,-0 -10.911,-1.477 -14.643,-4.002c-2.402,-1.626 -4.144,-3.512 -5.345,-5.538l-1.59,-3.76l-0.525,-4.009c0,-2.113 3.255,-13.412 10.538,-33.65c12.136,-33.913 18.493,-55.777 18.535,-65.743l-0.076,-2.905l0.261,-2.594l0.872,-2.533l1.462,-2.266l1.831,-1.764c2.189,-1.692 5.876,-3.122 11.348,-3.122l19.959,0l15.419,-0.23l2.396,0.193l2.489,0.694l2.456,1.338l2.098,1.943l2.161,3.672l0.784,4.329c0,3.304 -1.982,11.253 -6.148,23.784Zm-35.707,80.235c3.375,2.813 7.76,5.025 13.155,6.635c5.396,1.611 9.628,2.417 12.696,2.417c3.068,-0 5.881,-0.102 8.438,-0.307c16.007,-0.051 30.991,-1.867 44.952,-5.446c13.961,-3.58 24.292,-7.697 30.991,-12.351c1.79,-1.329 2.685,-2.8 2.685,-4.411c-0,-1.61 -0.997,-2.416 -2.992,-2.416c-1.023,0 -2.224,0.384 -3.605,1.151c-9.461,5.165 -22.578,8.489 -39.352,9.972c6.494,-5.267 11.634,-11.455 15.418,-18.564c3.785,-7.108 5.677,-14.498 5.677,-22.169c-0,-19.945 -10.663,-29.917 -31.988,-29.917c-7.313,0 -14.128,1.394 -20.443,4.181c-6.316,2.787 -11.699,6.712 -16.148,11.775l-0.077,0.076c9.41,-25.007 14.115,-39.889 14.115,-44.645c-0,-0.971 -0.332,-1.854 -0.997,-2.646c-0.665,-0.793 -1.662,-1.189 -2.992,-1.189l-15.419,0.23l-20.021,-0c-4.961,-0 -7.441,1.278 -7.441,3.835l0.077,2.915c-0,10.331 -6.342,33.216 -19.024,68.656c-6.7,18.615 -10.049,28.894 -10.049,30.837c-0,2.557 1.265,4.692 3.797,6.406c2.531,1.713 5.855,2.569 9.972,2.569c4.117,0 13.642,-2.531 28.575,-7.594Zm23.207,-51.939c0.536,-0.281 1.097,-0.653 1.661,-1.144c3.039,-1.892 6.282,-2.839 9.728,-2.839c3.324,0 6.009,1.151 8.054,3.452c2.046,2.302 3.069,5.766 3.069,10.395c-0,4.628 -1.458,9.831 -4.373,15.61c-2.915,5.779 -6.763,10.573 -11.544,14.383c-4.782,3.81 -9.231,5.715 -13.348,5.715c-4.117,0 -6.878,-0.793 -8.285,-2.378c-1.406,-1.585 -2.109,-4.475 -2.109,-8.668c-0,-4.194 1.483,-9.666 4.449,-16.416c3.708,-8.475 7.941,-14.512 12.698,-18.11Zm-8.597,37.098c0.572,0.072 1.265,0.141 1.844,0.141c2.563,-0 5.178,-1.527 8.155,-3.899c3.858,-3.074 6.945,-6.956 9.297,-11.619c2.222,-4.405 3.48,-8.33 3.48,-11.857c-0,-2.115 -0.029,-3.807 -0.964,-4.858c-0.453,-0.51 -1.09,-0.655 -1.826,-0.655c-6.98,-0 -11.774,6.406 -16.455,17.105l-0.003,0.006c-2.37,5.394 -3.745,9.713 -3.745,13.064c0,0.833 0.112,1.826 0.217,2.572Z" style="fill:#fff;"/><path d="M979.354,121.438c9.615,0 17.644,-7.364 24.087,-22.092c2.967,-6.751 4.45,-12.223 4.45,-16.416c-0,-4.193 -0.704,-7.083 -2.11,-8.668c-1.406,-1.586 -4.168,-2.378 -8.285,-2.378c-4.116,-0 -8.566,1.905 -13.347,5.715c-4.782,3.81 -8.63,8.604 -11.545,14.383c-2.915,5.779 -4.372,10.982 -4.372,15.61c-0,4.628 1.022,8.093 3.068,10.395c2.046,2.301 4.73,3.451 8.054,3.451Zm39.89,-64.973l35.133,1.611c1.33,-0 2.327,0.396 2.992,1.189c0.664,0.793 0.997,1.675 0.997,2.646c-0,3.734 -1.547,9.679 -4.641,17.836c-3.094,8.156 -6.188,16.237 -9.282,24.24c-3.094,8.003 -4.641,13.296 -4.641,15.879c-0,2.582 0.396,4.232 1.189,4.948c0.793,0.716 2.314,1.074 4.564,1.074c2.25,-0 6.354,-1.087 12.312,-3.261c5.958,-2.173 9.998,-3.822 12.12,-4.947c2.123,-1.125 3.746,-1.688 4.871,-1.688c1.995,0 2.992,0.895 2.992,2.685c0,3.784 -7.671,8.745 -23.013,14.882c-5.165,2.096 -11.391,3.848 -18.679,5.254c-7.287,1.407 -14.69,2.11 -22.207,2.11c-12.53,-0 -20.073,-3.989 -22.63,-11.967c-7.978,7.978 -18.717,11.967 -32.218,11.967c-9.256,-0 -17.081,-2.225 -23.473,-6.674c-6.955,-4.858 -10.433,-12.504 -10.433,-22.936c0,-10.995 3.248,-21.121 9.742,-30.377c7.109,-10.28 16.621,-17.362 28.536,-21.249c6.598,-2.148 13.68,-3.222 21.249,-3.222c11.609,0 20.635,2.864 27.079,8.592c0.051,-0.307 0.077,-0.793 0.077,-1.458l-0.077,-3.298c-0,-2.557 2.48,-3.836 7.441,-3.836Z" style="fill:#fff;fill-rule:nonzero;"/><path d="M1006.89,52.224l1.008,-0.971c2.189,-1.692 5.875,-3.121 11.539,-3.121l35.324,1.619l-0.382,-0.008l2.334,0.192l2.489,0.694l2.456,1.338l2.098,1.943l2.161,3.673l0.784,4.328c0,4.341 -1.585,11.307 -5.182,20.791c-3.101,8.173 -6.201,16.27 -9.301,24.29c-1.667,4.312 -2.911,7.622 -3.564,9.98c1.663,-0.479 3.776,-1.231 6.359,-2.173c5.437,-1.983 9.137,-3.455 11.073,-4.482c3.775,-2.001 6.774,-2.658 8.774,-2.658l2.134,0.163l2.384,0.634l3.292,2.005l2.433,3.256l0.859,2.607l0.224,2.353l-0.303,2.596l-0.771,2.254l-1.618,2.703c-0.522,0.692 -1.148,1.408 -1.894,2.135c-3.66,3.571 -11.453,8.044 -23.647,12.924c-5.593,2.268 -12.327,4.185 -20.214,5.707c-7.805,1.506 -15.734,2.26 -23.786,2.26c-11.355,0 -19.449,-2.903 -24.671,-8.012c-8.252,5.281 -18.288,8.012 -30.177,8.012c-11.148,0 -20.535,-2.809 -28.24,-8.171l-0.005,-0.004c-9.08,-6.342 -13.994,-16.149 -13.994,-29.768c-0,-12.716 3.732,-24.434 11.238,-35.141c8.17,-11.805 19.099,-19.942 32.791,-24.408l0.003,-0.001c7.398,-2.409 15.34,-3.631 23.828,-3.631c8.578,-0 15.95,1.412 22.164,4.092Zm12.356,4.241c-4.961,0 -7.441,1.279 -7.441,3.836l0.077,3.298c-0,0.665 -0.026,1.151 -0.077,1.458c-6.444,-5.728 -15.47,-8.592 -27.079,-8.592c-7.569,0 -14.651,1.074 -21.249,3.222c-11.915,3.887 -21.427,10.969 -28.536,21.249c-6.494,9.256 -9.742,19.382 -9.742,30.377c0,10.432 3.478,18.078 10.433,22.936c6.392,4.449 14.217,6.674 23.473,6.674c13.501,-0 24.24,-3.989 32.218,-11.967c2.557,7.978 10.1,11.967 22.63,11.967c7.517,-0 14.92,-0.703 22.207,-2.11c7.288,-1.406 13.514,-3.158 18.679,-5.254c15.342,-6.137 23.013,-11.098 23.013,-14.882c0,-1.79 -0.997,-2.685 -2.992,-2.685c-1.125,0 -2.748,0.563 -4.871,1.688c-2.122,1.125 -6.162,2.774 -12.12,4.947c-5.958,2.174 -10.062,3.261 -12.312,3.261c-2.25,-0 -3.771,-0.358 -4.564,-1.074c-0.793,-0.716 -1.189,-2.366 -1.189,-4.948c-0,-2.583 1.547,-7.876 4.641,-15.879c3.094,-8.003 6.188,-16.084 9.282,-24.24c3.094,-8.157 4.641,-14.102 4.641,-17.836c-0,-0.971 -0.333,-1.853 -0.997,-2.646c-0.665,-0.793 -1.662,-1.189 -2.992,-1.189l-35.133,-1.611Zm-39.89,64.973c-3.324,0 -6.008,-1.15 -8.054,-3.451c-2.046,-2.302 -3.068,-5.767 -3.068,-10.395c-0,-4.628 1.457,-9.831 4.372,-15.61c2.915,-5.779 6.763,-10.573 11.545,-14.383c4.781,-3.81 9.231,-5.715 13.347,-5.715c4.117,-0 6.879,0.792 8.285,2.378c1.406,1.585 2.11,4.475 2.11,8.668c-0,4.193 -1.483,9.665 -4.45,16.416c-6.443,14.728 -14.472,22.092 -24.087,22.092Zm19.986,-41.08c-0.571,-0.073 -1.265,-0.141 -1.844,-0.141c-2.562,0 -5.177,1.527 -8.154,3.899c-3.858,3.074 -6.946,6.956 -9.298,11.619c-2.222,4.405 -3.479,8.329 -3.479,11.857c-0,2.115 0.029,3.807 0.963,4.858c0.453,0.51 1.091,0.655 1.826,0.655c6.981,0 11.775,-6.406 16.455,-17.105l0.003,-0.006c2.37,-5.394 3.745,-9.713 3.745,-13.064c0,-0.833 -0.112,-1.826 -0.217,-2.572Z" style="fill:#fff;"/><path d="M1212.63,115.992c1.892,0 2.838,0.882 2.838,2.647c-0,1.764 -0.934,3.311 -2.8,4.641c-1.867,1.329 -4.616,2.851 -8.246,4.564c-3.631,1.713 -8.145,3.592 -13.54,5.638c-5.395,2.046 -11.634,3.797 -18.717,5.255c-7.083,1.457 -13.846,2.186 -20.29,2.186c-15.188,-0 -22.783,-3.478 -22.783,-10.433c0,-4.5 2.57,-12.542 7.71,-24.125c5.139,-11.583 7.709,-19.395 7.709,-23.435c-0,-4.551 -3.554,-6.827 -10.663,-6.827c-3.222,-0 -6.878,0.409 -10.969,1.227c-1.944,6.853 -5.408,17.746 -10.394,32.679c-4.987,14.933 -7.799,23.422 -8.439,25.467c-0.639,2.046 -2.007,3.069 -4.104,3.069l-39.505,0.844c-0.563,-0 -1.189,-0.346 -1.88,-1.036c-0.69,-0.69 -1.035,-1.509 -1.035,-2.455c-0,-0.946 1.087,-4.295 3.26,-10.049c2.173,-5.753 4.577,-11.941 7.211,-18.564c2.633,-6.622 5.037,-13.91 7.21,-21.862c2.174,-7.952 3.261,-14.536 3.261,-19.753l-0.077,-2.915c-0,-2.557 2.48,-3.835 7.441,-3.835l36.36,-0.844c1.33,-0 2.327,0.396 2.992,1.189c0.665,0.793 0.997,1.764 0.997,2.915c0,1.151 -0.281,3.004 -0.844,5.561c18.002,-7.517 32.781,-11.276 44.339,-11.276c4.909,0 9.384,1.355 13.424,4.066c4.5,3.017 6.751,7.594 6.751,13.731c-0,6.29 -2.378,14.524 -7.134,24.7c-4.756,10.177 -7.134,16.468 -7.134,18.871c-0,4.756 1.892,7.134 5.676,7.134c2.404,0 6.508,-0.908 12.312,-2.723c5.804,-1.816 10.1,-3.311 12.887,-4.488c2.787,-1.176 4.846,-1.764 6.176,-1.764Z" style="fill:#fff;fill-rule:nonzero;"/><path d="M1132.9,55.857c14.504,-5.207 26.776,-7.725 36.772,-7.725c6.607,-0 12.628,1.83 18.066,5.478c6.806,4.563 10.442,11.37 10.442,20.652c-0,7.173 -2.494,16.624 -7.918,28.229c-2.56,5.478 -4.592,10.806 -5.625,13.639c1.728,-0.404 3.871,-1.035 6.442,-1.839c5.464,-1.709 9.512,-3.105 12.135,-4.212c4.219,-1.781 7.403,-2.42 9.416,-2.42l2.14,0.17l2.399,0.663l3.272,2.067l2.343,3.25l0.808,2.545l0.209,2.285l-0.487,3.543l-1.411,3.245l-2.039,2.627c-0.676,0.695 -1.459,1.37 -2.361,2.013c-2.16,1.539 -5.324,3.331 -9.525,5.313c-3.793,1.79 -8.506,3.757 -14.141,5.894c-5.764,2.185 -12.426,4.068 -19.992,5.625c-7.669,1.578 -14.993,2.357 -21.97,2.357c-9.152,0 -15.981,-1.269 -20.557,-3.365c-7.326,-3.355 -10.559,-8.691 -10.559,-15.401c-0,-5.111 2.588,-14.349 8.425,-27.505c3.789,-8.538 6.217,-14.608 6.836,-18.36c-0.676,-0.098 -1.489,-0.189 -2.172,-0.189c-1.39,0 -2.875,0.095 -4.455,0.279c-2.061,6.812 -5.061,16.124 -9.004,27.933c-4.956,14.843 -7.753,23.281 -8.389,25.314l-1.596,3.419l-2.873,3.071l-3.793,1.893c-0,0 -3.796,0.533 -3.618,0.531l-39.594,0.846l-2.339,-0.262l-1.876,-0.638l-3.646,-2.576l-1.431,-1.719l-1.131,-2.066l-0.695,-2.277l-0.22,-2.286c0,-1.212 1.013,-5.621 3.798,-12.994c2.19,-5.795 4.61,-12.027 7.263,-18.698c2.527,-6.355 4.83,-13.349 6.916,-20.98c1.919,-7.02 2.95,-12.83 2.965,-17.453l-0.076,-2.908l0.261,-2.594l0.872,-2.533l1.462,-2.266l1.831,-1.764c2.175,-1.682 5.828,-3.103 11.242,-3.121l36.37,-0.844l2.431,0.192l2.488,0.694l2.457,1.338l2.097,1.943l1.306,1.883l0.029,0.064Zm79.73,60.135c-1.33,0 -3.389,0.588 -6.176,1.764c-2.787,1.177 -7.083,2.672 -12.887,4.488c-5.804,1.815 -9.908,2.723 -12.312,2.723c-3.784,0 -5.676,-2.378 -5.676,-7.134c-0,-2.403 2.378,-8.694 7.134,-18.871c4.756,-10.176 7.134,-18.41 7.134,-24.7c-0,-6.137 -2.251,-10.714 -6.751,-13.731c-4.04,-2.711 -8.515,-4.066 -13.424,-4.066c-11.558,0 -26.337,3.759 -44.339,11.276c0.563,-2.557 0.844,-4.41 0.844,-5.561c0,-1.151 -0.332,-2.122 -0.997,-2.915c-0.665,-0.793 -1.662,-1.189 -2.992,-1.189l-36.36,0.844c-4.961,-0 -7.441,1.278 -7.441,3.835l0.077,2.915c-0,5.217 -1.087,11.801 -3.261,19.753c-2.173,7.952 -4.577,15.24 -7.21,21.862c-2.634,6.623 -5.038,12.811 -7.211,18.564c-2.173,5.754 -3.26,9.103 -3.26,10.049c-0,0.946 0.345,1.765 1.035,2.455c0.691,0.69 1.317,1.036 1.88,1.036l39.505,-0.844c2.097,-0 3.465,-1.023 4.104,-3.069c0.64,-2.045 3.452,-10.534 8.439,-25.467c4.986,-14.933 8.45,-25.826 10.394,-32.679c4.091,-0.818 7.747,-1.227 10.969,-1.227c7.109,-0 10.663,2.276 10.663,6.827c-0,4.04 -2.57,11.852 -7.709,23.435c-5.14,11.583 -7.71,19.625 -7.71,24.125c0,6.955 7.595,10.433 22.783,10.433c6.444,-0 13.207,-0.729 20.29,-2.186c7.083,-1.458 13.322,-3.209 18.717,-5.255c5.395,-2.046 9.909,-3.925 13.54,-5.638c3.63,-1.713 6.379,-3.235 8.246,-4.564c1.866,-1.33 2.8,-2.877 2.8,-4.641c-0,-1.765 -0.946,-2.647 -2.838,-2.647Z" style="fill:#fff;"/><path d="M1271.89,29.693c-0,5.472 -3.03,10.241 -9.09,14.307c-6.061,4.065 -12.453,6.098 -19.178,6.098c-6.725,0 -11.954,-1.368 -15.687,-4.104c-3.733,-2.736 -5.6,-6.073 -5.6,-10.011c-0,-3.937 1.432,-7.517 4.296,-10.739c2.864,-3.222 6.584,-5.753 11.161,-7.594c4.577,-1.841 9.55,-2.762 14.92,-2.762c5.37,0 9.909,1.419 13.616,4.258c3.708,2.838 5.562,6.354 5.562,10.547Zm-21.556,95.197c3.478,0 8.195,-0.831 14.153,-2.493c5.958,-1.662 10.292,-3.145 13.003,-4.449c2.71,-1.304 4.602,-1.956 5.676,-1.956c2.148,0 3.222,1.074 3.222,3.222c-0,0.972 -0.793,2.071 -2.378,3.298c-5.216,3.887 -14.601,7.927 -28.153,12.121c-13.552,4.193 -25.646,6.29 -36.284,6.29c-6.597,-0 -12.12,-1.049 -16.569,-3.145c-4.449,-2.097 -6.674,-5.293 -6.674,-9.589c0,-2.608 2.225,-9.001 6.674,-19.178c8.387,-19.279 12.581,-33.803 12.581,-43.571l-0.077,-2.915c-0,-2.557 2.48,-3.835 7.441,-3.835l37.894,-0.844c1.33,-0 2.327,0.396 2.992,1.189c0.665,0.793 0.997,1.675 0.997,2.646c0,3.529 -1.611,9.346 -4.832,17.452c-3.222,8.106 -6.444,16.071 -9.666,23.895c-3.222,7.824 -4.833,13.424 -4.833,16.8c0,3.375 1.611,5.062 4.833,5.062Z" style="fill:#fff;fill-rule:nonzero;"/><path d="M1220.32,50.474c-4.318,-4.113 -6.316,-9.002 -6.316,-14.491c-0,-5.954 2.07,-11.404 6.4,-16.275c3.673,-4.132 8.41,-7.429 14.28,-9.79c5.533,-2.225 11.54,-3.363 18.03,-3.363c7.383,-0 13.584,2.071 18.682,5.974c6.002,4.594 8.829,10.376 8.829,17.164c0,7.999 -3.922,15.284 -12.781,21.227l-0.369,0.245l1.05,0.572l2.097,1.943l2.161,3.673l0.785,4.328c-0,4.138 -1.644,11.025 -5.422,20.53c-3.235,8.138 -6.47,16.134 -9.704,23.99c-1.684,4.089 -2.936,7.402 -3.619,9.978c2.24,-0.362 4.847,-0.977 7.827,-1.809c5.322,-1.484 9.207,-2.766 11.629,-3.931c4.377,-2.106 7.555,-2.78 9.289,-2.78l2.342,0.199l2.584,0.764l3.383,2.283l2.282,3.383l0.765,2.584l0.199,2.342l-0.469,3.066l-1.069,2.398l-1.556,2.112c-0.658,0.736 -1.488,1.516 -2.576,2.359l-0.062,0.046c-5.696,4.244 -15.871,8.82 -30.668,13.399c-14.469,4.477 -27.391,6.662 -38.748,6.662c-8.02,0 -14.712,-1.391 -20.121,-3.94c-7.847,-3.698 -11.455,-9.551 -11.455,-17.127c-0,-3.042 2.179,-10.637 7.366,-22.504c7.731,-17.772 11.857,-31.105 11.888,-40.142l-0.077,-2.908l0.262,-2.595l0.871,-2.532l1.463,-2.267l1.831,-1.763c1.818,-1.406 4.668,-2.63 8.717,-3.004Zm30.016,74.416c-3.222,0 -4.833,-1.687 -4.833,-5.062c0,-3.376 1.611,-8.976 4.833,-16.8c3.222,-7.824 6.444,-15.789 9.666,-23.895c3.221,-8.106 4.832,-13.923 4.832,-17.452c0,-0.971 -0.332,-1.853 -0.997,-2.646c-0.665,-0.793 -1.662,-1.189 -2.992,-1.189l-37.894,0.844c-4.961,-0 -7.441,1.278 -7.441,3.835l0.077,2.915c-0,9.768 -4.194,24.292 -12.581,43.571c-4.449,10.177 -6.674,16.57 -6.674,19.178c0,4.296 2.225,7.492 6.674,9.589c4.449,2.096 9.972,3.145 16.569,3.145c10.638,-0 22.732,-2.097 36.284,-6.29c13.552,-4.194 22.937,-8.234 28.153,-12.121c1.585,-1.227 2.378,-2.326 2.378,-3.298c-0,-2.148 -1.074,-3.222 -3.222,-3.222c-1.074,0 -2.966,0.652 -5.676,1.956c-2.711,1.304 -7.045,2.787 -13.003,4.449c-5.958,1.662 -10.675,2.493 -14.153,2.493Zm21.556,-95.197c-0,-4.193 -1.854,-7.709 -5.562,-10.547c-3.707,-2.839 -8.246,-4.258 -13.616,-4.258c-5.37,0 -10.343,0.921 -14.92,2.762c-4.577,1.841 -8.297,4.372 -11.161,7.594c-2.864,3.222 -4.296,6.802 -4.296,10.739c-0,3.938 1.867,7.275 5.6,10.011c3.733,2.736 8.962,4.104 15.687,4.104c6.725,0 13.117,-2.033 19.178,-6.098c6.06,-4.066 9.09,-8.835 9.09,-14.307Z" style="fill:#fff;"/><path d="M1322.96,140.846c-1.279,0.051 -3.171,0.077 -5.677,0.077c-11.762,-0 -22.846,-1.1 -33.253,-3.299c-10.407,-2.199 -16.557,-4.756 -18.449,-7.671c-0.614,-0.92 -0.921,-2.071 -0.921,-3.452c0,-1.38 1.637,-3.592 4.91,-6.635c3.273,-3.043 5.523,-4.564 6.75,-4.564c1.228,-0 2.493,0.447 3.797,1.342c1.304,0.895 2.749,1.982 4.334,3.26c1.586,1.279 3.35,2.557 5.293,3.836c4.654,3.068 10.254,4.602 16.8,4.602c2.608,0 4.718,-0.664 6.329,-1.994c1.61,-1.33 2.416,-3.005 2.416,-5.025c-0,-2.02 -0.678,-3.771 -2.033,-5.254c-1.355,-1.483 -3.119,-2.775 -5.293,-3.874c-2.173,-1.1 -4.564,-2.199 -7.172,-3.299c-2.608,-1.099 -5.229,-2.301 -7.863,-3.605c-2.634,-1.304 -5.05,-2.723 -7.249,-4.257c-4.859,-3.427 -7.288,-7.684 -7.288,-12.773c0,-5.088 1.547,-9.499 4.641,-13.232c3.094,-3.733 6.994,-6.725 11.699,-8.975c4.704,-2.25 10.023,-4.143 15.955,-5.677c10.433,-2.608 20.29,-3.912 29.572,-3.912c9.282,0 17.925,0.473 25.928,1.419c8.003,0.946 13.514,2.34 16.531,4.181c0.818,0.46 1.227,1.675 1.227,3.644c0,1.969 -0.69,4.781 -2.071,8.438c-1.381,3.656 -3.132,7.031 -5.254,10.125c-2.123,3.094 -4.028,4.641 -5.715,4.641c-0.665,0 -1.228,-0.281 -1.688,-0.843c-4.858,-5.83 -9.576,-10.318 -14.153,-13.463c-4.577,-3.145 -9.55,-4.718 -14.92,-4.718c-4.091,0 -7.019,0.831 -8.783,2.493c-1.765,1.662 -2.647,3.388 -2.647,5.178c0,1.79 0.985,3.503 2.953,5.14c1.969,1.636 4.424,3.119 7.365,4.449c2.94,1.33 6.136,2.877 9.588,4.641c3.452,1.764 6.649,3.554 9.589,5.37c2.941,1.815 5.395,4.091 7.364,6.827c1.969,2.736 2.954,6.175 2.954,10.317c-0,4.143 -1.509,8.183 -4.526,12.121c12.682,-2.557 22.604,-5.703 29.763,-9.436c1.228,-0.665 2.276,-0.997 3.145,-0.997c1.944,0 2.915,0.972 2.915,2.915c0,1.637 -0.997,3.132 -2.991,4.488c-1.995,1.355 -5.293,2.991 -9.896,4.909c-4.603,1.918 -10.075,3.848 -16.416,5.792c-14.779,4.5 -30.633,6.75 -47.56,6.75Z" style="fill:#fff;fill-rule:nonzero;"/><path d="M1280.73,107.739c-7.289,-5.197 -10.67,-11.788 -10.67,-19.478c0,-7.139 2.217,-13.312 6.558,-18.55c3.845,-4.639 8.673,-8.379 14.519,-11.175c5.151,-2.464 10.97,-4.547 17.497,-6.235l0.033,-0.008c11.145,-2.786 21.677,-4.161 31.593,-4.161c9.632,-0 18.601,0.495 26.906,1.476c9.668,1.143 16.249,3.119 19.894,5.343l-0.255,-0.149l2.677,2.199l1.589,2.486l0.877,2.702c0.204,0.986 0.332,2.158 0.332,3.52c-0,2.646 -0.753,6.467 -2.609,11.382c-1.622,4.296 -3.685,8.26 -6.178,11.895c-2.036,2.967 -4.059,4.938 -5.844,6.124l-2.961,1.486l-3.782,0.651l-0.018,-0.002c0.503,0.605 0.987,1.23 1.45,1.874c2.907,4.04 4.523,9.07 4.523,15.185c-0,0.133 -0.001,0.265 -0.003,0.397c5.083,-1.527 9.421,-3.212 12.98,-5.062c1.392,-0.75 2.676,-1.245 3.826,-1.547l3.246,-0.433l2.257,0.192l2.513,0.744l3.309,2.233l2.234,3.31l0.743,2.512l0.193,2.257l-0.373,3.005l-1.056,2.756l-2.388,3.27c-0.779,0.803 -1.713,1.594 -2.825,2.349c-2.298,1.562 -6.071,3.5 -11.374,5.709c-4.817,2.007 -10.542,4.033 -17.186,6.069l-0.007,0.003c-15.482,4.714 -32.083,7.095 -49.807,7.111l-0.02,0c-1.349,0.05 -3.295,0.077 -5.838,0.077c-12.372,0 -24.03,-1.165 -34.976,-3.478c-7.129,-1.507 -12.486,-3.233 -16.116,-5.034c-3.829,-1.899 -6.233,-4.147 -7.544,-6.168l-1.809,-4.029l-0.511,-4.046c-0,-2.478 1.693,-7.276 7.569,-12.738c3.099,-2.882 5.598,-4.652 7.342,-5.517l2.591,-0.967l2.491,-0.311l4.408,0.771Zm42.232,33.107c16.927,0 32.781,-2.25 47.56,-6.75c6.341,-1.944 11.813,-3.874 16.416,-5.792c4.603,-1.918 7.901,-3.554 9.896,-4.909c1.994,-1.356 2.991,-2.851 2.991,-4.488c0,-1.943 -0.971,-2.915 -2.915,-2.915c-0.869,0 -1.917,0.332 -3.145,0.997c-7.159,3.733 -17.081,6.879 -29.763,9.436c3.017,-3.938 4.526,-7.978 4.526,-12.121c-0,-4.142 -0.985,-7.581 -2.954,-10.317c-1.969,-2.736 -4.423,-5.012 -7.364,-6.827c-2.94,-1.816 -6.137,-3.606 -9.589,-5.37c-3.452,-1.764 -6.648,-3.311 -9.588,-4.641c-2.941,-1.33 -5.396,-2.813 -7.365,-4.449c-1.968,-1.637 -2.953,-3.35 -2.953,-5.14c0,-1.79 0.882,-3.516 2.647,-5.178c1.764,-1.662 4.692,-2.493 8.783,-2.493c5.37,0 10.343,1.573 14.92,4.718c4.577,3.145 9.295,7.633 14.153,13.463c0.46,0.562 1.023,0.843 1.688,0.843c1.687,0 3.592,-1.547 5.715,-4.641c2.122,-3.094 3.873,-6.469 5.254,-10.125c1.381,-3.657 2.071,-6.469 2.071,-8.438c0,-1.969 -0.409,-3.184 -1.227,-3.644c-3.017,-1.841 -8.528,-3.235 -16.531,-4.181c-8.003,-0.946 -16.646,-1.419 -25.928,-1.419c-9.282,0 -19.139,1.304 -29.572,3.912c-5.932,1.534 -11.251,3.427 -15.955,5.677c-4.705,2.25 -8.605,5.242 -11.699,8.975c-3.094,3.733 -4.641,8.144 -4.641,13.232c0,5.089 2.429,9.346 7.288,12.773c2.199,1.534 4.615,2.953 7.249,4.257c2.634,1.304 5.255,2.506 7.863,3.605c2.608,1.1 4.999,2.199 7.172,3.299c2.174,1.099 3.938,2.391 5.293,3.874c1.355,1.483 2.033,3.234 2.033,5.254c-0,2.02 -0.806,3.695 -2.416,5.025c-1.611,1.33 -3.721,1.994 -6.329,1.994c-6.546,0 -12.146,-1.534 -16.8,-4.602c-1.943,-1.279 -3.707,-2.557 -5.293,-3.836c-1.585,-1.278 -3.03,-2.365 -4.334,-3.26c-1.304,-0.895 -2.569,-1.342 -3.797,-1.342c-1.227,-0 -3.477,1.521 -6.75,4.564c-3.273,3.043 -4.91,5.255 -4.91,6.635c0,1.381 0.307,2.532 0.921,3.452c1.892,2.915 8.042,5.472 18.449,7.671c10.407,2.199 21.491,3.299 33.253,3.299c2.506,-0 4.398,-0.026 5.677,-0.077Zm-34.781,-28.618c0.488,0.378 0.989,0.775 1.504,1.189c1.39,1.121 2.938,2.24 4.645,3.363l0.004,0.003c2.96,1.952 6.472,2.962 10.494,3.18c-0.202,-0.113 -0.41,-0.223 -0.625,-0.332c-2.014,-1.019 -4.23,-2.037 -6.648,-3.056c-2.76,-1.164 -5.535,-2.436 -8.323,-3.816c-0.354,-0.175 -0.704,-0.352 -1.051,-0.531Zm68.245,-25.737c-2.054,-1.965 -4.078,-3.64 -6.08,-5.016c-3.132,-2.152 -6.527,-3.252 -10.201,-3.252c-0.099,-0 -0.201,0.002 -0.305,0.006c0.81,0.461 1.686,0.902 2.626,1.327c3.051,1.379 6.367,2.983 9.948,4.814c1.376,0.703 2.713,1.41 4.012,2.121Z" style="fill:#fff;"/><path d="M1455.38,59.764l20.174,-2.609c3.785,0 5.677,1.483 5.677,4.45c-0,2.966 -1.79,4.82 -5.37,5.561c-3.58,0.742 -11.66,1.726 -24.24,2.953c-1.739,4.552 -4.347,10.868 -7.825,18.948c-7.108,16.569 -10.662,26.516 -10.662,29.84c-0,3.631 2.25,5.446 6.75,5.446c14.524,0 27.565,-2.429 39.122,-7.287c1.688,-0.716 3.018,-1.074 3.989,-1.074c1.892,0 2.838,0.844 2.838,2.531c0,1.688 -1.227,3.35 -3.682,4.987c-7.517,4.96 -18.845,9.103 -33.982,12.427c-15.138,3.324 -29.099,4.986 -41.884,4.986c-7.262,-0 -12.81,-1.138 -16.646,-3.414c-3.835,-2.276 -5.753,-5.408 -5.753,-9.397c-0,-4.04 2.659,-11.583 7.978,-22.629c5.983,-12.376 10.279,-23.243 12.887,-32.602c-3.171,0.153 -5.37,0.23 -6.597,0.23c-3.017,0 -4.526,-1.227 -4.526,-3.682c0,-1.79 0.486,-2.992 1.458,-3.605c0.971,-0.614 1.981,-1.049 3.03,-1.304c1.048,-0.256 1.943,-0.422 2.684,-0.499c0.742,-0.077 1.778,-0.166 3.107,-0.268c1.33,-0.103 2.301,-0.179 2.915,-0.231c0.665,-3.886 0.997,-7.543 0.997,-10.969l-0.076,-2.915c-0,-2.301 2.915,-3.861 8.745,-4.679c1.943,-0.256 8.054,-1.535 18.333,-3.836c10.279,-2.301 16.57,-3.452 18.871,-3.452c3.682,0 5.523,1.279 5.523,3.836c0,4.398 -1.278,10.483 -3.835,18.257Z" style="fill:#fff;fill-rule:nonzero;"/><path d="M1393.45,80.731l-0.345,-0.083l-3.602,-1.993l-1.942,-2.036l-1.358,-2.42l-0.709,-2.466l-0.196,-2.304l0.449,-3.771l1.069,-2.762l1.602,-2.261l2.221,-1.857c1.763,-1.114 3.602,-1.89 5.505,-2.354c1.225,-0.299 2.304,-0.502 3.234,-0.625c0.071,-1.071 0.109,-2.119 0.111,-3.143l-0.077,-2.909l0.377,-2.955l1.103,-2.636l1.575,-2.104l1.754,-1.543c2.137,-1.565 5.769,-3.053 11.147,-3.808l0.035,-0.005c1.867,-0.245 7.73,-1.495 17.601,-3.705c11.258,-2.521 18.17,-3.653 20.691,-3.653c2.565,-0 4.651,0.427 6.293,1.068l2.234,1.133l2.124,1.742l1.467,1.893l1.025,2.129l0.713,4.204c0,2.367 -0.297,5.169 -0.917,8.399l8.387,-1.084l0.536,0c2.18,0 4.023,0.322 5.549,0.834l3.849,2.053l2.098,2.119l1.495,2.569l0.795,2.671l0.224,2.537l-0.197,2.428l-0.66,2.489l-1.179,2.391l-1.645,2.095l-1.951,1.668l-2.095,1.228c-1.227,0.593 -2.65,1.083 -4.286,1.422c-3.203,0.664 -9.882,1.535 -20.04,2.579c-1.598,3.962 -3.617,8.779 -6.057,14.45c-4.139,9.646 -7.045,16.975 -8.7,21.994c-0.199,0.603 -0.385,1.152 -0.55,1.649c12.394,-0.24 23.589,-2.418 33.57,-6.613c3.033,-1.284 5.473,-1.726 7.221,-1.726l4.423,0.777l3.253,1.97l2.418,3.217l0.855,2.581l0.223,2.319l-0.483,3.351l-1.259,2.891c-1.1,1.868 -2.901,3.845 -5.667,5.689l-0.017,0.011c-8.149,5.377 -20.376,10.008 -36.785,13.611c-15.782,3.466 -30.341,5.18 -43.671,5.18c-9.143,0 -16.069,-1.715 -20.898,-4.58c-6.706,-3.979 -9.834,-9.59 -9.834,-16.564c-0,-4.661 2.667,-13.501 8.805,-26.25l0.003,-0.006c3.696,-7.645 6.728,-14.685 9.086,-21.125Zm61.933,-20.967c2.557,-7.774 3.835,-13.859 3.835,-18.257c0,-2.557 -1.841,-3.836 -5.523,-3.836c-2.301,0 -8.592,1.151 -18.871,3.452c-10.279,2.301 -16.39,3.58 -18.333,3.836c-5.83,0.818 -8.745,2.378 -8.745,4.679l0.076,2.915c0,3.426 -0.332,7.083 -0.997,10.969c-0.614,0.052 -1.585,0.128 -2.915,0.231c-1.329,0.102 -2.365,0.191 -3.107,0.268c-0.741,0.077 -1.636,0.243 -2.684,0.499c-1.049,0.255 -2.059,0.69 -3.03,1.304c-0.972,0.613 -1.458,1.815 -1.458,3.605c0,2.455 1.509,3.682 4.526,3.682c1.227,0 3.426,-0.077 6.597,-0.23c-2.608,9.359 -6.904,20.226 -12.887,32.602c-5.319,11.046 -7.978,18.589 -7.978,22.629c-0,3.989 1.918,7.121 5.753,9.397c3.836,2.276 9.384,3.414 16.646,3.414c12.785,-0 26.746,-1.662 41.884,-4.986c15.137,-3.324 26.465,-7.467 33.982,-12.427c2.455,-1.637 3.682,-3.299 3.682,-4.987c0,-1.687 -0.946,-2.531 -2.838,-2.531c-0.971,0 -2.301,0.358 -3.989,1.074c-11.557,4.858 -24.598,7.287 -39.122,7.287c-4.5,0 -6.75,-1.815 -6.75,-5.446c-0,-3.324 3.554,-13.271 10.662,-29.84c3.478,-8.08 6.086,-14.396 7.825,-18.948c12.58,-1.227 20.66,-2.211 24.24,-2.953c3.58,-0.741 5.37,-2.595 5.37,-5.561c-0,-2.967 -1.892,-4.45 -5.677,-4.45l-20.174,2.609Z" style="fill:#fff;"/></g><g><path d="M93.26,29.693c-0,5.472 -3.031,10.241 -9.091,14.307c-6.06,4.065 -12.452,6.098 -19.177,6.098c-6.725,0 -11.954,-1.368 -15.687,-4.104c-3.734,-2.736 -5.6,-6.073 -5.6,-10.011c-0,-3.937 1.432,-7.517 4.296,-10.739c2.863,-3.222 6.584,-5.753 11.161,-7.594c4.577,-1.841 9.55,-2.762 14.92,-2.762c5.37,0 9.908,1.419 13.616,4.258c3.708,2.838 5.562,6.354 5.562,10.547Zm-21.556,95.197c3.477,0 8.195,-0.831 14.153,-2.493c5.958,-1.662 10.292,-3.145 13.002,-4.449c2.711,-1.304 4.603,-1.956 5.677,-1.956c2.148,0 3.222,1.074 3.222,3.222c-0,0.972 -0.793,2.071 -2.378,3.298c-5.217,3.887 -14.601,7.927 -28.153,12.121c-13.552,4.193 -25.647,6.29 -36.284,6.29c-6.597,-0 -12.12,-1.049 -16.569,-3.145c-4.449,-2.097 -6.674,-5.293 -6.674,-9.589c0,-2.608 2.225,-9.001 6.674,-19.178c8.387,-19.279 12.58,-33.803 12.58,-43.571l-0.076,-2.915c-0,-2.557 2.48,-3.835 7.44,-3.835l37.895,-0.844c1.33,-0 2.327,0.396 2.992,1.189c0.665,0.793 0.997,1.675 0.997,2.646c0,3.529 -1.611,9.346 -4.833,17.452c-3.221,8.106 -6.443,16.071 -9.665,23.895c-3.222,7.824 -4.833,13.424 -4.833,16.8c0,3.375 1.611,5.062 4.833,5.062Z" style="fill-rule:nonzero;"/><path d="M249.134,115.992c1.893,0 2.839,0.882 2.839,2.647c-0,1.764 -0.934,3.311 -2.8,4.641c-1.867,1.329 -4.616,2.851 -8.247,4.564c-3.631,1.713 -8.144,3.592 -13.539,5.638c-5.395,2.046 -11.634,3.797 -18.717,5.255c-7.083,1.457 -13.846,2.186 -20.29,2.186c-15.189,-0 -22.783,-3.478 -22.783,-10.433c0,-4.5 2.57,-12.542 7.709,-24.125c5.14,-11.583 7.71,-19.395 7.71,-23.435c-0,-4.551 -3.554,-6.827 -10.663,-6.827c-3.222,-0 -6.878,0.409 -10.969,1.227c-1.944,6.853 -5.408,17.746 -10.395,32.679c-4.986,14.933 -7.799,23.422 -8.438,25.467c-0.639,2.046 -2.007,3.069 -4.104,3.069l-39.505,0.844c-0.563,-0 -1.189,-0.346 -1.88,-1.036c-0.69,-0.69 -1.035,-1.509 -1.035,-2.455c-0,-0.946 1.086,-4.295 3.26,-10.049c2.173,-5.753 4.577,-11.941 7.211,-18.564c2.633,-6.622 5.037,-13.91 7.21,-21.862c2.174,-7.952 3.26,-14.536 3.26,-19.753l-0.076,-2.915c-0,-2.557 2.48,-3.835 7.441,-3.835l36.36,-0.844c1.33,-0 2.327,0.396 2.992,1.189c0.665,0.793 0.997,1.764 0.997,2.915c0,1.151 -0.281,3.004 -0.844,5.561c18.002,-7.517 32.781,-11.276 44.339,-11.276c4.909,0 9.384,1.355 13.424,4.066c4.5,3.017 6.75,7.594 6.75,13.731c0,6.29 -2.378,14.524 -7.134,24.7c-4.756,10.177 -7.134,16.468 -7.134,18.871c0,4.756 1.893,7.134 5.677,7.134c2.403,0 6.507,-0.908 12.312,-2.723c5.804,-1.816 10.1,-3.311 12.887,-4.488c2.787,-1.176 4.846,-1.764 6.175,-1.764Z" style="fill-rule:nonzero;"/><path d="M313.341,59.764l20.174,-2.609c3.785,0 5.677,1.483 5.677,4.45c-0,2.966 -1.79,4.82 -5.37,5.561c-3.58,0.742 -11.66,1.726 -24.24,2.953c-1.739,4.552 -4.347,10.868 -7.825,18.948c-7.108,16.569 -10.662,26.516 -10.662,29.84c-0,3.631 2.25,5.446 6.75,5.446c14.524,0 27.565,-2.429 39.122,-7.287c1.688,-0.716 3.018,-1.074 3.989,-1.074c1.892,0 2.839,0.844 2.839,2.531c-0,1.688 -1.228,3.35 -3.683,4.987c-7.517,4.96 -18.845,9.103 -33.982,12.427c-15.138,3.324 -29.099,4.986 -41.884,4.986c-7.262,-0 -12.81,-1.138 -16.646,-3.414c-3.835,-2.276 -5.753,-5.408 -5.753,-9.397c-0,-4.04 2.659,-11.583 7.978,-22.629c5.983,-12.376 10.279,-23.243 12.887,-32.602c-3.171,0.153 -5.37,0.23 -6.597,0.23c-3.017,0 -4.526,-1.227 -4.526,-3.682c0,-1.79 0.486,-2.992 1.458,-3.605c0.971,-0.614 1.981,-1.049 3.03,-1.304c1.048,-0.256 1.943,-0.422 2.684,-0.499c0.742,-0.077 1.778,-0.166 3.107,-0.268c1.33,-0.103 2.301,-0.179 2.915,-0.231c0.665,-3.886 0.997,-7.543 0.997,-10.969l-0.076,-2.915c-0,-2.301 2.915,-3.861 8.745,-4.679c1.943,-0.256 8.054,-1.535 18.333,-3.836c10.279,-2.301 16.57,-3.452 18.871,-3.452c3.682,0 5.523,1.279 5.523,3.836c0,4.398 -1.278,10.483 -3.835,18.257Z" style="fill-rule:nonzero;"/><path d="M459.013,115.992c1.79,0 2.685,0.831 2.685,2.493c-0,1.662 -1.215,3.196 -3.644,4.603c-2.429,1.406 -5.433,2.915 -9.013,4.526c-3.58,1.611 -8.515,3.515 -14.805,5.715c-14.473,5.062 -30.812,7.594 -49.018,7.594c-34.571,-0 -51.856,-10.637 -51.856,-31.912c-0,-10.381 3.286,-19.599 9.857,-27.654c6.572,-8.054 15.381,-14.216 26.427,-18.487c11.046,-4.27 23.09,-6.405 36.13,-6.405c13.041,0 22.591,2.02 28.651,6.06c6.061,4.04 9.091,9.589 9.091,16.646c-0,7.262 -2.903,13.194 -8.707,17.797c-5.804,4.603 -13.514,8.029 -23.128,10.279c-9.666,2.25 -20.737,3.836 -33.216,4.756c0.819,7.927 6.495,12.862 17.03,14.805c2.711,0.46 5.574,0.691 8.592,0.691c11.966,-0 29.226,-3.606 51.779,-10.817c1.381,-0.46 2.429,-0.69 3.145,-0.69Zm-80.469,-12.427c8.899,-2.455 15.93,-6.213 21.095,-11.276c5.166,-5.063 7.748,-11.174 7.748,-18.334c0,-1.892 -0.614,-3.401 -1.841,-4.526c-1.227,-1.125 -3.081,-1.688 -5.561,-1.688c-2.481,0 -5.063,1.074 -7.748,3.222c-2.685,2.148 -4.948,4.961 -6.789,8.438c-3.887,7.211 -6.188,15.266 -6.904,24.164Z" style="fill-rule:nonzero;"/><path d="M476.273,58.92l36.36,-0.844c1.33,-0 2.327,0.396 2.992,1.189c0.665,0.793 0.997,1.521 0.997,2.186c0,0.665 -0.179,1.765 -0.537,3.299c-0.358,1.534 -0.818,3.388 -1.38,5.561c-0.563,2.174 -0.921,3.567 -1.074,4.181c3.988,-4.756 8.975,-8.95 14.958,-12.581c5.983,-3.63 11.251,-5.446 15.802,-5.446c9.666,0 14.499,2.084 14.499,6.252c-0,4.168 -1.305,9.154 -3.913,14.958c-2.608,5.805 -5.063,9.627 -7.364,11.469c-1.125,0.818 -2.493,1.227 -4.104,1.227c-1.611,-0 -3.107,-0.512 -4.487,-1.534c-6.188,-4.603 -12.939,-6.904 -20.252,-6.904c-2.813,-0 -5.267,0.204 -7.364,0.613c-1.994,6.853 -5.165,16.915 -9.512,30.186c-4.347,13.271 -6.751,20.673 -7.211,22.207c-0.767,2.404 -2.199,3.606 -4.296,3.606c-7.415,-0 -15.367,0.396 -23.856,1.189c-8.49,0.792 -13.361,1.189 -14.614,1.189c-1.253,-0 -2.224,-0.345 -2.915,-1.036c-0.69,-0.69 -1.035,-1.508 -1.035,-2.454c-0,-0.947 1.086,-4.373 3.26,-10.28c2.173,-5.906 4.577,-12.26 7.211,-19.062c2.633,-6.802 5.037,-14.268 7.21,-22.399c2.174,-8.132 3.261,-14.805 3.261,-20.022l-0.077,-2.915c-0,-2.557 2.48,-3.835 7.441,-3.835Z" style="fill-rule:nonzero;"/><path d="M582.593,58.92l34.673,-0.844c1.329,-0 2.327,0.396 2.992,1.189c0.664,0.793 0.997,1.969 0.997,3.529c-0,1.559 -1.419,5.599 -4.258,12.12c-2.838,6.52 -5.689,13.45 -8.553,20.788c-2.864,7.339 -4.296,12.696 -4.296,16.071c0,6.341 3.376,9.512 10.126,9.512c3.222,0 6.751,-0.409 10.586,-1.227c1.228,-4.347 3.273,-10.1 6.137,-17.26c7.262,-17.95 11.634,-31.605 13.117,-40.963c0.256,-1.892 1.611,-2.839 4.066,-2.839c7.415,0 15.214,-0.153 23.397,-0.46c8.182,-0.307 12.9,-0.46 14.153,-0.46c1.253,-0 2.224,0.345 2.915,1.036c0.69,0.69 1.035,1.342 1.035,1.956c0,2.454 -1.585,7.645 -4.756,15.572c-3.171,7.926 -6.341,16.122 -9.512,24.585c-3.171,8.464 -4.756,14.639 -4.756,18.526c0,3.886 1.726,5.83 5.178,5.83c3.452,-0 8.234,-0.934 14.345,-2.8c6.111,-1.867 10.381,-3.465 12.81,-4.794c2.429,-1.33 4.002,-1.995 4.718,-1.995c1.943,0 2.915,0.921 2.915,2.762c-0,1.841 -1.368,3.592 -4.104,5.254c-2.736,1.662 -6.035,3.35 -9.896,5.063c-3.861,1.713 -8.502,3.516 -13.922,5.408c-12.479,4.296 -25.187,6.444 -38.125,6.444c-12.939,-0 -20.226,-3.478 -21.863,-10.433c-4.96,2.046 -9.026,3.644 -12.197,4.795c-3.17,1.15 -7.568,2.378 -13.194,3.682c-5.625,1.304 -10.79,1.956 -15.495,1.956c-15.035,-0 -22.553,-6.137 -22.553,-18.411c0,-4.244 0.818,-9.397 2.455,-15.457c1.636,-6.06 3.452,-11.545 5.446,-16.454c5.268,-13.041 7.901,-21.134 7.901,-24.279c0,-3.145 0.461,-5.165 1.381,-6.06c0.921,-0.895 2.966,-1.342 6.137,-1.342Z" style="fill-rule:nonzero;"/><path d="M725.197,58.92l36.36,-0.844c1.33,-0 2.327,0.396 2.992,1.189c0.665,0.793 0.997,1.521 0.997,2.186c0,0.665 -0.179,1.765 -0.537,3.299c-0.358,1.534 -0.818,3.388 -1.38,5.561c-0.563,2.174 -0.921,3.567 -1.074,4.181c3.989,-4.756 8.975,-8.95 14.958,-12.581c5.984,-3.63 11.251,-5.446 15.802,-5.446c9.666,0 14.499,2.084 14.499,6.252c-0,4.168 -1.304,9.154 -3.913,14.958c-2.608,5.805 -5.062,9.627 -7.364,11.469c-1.125,0.818 -2.493,1.227 -4.104,1.227c-1.611,-0 -3.107,-0.512 -4.487,-1.534c-6.188,-4.603 -12.939,-6.904 -20.252,-6.904c-2.812,-0 -5.267,0.204 -7.364,0.613c-1.994,6.853 -5.165,16.915 -9.512,30.186c-4.347,13.271 -6.75,20.673 -7.211,22.207c-0.767,2.404 -2.199,3.606 -4.295,3.606c-7.416,-0 -15.368,0.396 -23.857,1.189c-8.49,0.792 -13.361,1.189 -14.614,1.189c-1.252,-0 -2.224,-0.345 -2.915,-1.036c-0.69,-0.69 -1.035,-1.508 -1.035,-2.454c-0,-0.947 1.087,-4.373 3.26,-10.28c2.174,-5.906 4.577,-12.26 7.211,-19.062c2.634,-6.802 5.037,-14.268 7.211,-22.399c2.173,-8.132 3.26,-14.805 3.26,-20.022l-0.077,-2.915c0,-2.557 2.48,-3.835 7.441,-3.835Z" style="fill-rule:nonzero;"/><path d="M833.988,131.871c-14.933,5.063 -24.458,7.594 -28.575,7.594c-4.117,0 -7.441,-0.856 -9.972,-2.569c-2.532,-1.714 -3.797,-3.849 -3.797,-6.406c-0,-1.943 3.349,-12.222 10.049,-30.837c12.682,-35.44 19.024,-58.325 19.024,-68.656l-0.077,-2.915c0,-2.557 2.48,-3.835 7.441,-3.835l20.021,-0l15.419,-0.23c1.33,-0 2.327,0.396 2.992,1.189c0.665,0.792 0.997,1.675 0.997,2.646c-0,4.756 -4.705,19.638 -14.115,44.645l0.077,-0.076c4.449,-5.063 9.832,-8.988 16.148,-11.775c6.315,-2.787 13.13,-4.181 20.443,-4.181c21.325,0 31.988,9.972 31.988,29.917c-0,7.671 -1.892,15.061 -5.677,22.169c-3.784,7.109 -8.924,13.297 -15.418,18.564c16.774,-1.483 29.891,-4.807 39.352,-9.972c1.381,-0.767 2.582,-1.151 3.605,-1.151c1.995,0 2.992,0.806 2.992,2.416c-0,1.611 -0.895,3.082 -2.685,4.411c-6.699,4.654 -17.03,8.771 -30.991,12.351c-13.961,3.579 -28.945,5.395 -44.952,5.446c-2.557,0.205 -5.37,0.307 -8.438,0.307c-3.068,-0 -7.3,-0.806 -12.696,-2.417c-5.395,-1.61 -9.78,-3.822 -13.155,-6.635Zm34.596,-55.922c-9.614,0 -17.643,7.365 -24.087,22.093c-2.966,6.75 -4.449,12.222 -4.449,16.416c-0,4.193 0.703,7.083 2.109,8.668c1.407,1.585 4.168,2.378 8.285,2.378c4.117,0 8.566,-1.905 13.348,-5.715c4.781,-3.81 8.629,-8.604 11.544,-14.383c2.915,-5.779 4.373,-10.982 4.373,-15.61c-0,-4.629 -1.023,-8.093 -3.069,-10.395c-2.045,-2.301 -4.73,-3.452 -8.054,-3.452Z" style="fill-rule:nonzero;"/><path d="M979.354,121.438c9.615,0 17.644,-7.364 24.087,-22.092c2.967,-6.751 4.45,-12.223 4.45,-16.416c-0,-4.193 -0.704,-7.083 -2.11,-8.668c-1.406,-1.586 -4.168,-2.378 -8.285,-2.378c-4.116,-0 -8.566,1.905 -13.347,5.715c-4.782,3.81 -8.63,8.604 -11.545,14.383c-2.915,5.779 -4.372,10.982 -4.372,15.61c-0,4.628 1.022,8.093 3.068,10.395c2.046,2.301 4.73,3.451 8.054,3.451Zm39.89,-64.973l35.133,1.611c1.33,-0 2.327,0.396 2.992,1.189c0.664,0.793 0.997,1.675 0.997,2.646c-0,3.734 -1.547,9.679 -4.641,17.836c-3.094,8.156 -6.188,16.237 -9.282,24.24c-3.094,8.003 -4.641,13.296 -4.641,15.879c-0,2.582 0.396,4.232 1.189,4.948c0.793,0.716 2.314,1.074 4.564,1.074c2.25,-0 6.354,-1.087 12.312,-3.261c5.958,-2.173 9.998,-3.822 12.12,-4.947c2.123,-1.125 3.746,-1.688 4.871,-1.688c1.995,0 2.992,0.895 2.992,2.685c0,3.784 -7.671,8.745 -23.013,14.882c-5.165,2.096 -11.391,3.848 -18.679,5.254c-7.287,1.407 -14.69,2.11 -22.207,2.11c-12.53,-0 -20.073,-3.989 -22.63,-11.967c-7.978,7.978 -18.717,11.967 -32.218,11.967c-9.256,-0 -17.081,-2.225 -23.473,-6.674c-6.955,-4.858 -10.433,-12.504 -10.433,-22.936c0,-10.995 3.248,-21.121 9.742,-30.377c7.109,-10.28 16.621,-17.362 28.536,-21.249c6.598,-2.148 13.68,-3.222 21.249,-3.222c11.609,0 20.635,2.864 27.079,8.592c0.051,-0.307 0.077,-0.793 0.077,-1.458l-0.077,-3.298c-0,-2.557 2.48,-3.836 7.441,-3.836Z" style="fill-rule:nonzero;"/><path d="M1212.63,115.992c1.892,0 2.838,0.882 2.838,2.647c-0,1.764 -0.934,3.311 -2.8,4.641c-1.867,1.329 -4.616,2.851 -8.246,4.564c-3.631,1.713 -8.145,3.592 -13.54,5.638c-5.395,2.046 -11.634,3.797 -18.717,5.255c-7.083,1.457 -13.846,2.186 -20.29,2.186c-15.188,-0 -22.783,-3.478 -22.783,-10.433c0,-4.5 2.57,-12.542 7.71,-24.125c5.139,-11.583 7.709,-19.395 7.709,-23.435c-0,-4.551 -3.554,-6.827 -10.663,-6.827c-3.222,-0 -6.878,0.409 -10.969,1.227c-1.944,6.853 -5.408,17.746 -10.394,32.679c-4.987,14.933 -7.799,23.422 -8.439,25.467c-0.639,2.046 -2.007,3.069 -4.104,3.069l-39.505,0.844c-0.563,-0 -1.189,-0.346 -1.88,-1.036c-0.69,-0.69 -1.035,-1.509 -1.035,-2.455c-0,-0.946 1.087,-4.295 3.26,-10.049c2.173,-5.753 4.577,-11.941 7.211,-18.564c2.633,-6.622 5.037,-13.91 7.21,-21.862c2.174,-7.952 3.261,-14.536 3.261,-19.753l-0.077,-2.915c-0,-2.557 2.48,-3.835 7.441,-3.835l36.36,-0.844c1.33,-0 2.327,0.396 2.992,1.189c0.665,0.793 0.997,1.764 0.997,2.915c0,1.151 -0.281,3.004 -0.844,5.561c18.002,-7.517 32.781,-11.276 44.339,-11.276c4.909,0 9.384,1.355 13.424,4.066c4.5,3.017 6.751,7.594 6.751,13.731c-0,6.29 -2.378,14.524 -7.134,24.7c-4.756,10.177 -7.134,16.468 -7.134,18.871c-0,4.756 1.892,7.134 5.676,7.134c2.404,0 6.508,-0.908 12.312,-2.723c5.804,-1.816 10.1,-3.311 12.887,-4.488c2.787,-1.176 4.846,-1.764 6.176,-1.764Z" style="fill-rule:nonzero;"/><path d="M1271.89,29.693c-0,5.472 -3.03,10.241 -9.09,14.307c-6.061,4.065 -12.453,6.098 -19.178,6.098c-6.725,0 -11.954,-1.368 -15.687,-4.104c-3.733,-2.736 -5.6,-6.073 -5.6,-10.011c-0,-3.937 1.432,-7.517 4.296,-10.739c2.864,-3.222 6.584,-5.753 11.161,-7.594c4.577,-1.841 9.55,-2.762 14.92,-2.762c5.37,0 9.909,1.419 13.616,4.258c3.708,2.838 5.562,6.354 5.562,10.547Zm-21.556,95.197c3.478,0 8.195,-0.831 14.153,-2.493c5.958,-1.662 10.292,-3.145 13.003,-4.449c2.71,-1.304 4.602,-1.956 5.676,-1.956c2.148,0 3.222,1.074 3.222,3.222c-0,0.972 -0.793,2.071 -2.378,3.298c-5.216,3.887 -14.601,7.927 -28.153,12.121c-13.552,4.193 -25.646,6.29 -36.284,6.29c-6.597,-0 -12.12,-1.049 -16.569,-3.145c-4.449,-2.097 -6.674,-5.293 -6.674,-9.589c0,-2.608 2.225,-9.001 6.674,-19.178c8.387,-19.279 12.581,-33.803 12.581,-43.571l-0.077,-2.915c-0,-2.557 2.48,-3.835 7.441,-3.835l37.894,-0.844c1.33,-0 2.327,0.396 2.992,1.189c0.665,0.793 0.997,1.675 0.997,2.646c0,3.529 -1.611,9.346 -4.832,17.452c-3.222,8.106 -6.444,16.071 -9.666,23.895c-3.222,7.824 -4.833,13.424 -4.833,16.8c0,3.375 1.611,5.062 4.833,5.062Z" style="fill-rule:nonzero;"/><path d="M1322.96,140.846c-1.279,0.051 -3.171,0.077 -5.677,0.077c-11.762,-0 -22.846,-1.1 -33.253,-3.299c-10.407,-2.199 -16.557,-4.756 -18.449,-7.671c-0.614,-0.92 -0.921,-2.071 -0.921,-3.452c0,-1.38 1.637,-3.592 4.91,-6.635c3.273,-3.043 5.523,-4.564 6.75,-4.564c1.228,-0 2.493,0.447 3.797,1.342c1.304,0.895 2.749,1.982 4.334,3.26c1.586,1.279 3.35,2.557 5.293,3.836c4.654,3.068 10.254,4.602 16.8,4.602c2.608,0 4.718,-0.664 6.329,-1.994c1.61,-1.33 2.416,-3.005 2.416,-5.025c-0,-2.02 -0.678,-3.771 -2.033,-5.254c-1.355,-1.483 -3.119,-2.775 -5.293,-3.874c-2.173,-1.1 -4.564,-2.199 -7.172,-3.299c-2.608,-1.099 -5.229,-2.301 -7.863,-3.605c-2.634,-1.304 -5.05,-2.723 -7.249,-4.257c-4.859,-3.427 -7.288,-7.684 -7.288,-12.773c0,-5.088 1.547,-9.499 4.641,-13.232c3.094,-3.733 6.994,-6.725 11.699,-8.975c4.704,-2.25 10.023,-4.143 15.955,-5.677c10.433,-2.608 20.29,-3.912 29.572,-3.912c9.282,0 17.925,0.473 25.928,1.419c8.003,0.946 13.514,2.34 16.531,4.181c0.818,0.46 1.227,1.675 1.227,3.644c0,1.969 -0.69,4.781 -2.071,8.438c-1.381,3.656 -3.132,7.031 -5.254,10.125c-2.123,3.094 -4.028,4.641 -5.715,4.641c-0.665,0 -1.228,-0.281 -1.688,-0.843c-4.858,-5.83 -9.576,-10.318 -14.153,-13.463c-4.577,-3.145 -9.55,-4.718 -14.92,-4.718c-4.091,0 -7.019,0.831 -8.783,2.493c-1.765,1.662 -2.647,3.388 -2.647,5.178c0,1.79 0.985,3.503 2.953,5.14c1.969,1.636 4.424,3.119 7.365,4.449c2.94,1.33 6.136,2.877 9.588,4.641c3.452,1.764 6.649,3.554 9.589,5.37c2.941,1.815 5.395,4.091 7.364,6.827c1.969,2.736 2.954,6.175 2.954,10.317c-0,4.143 -1.509,8.183 -4.526,12.121c12.682,-2.557 22.604,-5.703 29.763,-9.436c1.228,-0.665 2.276,-0.997 3.145,-0.997c1.944,0 2.915,0.972 2.915,2.915c0,1.637 -0.997,3.132 -2.991,4.488c-1.995,1.355 -5.293,2.991 -9.896,4.909c-4.603,1.918 -10.075,3.848 -16.416,5.792c-14.779,4.5 -30.633,6.75 -47.56,6.75Z" style="fill-rule:nonzero;"/><path d="M1455.38,59.764l20.174,-2.609c3.785,0 5.677,1.483 5.677,4.45c-0,2.966 -1.79,4.82 -5.37,5.561c-3.58,0.742 -11.66,1.726 -24.24,2.953c-1.739,4.552 -4.347,10.868 -7.825,18.948c-7.108,16.569 -10.662,26.516 -10.662,29.84c-0,3.631 2.25,5.446 6.75,5.446c14.524,0 27.565,-2.429 39.122,-7.287c1.688,-0.716 3.018,-1.074 3.989,-1.074c1.892,0 2.838,0.844 2.838,2.531c0,1.688 -1.227,3.35 -3.682,4.987c-7.517,4.96 -18.845,9.103 -33.982,12.427c-15.138,3.324 -29.099,4.986 -41.884,4.986c-7.262,-0 -12.81,-1.138 -16.646,-3.414c-3.835,-2.276 -5.753,-5.408 -5.753,-9.397c-0,-4.04 2.659,-11.583 7.978,-22.629c5.983,-12.376 10.279,-23.243 12.887,-32.602c-3.171,0.153 -5.37,0.23 -6.597,0.23c-3.017,0 -4.526,-1.227 -4.526,-3.682c0,-1.79 0.486,-2.992 1.458,-3.605c0.971,-0.614 1.981,-1.049 3.03,-1.304c1.048,-0.256 1.943,-0.422 2.684,-0.499c0.742,-0.077 1.778,-0.166 3.107,-0.268c1.33,-0.103 2.301,-0.179 2.915,-0.231c0.665,-3.886 0.997,-7.543 0.997,-10.969l-0.076,-2.915c-0,-2.301 2.915,-3.861 8.745,-4.679c1.943,-0.256 8.054,-1.535 18.333,-3.836c10.279,-2.301 16.57,-3.452 18.871,-3.452c3.682,0 5.523,1.279 5.523,3.836c0,4.398 -1.278,10.483 -3.835,18.257Z" style="fill-rule:nonzero;"/></g></g></svg>