<?xml version="1.0" encoding="UTF-8" standalone="no"?><!DOCTYPE svg PUBLIC "-//W3C//DTD SVG 1.1//EN" "http://www.w3.org/Graphics/SVG/1.1/DTD/svg11.dtd"><svg width="1760" height="465" viewBox="0 0 1760 465" version="1.1" xmlns="http://www.w3.org/2000/svg" xmlns:xlink="http://www.w3.org/1999/xlink" xml:space="preserve" xmlns:serif="http://www.serif.com/" style="fill-rule:evenodd;clip-rule:evenodd;stroke-linecap:round;stroke-linejoin:round;stroke-miterlimit:1.5;"><rect id="Artboard1" x="0" y="0" width="1759.28" height="464.329" style="fill:none;"/><g><path d="M531.091,167.091l2.959,251.713c-2.272,18.514 -14.915,28.853 -35.684,32.789l-68.386,-0.197c31.63,-19.529 80.52,-40.267 79.274,-90.097c-2.073,-82.923 -111.887,-63.029 -112.75,-83.483c-1.429,-33.883 97.446,-24.417 134.587,-110.725Z" style="fill:#008124;"/><path d="M426.371,74.51l56.124,-0c27.315,-0.204 49.084,18.645 48.528,62.864c-21.292,-32.728 -64.104,-46.237 -104.652,-62.864Z" style="fill:#008124;"/><path d="M8.155,116.977l6.224,305.198c4.906,16.736 16.033,27.559 36.592,29.418l102.977,-0.126c26.865,0.258 57.554,-32.009 56.119,-68.481c-2.11,-53.605 -84.925,-79.03 -87.488,-132.795c0.476,-15.318 12.23,-31.904 31.289,-42.18c63.202,-34.077 287.149,-42.558 288.018,-96.529c-7.416,-17.97 -28.046,-28.785 -53.529,-36.972l-336.988,0.658c-27.405,0.135 -44.133,12.003 -43.214,41.809Z" style="fill:#008124;"/></g><g><path d="M280.89,228.179c1.659,35.04 -21.521,70.006 -71.837,72.87c-48.676,2.771 -63.679,-31.487 -62.958,-56.688c1.169,-40.897 19.272,-61.938 62.524,-72.811c49.362,-1.189 69.808,20.581 72.271,56.629Zm-70.367,57.779c33.393,-1.459 57.932,-30.58 55.061,-57.5c-3.19,-29.908 -28.217,-49.97 -59.972,-40.45c-31.649,9.489 -42.3,29.583 -42.095,51.634c0.277,29.744 17.8,47.592 47.006,46.316Z" style="fill:#fff;stroke:#502e00;stroke-width:8.33px;"/><path d="M382.635,88.137l20.184,39.437c29.184,4.114 51.876,27.613 52.464,58.832c0.726,38.534 -28.944,68.666 -66.241,69.172c-40.588,0.551 -59.131,-19.981 -61.399,-50.335c-2.688,-35.98 14.569,-61.63 57.699,-74.812l-19.768,-32.069c-3.69,-7.107 13.19,-16.776 17.061,-10.225Zm7.717,55.573c-34.329,8.518 -48.484,28.323 -47.267,54.883c1.254,27.384 20.259,42.365 43.488,42.494c30.525,0.17 51.582,-23.158 52.594,-52.166c0.85,-24.342 -14.327,-39.202 -34.816,-45.427c3.516,24.18 -0.016,44.765 -16.837,53.46c6.844,-14.333 8.216,-33.066 2.838,-53.244Z" style="fill:#fff;stroke:#502e00;stroke-width:8.33px;"/><path d="M302.853,61.369c25.61,-6.38 30.582,-47.054 4.215,-46.995c-25.657,0.059 -32.472,25.202 -20.42,40.938c-17.381,-0.074 -28.907,7.906 -44.014,22.392c-21.505,20.619 -32.139,41.753 -33.737,66.399c-1.187,18.299 18.831,26.691 25.416,27.049c26.134,1.418 40.768,-7.191 67.089,-11.48c-28.24,66.365 10.342,107.038 8.011,88.198c-1.797,-14.522 2.232,-41.48 24.556,-88.99c8.159,-17.364 1.623,-27.261 -13.698,-31.091c-8.185,-2.045 -57.954,8.405 -63.708,3.468c-3.693,-3.17 -1.611,-10.064 12.971,-16.826c3.823,-1.773 5.383,-7.196 8.014,-12.027c3.519,9.26 10.5,19.059 31.007,17.29c38.385,-3.31 66.716,-44.513 63.422,-50.665c-4.084,-7.628 -38.788,30.486 -65.916,21.254c1.833,-14.36 2.965,-25.863 -3.208,-28.914Z" style="fill:#fff;stroke:#502e00;stroke-width:8.33px;"/></g><g><g transform="matrix(0.197118,0,0,0.197118,109.073,107.684)"><g transform="matrix(796.995,0,0,796.995,8194.39,1531.53)"></g><text x="803.609px" y="1531.53px" style="font-family:'SonsieOne-Regular', 'Sonsie One';font-size:796.995px;fill:#fff;">interur<tspan x="4729.9px 5394.2px 6091.18px 6782.95px 7161.09px 7728.57px " y="1531.53px 1531.53px 1531.53px 1531.53px 1531.53px 1531.53px ">banist</tspan></text><path d="M943.59,1088.24c-21.905,-20.864 -32.042,-45.666 -32.042,-73.512c0,-30.205 10.504,-57.855 32.471,-82.569c18.633,-20.961 42.665,-37.684 72.444,-49.661c28.067,-11.29 58.54,-17.064 91.467,-17.064c37.452,-0 68.914,10.509 94.774,30.305c30.448,23.309 44.792,52.64 44.792,87.078c-0,40.579 -19.898,77.535 -64.838,107.685l-1.873,1.245l5.325,2.901l10.64,9.855l10.963,18.633l3.98,21.96c0,20.991 -8.341,55.931 -27.506,104.149c-16.41,41.284 -32.819,81.852 -49.229,121.704c-8.542,20.745 -14.895,37.549 -18.357,50.62c11.361,-1.839 24.586,-4.958 39.705,-9.175c23.048,-6.43 40.786,-12.111 53.125,-17.313c4.366,-11.153 8.871,-22.571 13.517,-34.253c12.821,-32.239 24.504,-67.721 35.084,-106.433c9.734,-35.614 14.966,-65.091 15.043,-88.541l-0.388,-14.754l1.326,-13.161l4.421,-12.848l7.418,-11.498l9.291,-8.946c11.033,-8.531 29.564,-15.743 57.03,-15.835l184.508,-4.282l12.332,0.977l12.626,3.52l12.461,6.788l10.64,9.856l6.626,9.551l0.146,0.325c73.583,-26.416 135.838,-39.19 186.548,-39.19c33.521,0 64.064,9.285 91.649,27.79c34.53,23.152 52.976,57.683 52.976,104.771c-0,36.389 -12.654,84.334 -40.168,143.208c-12.987,27.79 -23.296,54.821 -28.537,69.193c8.766,-2.048 19.639,-5.251 32.683,-9.331c23.374,-7.311 41.64,-13.492 54.773,-18.618c5.618,-13.579 12.257,-28.397 19.979,-44.435l0.015,-0.031c18.75,-38.781 34.133,-74.495 46.092,-107.165l-1.748,-0.421l-18.272,-10.113l-9.855,-10.329l-6.89,-12.275l-3.595,-12.51l-0.996,-11.69l2.279,-19.131l5.425,-14.013l8.125,-11.47l11.266,-9.42c8.947,-5.651 18.275,-9.589 27.929,-11.944c6.216,-1.516 11.689,-2.546 16.406,-3.169c0.363,-5.433 0.552,-10.747 0.563,-15.943l-0.388,-14.757l1.913,-14.995l5.594,-13.369l7.991,-10.674l8.895,-7.827c10.842,-7.941 29.268,-15.491 56.551,-19.32l0.181,-0.024c9.467,-1.246 39.213,-7.587 89.288,-18.798c57.115,-12.787 92.182,-18.533 104.969,-18.533c13.012,-0 23.596,2.166 31.924,5.419l11.333,5.749l10.776,8.835l7.441,9.604l5.201,10.802l3.62,21.325c-0,12.01 -1.507,26.223 -4.652,42.611l42.545,-5.499l2.722,-0c11.057,-0 20.408,1.632 28.148,4.232l19.529,10.413l10.64,10.75l7.584,13.032l4.037,13.549l1.135,12.871l-0.999,12.32l-3.021,11.391c28.937,-22.915 62.571,-41.868 100.997,-56.722c60.706,-23.468 126.869,-35.339 198.536,-35.339c77.034,0 133.004,13.979 168.801,37.844c43.491,28.994 64.941,68.976 64.941,119.623c-0,50.325 -19.954,91.514 -60.178,123.41c-33.681,26.708 -78.176,47.128 -133.989,60.191l-0.024,0.006c-26.943,6.272 -55.958,11.58 -87.055,15.906c0.901,0.179 1.811,0.354 2.863,0.547c11.39,1.907 23.418,2.834 36.08,2.834c53.56,-0 128.968,-15.524 226.297,-45.481c3.257,-8.509 6.59,-17.164 9.998,-25.966c12.849,-33.183 24.559,-69.615 35.162,-109.285c9.775,-36.569 15.028,-66.577 15.105,-90.132l-0.389,-14.754l1.327,-13.161l4.421,-12.848l7.418,-11.498l9.291,-8.946c11.033,-8.531 29.564,-15.743 57.03,-15.835l184.508,-4.282l12.332,0.977l12.626,3.52l12.461,6.788l10.64,9.856l5.012,8.435c2.121,-1.341 4.265,-2.669 6.432,-3.984c38.496,-23.361 72.816,-33.765 102.099,-33.765c40.586,0 68.509,7.696 84.743,18.197l12.173,9.819l10.266,13.355l6.572,16.047l1.405,11.241c0.71,-4.269 1.601,-8.055 2.619,-11.364l6.835,-15.314l8.585,-10.753c9.243,-8.986 28.355,-18.661 60.043,-18.773l0.019,-0.001l175.926,-4.281l12.355,0.977l12.626,3.52l12.462,6.788l10.639,9.856l10.588,18.508l3.433,13.692c0.592,3.949 0.923,8.236 0.923,12.868c-0,9.991 -6.931,36.594 -25.112,78.36c-14.193,32.606 -28.449,67.259 -42.77,103.958c-11.846,30.354 -18.9,52.198 -18.9,66.159c-0,1.516 0.247,3.516 0.469,5.001c2.215,0.402 5.87,0.979 8.624,0.979c6.708,-0 13.728,-0.44 21.063,-1.299c6.255,-18.68 14.418,-40.655 24.552,-65.99l0.031,-0.077c35.223,-87.065 56.788,-153.18 63.841,-197.617l2.384,-10.615l4.763,-10.891l7.348,-10.12l9.33,-8.176l16.247,-7.948l22.449,-3.263c37.116,-0 76.152,-0.77 117.108,-2.306c42.426,-1.591 66.888,-2.364 73.384,-2.364l22.617,3.752l11.633,5.598l10.432,8.286l8.384,10.15l4.993,9.184l3.066,9.527l1.193,10.956c-0,14.852 -7.968,46.739 -27.152,94.7c-15.973,39.932 -31.945,81.217 -47.918,123.855c-10.19,27.201 -17.151,48.733 -19.998,64.829c11.963,-1.958 26.268,-5.636 42.972,-10.739c20.381,-6.225 36.222,-11.593 47.42,-16.382c4.103,-10.753 8.329,-21.745 12.677,-32.975c12.849,-33.183 24.559,-69.615 35.163,-109.285c9.774,-36.569 15.028,-66.577 15.104,-90.132l-0.388,-14.754l1.327,-13.161l4.421,-12.848l7.417,-11.498l9.291,-8.946c11.033,-8.531 29.564,-15.743 57.03,-15.835l184.508,-4.282l12.332,0.977l12.626,3.52l12.462,6.788l10.64,9.856l5.012,8.435c2.121,-1.341 4.265,-2.669 6.432,-3.984c38.495,-23.361 72.815,-33.765 102.098,-33.765c35.669,0 61.557,5.944 78.326,14.512c12.102,-45.213 18.313,-78.835 18.408,-100.928l-0.388,-14.74l1.326,-13.161l4.421,-12.848l7.418,-11.498l9.291,-8.947c11.105,-8.586 29.806,-15.836 57.568,-15.836l101.255,0l78.22,-1.167l12.157,0.977l12.626,3.52l12.462,6.788l10.639,9.855l10.964,18.633l3.98,21.96c-0,16.763 -10.059,57.088 -31.192,120.658c32.336,-11.81 66.77,-17.778 103.328,-17.778c67.237,0 116.968,17.901 150.587,49.343c23.022,21.531 39.317,49.89 47.634,85.533c40.842,-55.914 94.538,-94.736 161.111,-116.45l0.011,-0.004c37.535,-12.221 77.821,-18.422 120.885,-18.422c43.514,0 80.915,7.165 112.439,20.76l5.114,-4.924c11.105,-8.586 29.805,-15.836 58.536,-15.836l179.202,8.217l-1.936,-0.044l11.841,0.977l12.626,3.52l12.462,6.788l10.64,9.856l10.963,18.632l3.98,21.961c0,22.019 -8.043,57.36 -26.292,105.472c-15.728,41.465 -31.456,82.54 -47.184,123.224c-8.457,21.877 -14.768,38.667 -18.082,50.631c8.442,-2.429 19.158,-6.243 32.264,-11.025l6.367,-2.334c6.41,-16.524 13.144,-33.659 20.201,-51.404c12.821,-32.239 24.503,-67.721 35.084,-106.433c9.734,-35.614 14.966,-65.091 15.043,-88.541l-0.389,-14.754l1.327,-13.161l4.421,-12.848l7.418,-11.498l9.291,-8.946c11.033,-8.531 29.564,-15.743 57.03,-15.835l184.508,-4.282l12.332,0.977l12.626,3.52l12.461,6.788l10.64,9.856l6.626,9.551l0.146,0.325c73.582,-26.416 135.838,-39.19 186.548,-39.19c33.521,0 64.064,9.285 91.649,27.79c34.53,23.152 52.976,57.683 52.976,104.771c-0,36.389 -12.654,84.334 -40.168,143.208c-12.987,27.79 -23.297,54.821 -28.537,69.193c8.766,-2.048 19.639,-5.251 32.683,-9.331l4.353,-1.367c4.833,-12.634 10.613,-26.739 17.41,-42.29c39.221,-90.16 60.15,-157.801 60.307,-203.645l-0.388,-14.753l1.327,-13.161l4.421,-12.849l7.418,-11.498l9.29,-8.946c9.222,-7.13 23.683,-13.339 44.221,-15.239c-21.905,-20.864 -32.042,-45.666 -32.042,-73.512c0,-30.205 10.504,-57.855 32.471,-82.569c18.633,-20.961 42.665,-37.684 72.444,-49.661c28.067,-11.29 58.54,-17.064 91.468,-17.064c37.451,-0 68.913,10.509 94.773,30.305c30.448,23.309 44.792,52.64 44.792,87.078c-0,40.579 -19.898,77.535 -64.838,107.685l-1.873,1.245l5.325,2.901l10.64,9.855l10.963,18.633l3.98,21.96c0,20.991 -8.341,55.931 -27.506,104.149c-16.41,41.284 -32.819,81.852 -49.229,121.704c-8.542,20.745 -14.895,37.549 -18.357,50.62c11.361,-1.839 24.586,-4.958 39.705,-9.175c2.47,-0.689 4.879,-1.37 7.226,-2.042l1.113,-1.042c15.723,-14.617 28.402,-23.599 37.246,-27.984l13.146,-4.909l12.639,-1.575l22.36,3.907c-36.977,-26.363 -54.129,-59.8 -54.129,-98.81c0,-36.219 11.247,-67.533 33.27,-94.106c19.504,-23.534 43.997,-42.509 73.657,-56.693c26.132,-12.498 55.651,-23.068 88.765,-31.632l0.166,-0.041c56.539,-14.135 109.972,-21.11 160.274,-21.11c48.865,0 94.364,2.511 136.498,7.492c49.048,5.798 82.43,15.822 100.921,27.105l-1.294,-0.759l13.583,11.159l5.795,9.065l0.063,-0.052c8.947,-5.651 18.275,-9.589 27.929,-11.944c6.216,-1.516 11.689,-2.546 16.406,-3.169c0.362,-5.433 0.551,-10.747 0.563,-15.943l-0.388,-14.757l1.913,-14.995l5.593,-13.369l7.992,-10.674l8.895,-7.827c10.841,-7.941 29.267,-15.491 56.551,-19.32l0.181,-0.024c9.466,-1.246 39.213,-7.587 89.287,-18.798c57.115,-12.787 92.182,-18.533 104.969,-18.533c13.013,-0 23.597,2.166 31.925,5.419l11.333,5.749l10.776,8.835l7.44,9.604l5.202,10.802l3.62,21.325c-0,12.01 -1.507,26.223 -4.652,42.611l42.545,-5.499l2.721,-0c11.058,-0 20.409,1.632 28.149,4.232l19.529,10.413l10.639,10.75l7.585,13.032l4.037,13.549l1.135,12.871l-1,12.32l-3.347,12.625l-5.985,12.129l-8.341,10.63l-9.901,8.461l-10.628,6.232c-6.223,3.008 -13.443,5.495 -21.74,7.214c-16.253,3.367 -50.135,7.784 -101.669,13.082c-8.105,20.098 -18.346,44.535 -30.728,73.307c-20.993,48.933 -35.737,86.113 -44.135,111.578c-1.009,3.059 -1.952,5.843 -2.79,8.364c62.875,-1.218 119.668,-12.265 170.304,-33.547c15.385,-6.512 27.768,-8.758 36.635,-8.758l22.437,3.942l16.501,9.994l12.27,16.322l4.338,13.091l1.128,11.769l-2.449,16.997l-6.388,14.669c-5.58,9.475 -14.716,19.504 -28.751,28.86l-0.083,0.055c-41.34,27.279 -103.37,50.77 -186.614,69.05c-80.066,17.582 -153.923,26.279 -221.547,26.279c-46.384,0 -81.521,-8.7 -106.02,-23.236c-11.896,-7.058 -21.573,-15.129 -29.128,-24.154c-10.734,3.629 -22.045,7.266 -33.936,10.911l-0.036,0.011c-78.541,23.915 -162.757,35.995 -252.673,36.077l-0.102,0.002c-6.843,0.253 -16.715,0.389 -29.616,0.389c-62.764,0 -121.907,-5.913 -177.44,-17.647c-36.167,-7.642 -63.343,-16.398 -81.755,-25.534c-1.479,-0.733 -2.915,-1.477 -4.311,-2.229c-11.216,3.864 -23.08,7.737 -35.597,11.61c-73.402,22.713 -138.955,33.8 -196.569,33.8c-40.688,0 -74.639,-7.057 -102.08,-19.989c-11.991,-5.651 -22.03,-12.294 -30.206,-19.868c-28.85,10.815 -62.083,20.151 -99.731,27.898c-38.905,8.006 -76.06,11.959 -111.454,11.959c-46.428,0 -81.071,-6.439 -104.285,-17.07c-37.169,-17.019 -53.57,-44.092 -53.57,-78.131c-0,-25.931 13.129,-72.794 42.743,-139.537c19.22,-43.317 31.536,-74.108 34.68,-93.143c-3.43,-0.496 -7.557,-0.957 -11.02,-0.957c-7.054,-0 -14.587,0.481 -22.603,1.416c-10.453,34.558 -25.673,81.795 -45.678,141.705c-25.143,75.3 -39.332,118.106 -42.555,128.421l-8.098,17.344l-14.576,15.579l-19.244,9.606c0,0 -19.253,2.703 -18.351,2.694l-200.867,4.29l-11.866,-1.329l-9.515,-3.235l-18.499,-13.072l-3.427,-4.115c-21.506,6.87 -45.599,12.914 -72.296,18.066c-39.599,7.642 -79.823,11.468 -120.672,11.468c-57.602,0 -98.667,-14.727 -125.155,-40.647c-41.865,26.791 -92.781,40.647 -153.093,40.647c-56.556,0 -104.175,-14.249 -143.262,-41.454l-0.03,-0.021c-4.057,-2.834 -7.949,-5.804 -11.676,-8.911c-20.384,6.963 -42.796,13.603 -67.255,19.874c-73.586,18.869 -152.522,28.563 -236.788,28.947c-13.561,1.036 -28.416,1.565 -44.566,1.565c-18.466,0 -44.031,-4.331 -76.5,-14.026c-23.788,-7.102 -44.323,-16.272 -61.747,-27.24c-70.905,23.233 -117.028,33.872 -137.86,33.872c-30.786,0 -55.355,-7.49 -74.286,-20.301c-12.189,-8.249 -21.024,-17.814 -27.118,-28.095l-8.063,-19.073l-2.663,-20.338c-0,-10.406 15.56,-64.729 50.272,-161.821l-3.991,0.567l-12.886,-1.048l-12.611,-3.171c0,-0 -22.432,-11.869 -22.466,-11.894l-0.033,-0.025c-23.706,-17.632 -49.491,-26.669 -77.507,-26.669c-1.68,-0 -3.328,0.016 -4.945,0.048c-9.972,32.741 -23.468,75.102 -40.495,127.082c-21.855,66.722 -33.949,103.936 -36.369,112.004l-7.846,17.514l-13.73,16.084l-19.629,11.066l-20.975,3.4c-36.397,0 -75.429,1.958 -117.098,5.849c-45.343,4.234 -71.372,6.215 -78.065,6.215l-22.616,-3.753l-11.634,-5.597l-10.431,-8.286l-7.259,-8.716l-5.739,-10.485l-1.515,-4.967c-6.114,2.236 -12.445,4.497 -18.995,6.783l-0.085,0.029c-67.806,23.343 -136.866,34.992 -207.173,34.992c-63.052,0 -105.002,-16.221 -129.188,-42.229c-10.958,4.312 -20.684,8.008 -29.176,11.09c-17.262,6.264 -41.184,13.024 -71.81,20.123c-31.999,7.418 -61.394,11.016 -88.157,11.016c-61.987,0 -104.056,-18.797 -128.851,-49.158c-17.742,-21.725 -27.837,-50.307 -27.837,-86.516c-0,-24.548 4.45,-54.389 13.915,-89.437c8.789,-32.547 18.565,-61.996 29.245,-88.286l1.563,-3.872c-12.328,21.842 -24.581,36.837 -35.949,45.93l-23.023,11.555l-23.448,3.329l-12.886,-1.048l-12.61,-3.171c-0,-0 -22.433,-11.869 -22.467,-11.894l-0.033,-0.025c-23.706,-17.632 -49.491,-26.669 -77.507,-26.669c-1.68,-0 -3.328,0.016 -4.945,0.048c-9.972,32.741 -23.468,75.102 -40.494,127.082c-21.855,66.722 -33.95,103.936 -36.37,112.004l-7.845,17.514l-13.731,16.084l-19.629,11.066l-20.974,3.4c-36.398,0 -75.43,1.958 -117.098,5.849c-45.344,4.234 -71.373,6.215 -78.065,6.215l-22.617,-3.753l-11.633,-5.597l-10.432,-8.286l-7.259,-8.716l-5.739,-10.485l-2.88,-9.442c-4.884,1.756 -9.945,3.551 -15.184,5.382c-77.551,27.129 -165.073,40.897 -262.629,40.897c-119.626,0 -202.482,-24.949 -251.391,-70.446c-37.186,16.841 -84.051,31.713 -140.763,44.167c-80.067,17.582 -153.924,26.279 -221.548,26.279c-46.384,0 -81.521,-8.7 -106.02,-23.236c-14.398,-8.543 -25.546,-18.569 -33.615,-29.976c-10.025,4.097 -20.814,8.337 -32.368,12.718c-29.239,11.086 -63.036,20.637 -101.421,28.535c-38.905,8.006 -76.06,11.959 -111.453,11.959c-46.429,0 -81.072,-6.439 -104.286,-17.07c-37.169,-17.019 -53.57,-44.092 -53.57,-78.131c0,-25.931 13.129,-72.794 42.744,-139.537c19.22,-43.317 31.535,-74.108 34.68,-93.143c-3.431,-0.496 -7.558,-0.957 -11.02,-0.957c-7.054,-0 -14.588,0.481 -22.604,1.416c-10.452,34.558 -25.673,81.795 -45.677,141.705c-25.143,75.3 -39.332,118.106 -42.556,128.421l-8.098,17.344l-14.576,15.579l-19.243,9.606c-0,0 -19.254,2.703 -18.351,2.694l-200.868,4.29l-11.866,-1.329l-9.514,-3.235l-18.499,-13.072l-7.26,-8.717l-5.739,-10.484l-0.17,-0.558c-11.016,3.788 -22.655,7.583 -34.92,11.378c-73.402,22.713 -138.955,33.8 -196.569,33.8c-40.688,0 -74.639,-7.057 -102.08,-19.989c-39.808,-18.76 -58.11,-48.451 -58.11,-86.887c-0,-15.433 11.054,-53.961 37.37,-114.165c39.221,-90.16 60.15,-157.801 60.307,-203.645l-0.388,-14.753l1.327,-13.161l4.421,-12.849l7.418,-11.498l9.29,-8.946c9.222,-7.13 23.683,-13.339 44.221,-15.239Zm6240.97,-105.423c0,-21.274 -9.405,-39.11 -28.214,-53.509c-18.809,-14.399 -41.834,-21.598 -69.075,-21.598c-27.242,-0 -52.472,4.67 -75.692,14.009c-23.219,9.34 -42.094,22.182 -56.622,38.527c-14.529,16.345 -21.793,34.505 -21.793,54.482c-0,19.977 9.469,36.905 28.409,50.785c18.939,13.88 45.466,20.82 79.582,20.82c34.116,0 66.546,-10.312 97.29,-30.938c30.743,-20.625 46.115,-44.818 46.115,-72.578Zm-5979.34,0c-0,-21.274 -9.405,-39.11 -28.214,-53.509c-18.809,-14.399 -41.834,-21.598 -69.076,-21.598c-27.241,-0 -52.471,4.67 -75.691,14.009c-23.22,9.34 -42.094,22.182 -56.622,38.527c-14.529,16.345 -21.793,34.505 -21.793,54.482c-0,19.977 9.469,36.905 28.408,50.785c18.939,13.88 45.467,20.82 79.583,20.82c34.116,0 66.546,-10.312 97.29,-30.938c30.743,-20.625 46.115,-44.818 46.115,-72.578Zm1241.42,228.105c-3.847,1.328 -7.992,2.473 -12.449,3.396c-16.252,3.367 -50.135,7.784 -101.668,13.082c-8.106,20.098 -18.346,44.535 -30.729,73.307c-20.993,48.933 -35.737,86.113 -44.135,111.578c-1.008,3.059 -1.951,5.843 -2.79,8.364c45.433,-0.88 87.69,-6.892 126.744,-18.189c-0.406,-5.64 -0.608,-11.392 -0.608,-17.254c0,-62.698 19.838,-118.371 59.526,-167.016c2.001,-2.452 4.037,-4.875 6.109,-7.268Zm4849.94,204.714l2.795,9.446l0.017,0.2c14.807,9.476 32.284,14.401 52.237,15.485c-1.023,-0.574 -2.081,-1.136 -3.17,-1.687c-10.219,-5.169 -21.463,-10.332 -33.725,-15.502c-6.039,-2.545 -12.09,-5.193 -18.154,-7.942Zm316.812,-144.677c-10.424,-9.972 -20.693,-18.468 -30.849,-25.447c-15.887,-10.917 -33.11,-16.5 -51.749,-16.5c-0.502,-0 -1.02,0.011 -1.548,0.032c4.108,2.339 8.554,4.575 13.324,6.732c15.476,6.997 32.299,15.135 50.467,24.421c6.979,3.567 13.764,7.155 20.355,10.762Zm166.206,-41.418c-7.825,19.395 -17.468,37.415 -28.897,54.076c-10.324,15.051 -20.59,25.048 -29.645,31.068l-15.02,7.539l-19.189,3.299l-0.092,-0.01c2.555,3.073 5.009,6.243 7.36,9.51c14.746,20.492 22.944,46.01 22.944,77.035c-0,0.671 -0.005,1.341 -0.016,2.013c3.834,-1.152 7.584,-2.321 11.25,-3.508c6.814,-17.974 15.687,-38.537 26.805,-61.628l0.015,-0.031c18.75,-38.781 34.133,-74.495 46.092,-107.165l-1.748,-0.421l-18.272,-10.113l-1.587,-1.664Zm-2325.77,260.508c-8.389,-10.547 -14.9,-22.6 -19.532,-36.159c-37.357,10.988 -81.205,18.707 -131.545,23.158c32.949,-26.722 59.022,-58.114 78.221,-94.176c19.198,-36.062 28.797,-73.551 28.797,-112.467c0,-101.181 -54.093,-151.772 -162.279,-151.772c-37.099,0 -71.669,7.07 -103.71,21.209c-32.041,14.14 -59.347,34.052 -81.918,59.736l-0.389,0.389c47.737,-126.865 71.605,-202.362 71.605,-226.49c0,-4.929 -1.686,-9.404 -5.059,-13.426c-3.373,-4.021 -8.432,-6.032 -15.177,-6.032l-78.221,1.168l-101.57,-0c-25.166,-0 -37.748,6.486 -37.748,19.458l0.389,14.788c-0,52.406 -32.171,168.505 -96.512,348.296c-33.986,94.436 -50.979,146.583 -50.979,156.442c-0,12.972 6.421,23.803 19.263,32.494c12.842,8.692 29.706,13.037 50.591,13.037c20.884,0 69.205,-12.842 144.961,-38.526c17.123,14.269 39.37,25.489 66.741,33.662c27.37,8.172 48.839,12.258 64.405,12.258c15.567,0 29.836,-0.519 42.808,-1.556c81.204,-0.26 157.219,-9.47 228.046,-27.631c33.799,-8.666 63.403,-17.953 88.812,-27.86Zm-19.532,-36.159c25.792,-7.586 48.49,-16.73 68.093,-27.433c7.005,-3.891 13.102,-5.837 18.29,-5.837c10.118,-0 15.177,4.086 15.177,12.258c0,8.173 -4.54,15.632 -13.62,22.377c-17.768,12.343 -40.571,23.941 -68.408,34.794c6.977,8.772 15.253,16.502 24.828,23.19c32.43,22.572 72.124,33.857 119.083,33.857c68.492,0 122.974,-20.236 163.446,-60.708c12.972,40.472 51.239,60.708 114.802,60.708c38.137,0 75.691,-3.567 112.661,-10.702c36.97,-7.134 68.557,-16.02 94.76,-26.657c6.55,-2.62 12.825,-5.198 18.824,-7.733c2.715,-8.112 6.491,-18.571 11.329,-31.377c3.147,-8.329 6.388,-16.836 9.724,-25.524c-7.298,2.822 -15.467,5.882 -24.505,9.179c-30.225,11.026 -51.045,16.539 -62.46,16.539c-11.415,0 -19.134,-1.816 -23.155,-5.448c-4.021,-3.632 -6.032,-11.999 -6.032,-25.101c-0,-13.101 7.848,-39.953 23.544,-80.555c15.696,-40.602 31.392,-81.594 47.088,-122.974c15.696,-41.381 23.544,-71.54 23.544,-90.479c0,-4.93 -1.686,-9.405 -5.059,-13.426c-3.373,-4.022 -8.432,-6.032 -15.177,-6.032l-178.234,-8.173c-25.166,0 -37.749,6.486 -37.749,19.458l0.389,16.734c0,3.373 -0.129,5.837 -0.389,7.394c-32.689,-29.057 -78.48,-43.586 -137.372,-43.586c-38.397,0 -74.33,5.449 -107.797,16.345c-60.449,19.717 -108.705,55.65 -144.767,107.797c-32.949,46.958 -49.423,98.327 -49.423,154.106c0,21.291 2.855,40.294 8.565,57.009Zm688.989,-8.787c17.108,-6.613 29.435,-11.921 36.982,-15.922c10.766,-5.707 19.004,-8.561 24.711,-8.561c10.118,-0 15.177,4.54 15.177,13.62c0,17.583 -32.641,40.171 -97.923,67.764c-3.473,10.374 -5.21,16.909 -5.21,19.602c0,4.8 1.751,8.951 5.254,12.453c3.502,3.503 6.68,5.254 9.534,5.254l200.417,-4.281c10.637,0 17.577,-5.188 20.82,-15.566c3.243,-10.378 17.512,-53.444 42.807,-129.2c25.295,-75.757 42.872,-131.017 52.731,-165.782c20.755,-4.151 39.305,-6.226 55.649,-6.226c36.062,-0 54.093,11.545 54.093,34.635c0,20.495 -13.036,60.125 -39.11,118.888c-26.074,58.762 -39.11,99.559 -39.11,122.39c-0,35.283 38.526,52.925 115.579,52.925c32.69,0 67.001,-3.697 102.933,-11.091c35.932,-7.394 67.584,-16.28 94.954,-26.657c10.587,-4.014 20.505,-7.902 29.753,-11.664c-1.389,-4.719 -2.084,-9.782 -2.084,-15.188c0,-7.088 3.239,-19.684 9.715,-37.789c-7.273,2.406 -15.194,4.949 -23.763,7.629c-29.446,9.21 -50.266,13.815 -62.46,13.815c-19.198,0 -28.798,-12.064 -28.798,-36.191c0,-12.194 12.064,-44.105 36.192,-95.733c24.128,-51.628 36.192,-93.398 36.192,-125.309c-0,-31.133 -11.416,-54.352 -34.246,-69.659c-20.496,-13.751 -43.197,-20.626 -68.103,-20.626c-58.633,0 -133.611,19.069 -224.933,57.207c2.854,-12.972 4.281,-22.377 4.281,-28.214c-0,-5.838 -1.687,-10.767 -5.059,-14.788c-3.373,-4.022 -8.432,-6.032 -15.178,-6.032l-184.46,4.28c-25.166,0 -37.749,6.486 -37.749,19.458l0.389,14.788c0,26.463 -5.513,59.866 -16.539,100.208c-11.026,40.343 -23.22,77.313 -36.581,110.91c-9.548,24.011 -18.501,46.895 -26.857,68.653Zm687.672,-0.396c17.719,-5.86 31.591,-10.906 41.615,-15.136c14.14,-5.968 24.582,-8.951 31.328,-8.951c9.599,-0 14.398,4.475 14.398,13.426c0,8.95 -4.734,16.798 -14.204,23.544c-9.469,6.745 -23.414,14.464 -41.834,23.155c-11.296,5.329 -24.273,10.976 -38.934,16.939c4.21,14.306 14.801,25.458 31.773,33.457c22.571,10.637 50.591,15.955 84.058,15.955c53.964,0 115.321,-10.637 184.072,-31.911c19.764,-6.115 37.781,-12.167 54.05,-18.154c-1.934,-1.832 -3.515,-3.693 -4.742,-5.584c-3.113,-4.67 -4.67,-10.508 -4.67,-17.512c-0,-5.785 5.662,-14.445 16.985,-25.979c-5.589,1.68 -11.537,3.399 -17.843,5.159c-30.224,8.431 -54.158,12.647 -71.799,12.647c-16.345,0 -24.517,-8.561 -24.517,-25.684c-0,-17.123 8.172,-45.532 24.517,-85.226c16.344,-39.694 32.689,-80.101 49.034,-121.223c16.344,-41.121 24.516,-70.632 24.516,-88.533c0,-4.929 -1.686,-9.405 -5.059,-13.426c-3.372,-4.021 -8.431,-6.032 -15.177,-6.032l-192.244,4.281c-25.165,-0 -37.748,6.486 -37.748,19.458l0.389,14.788c0,49.553 -21.274,123.233 -63.822,221.041c-10.481,23.974 -18.528,43.807 -24.142,59.501Zm353.895,3.249c21.198,-6.373 37.238,-12.177 48.12,-17.413c5.272,-2.536 9.934,-4.586 13.985,-6.15c-0.226,-0.157 -0.451,-0.311 -0.675,-0.465c-6.615,-4.54 -13.036,-6.811 -19.263,-6.811c-6.227,0 -17.642,7.719 -34.246,23.155c-2.892,2.689 -5.533,5.25 -7.921,7.684Zm62.105,-23.563c6.438,4.45 13.543,9.808 21.313,16.074c2.063,1.664 4.187,3.329 6.37,4.993c2.316,-3.019 3.474,-5.85 3.474,-8.495c-0,-10.897 -5.448,-16.345 -16.345,-16.345c-3.359,-0 -8.296,1.257 -14.812,3.773Zm27.683,21.067c-2,2.607 -4.863,5.353 -8.59,8.238c-18.855,14.049 -48.446,28.494 -88.771,43.333c13.19,12.492 42.806,23.602 88.85,33.331c52.796,11.156 109.029,16.734 168.7,16.734c12.713,0 22.312,-0.13 28.798,-0.389c85.874,0 166.3,-11.415 241.278,-34.246c25.511,-7.818 48.248,-15.595 68.212,-23.331c-0.274,-2.28 -0.411,-4.621 -0.411,-7.023c-0,-9.154 2.69,-21.852 8.072,-38.095c-30.232,11.14 -66.55,20.985 -108.951,29.533c15.306,-19.976 22.96,-40.472 22.96,-61.487c-0,-21.014 -4.994,-38.461 -14.983,-52.341c-9.988,-13.88 -22.441,-25.425 -37.359,-34.635c-14.918,-9.21 -31.133,-18.291 -48.645,-27.241c-17.512,-8.951 -33.727,-16.799 -48.644,-23.545c-14.918,-6.745 -27.371,-14.269 -37.36,-22.571c-9.988,-8.302 -14.982,-16.993 -14.982,-26.073c-0,-9.081 4.475,-17.837 13.426,-26.268c8.95,-8.432 23.803,-12.648 44.558,-12.648c27.241,-0 52.472,7.978 75.692,23.933c23.219,15.956 47.153,38.721 71.799,68.297c2.335,2.854 5.189,4.281 8.562,4.281c8.561,0 18.225,-7.848 28.992,-23.544c10.767,-15.696 19.652,-32.819 26.657,-51.369c7.005,-18.55 10.508,-32.819 10.508,-42.807c-0,-9.989 -2.076,-16.15 -6.227,-18.485c-15.307,-9.34 -43.261,-16.41 -83.863,-21.209c-40.603,-4.8 -84.448,-7.2 -131.536,-7.2c-47.088,0 -97.095,6.616 -150.02,19.847c-30.095,7.784 -57.077,17.383 -80.945,28.798c-23.868,11.415 -43.651,26.593 -59.347,45.532c-15.696,18.939 -23.544,41.315 -23.544,67.129c0,25.814 12.324,47.413 36.97,64.795c11.156,7.783 23.415,14.983 36.776,21.598c13.361,6.616 26.657,12.713 39.888,18.291c13.232,5.578 25.36,11.156 36.387,16.734c11.026,5.577 19.976,12.128 26.852,19.652c6.875,7.524 10.312,16.41 10.312,26.657c0,10.248 -4.086,18.745 -12.258,25.49c-8.173,6.746 -18.874,10.118 -32.106,10.118c-33.208,0 -61.616,-7.783 -85.225,-23.349c-7.329,-4.822 -14.156,-9.643 -20.482,-14.465Zm506.138,-1.448c15.643,-5.764 29.657,-11.875 42.042,-18.333c6.226,-3.373 11.545,-5.059 15.955,-5.059c9.859,-0 14.788,4.929 14.788,14.788c0,8.302 -5.059,15.89 -15.177,22.766c-10.118,6.875 -26.852,15.177 -50.201,24.906c-4.834,2.014 -9.856,4.031 -15.068,6.05c2.036,16.925 11.627,30.474 28.775,40.649c19.458,11.545 47.607,17.317 84.448,17.317c64.859,0 135.686,-8.432 212.48,-25.295c76.794,-16.864 134.259,-37.878 172.397,-63.044c12.453,-8.302 18.679,-16.733 18.679,-25.295c0,-8.561 -4.799,-12.842 -14.398,-12.842c-4.93,-0 -11.675,1.816 -20.237,5.448c-58.633,24.647 -124.79,36.97 -198.47,36.97c-22.831,0 -34.246,-9.21 -34.246,-27.63c-0,-16.864 18.031,-67.324 54.093,-151.383c17.642,-40.991 30.873,-73.032 39.694,-96.122c63.822,-6.226 104.813,-11.22 122.974,-14.982c18.161,-3.762 27.241,-13.167 27.241,-28.214c0,-15.048 -9.599,-22.571 -28.798,-22.571l-102.348,13.231c12.972,-39.435 19.458,-70.308 19.458,-92.619c-0,-12.972 -9.34,-19.458 -28.02,-19.458c-11.674,-0 -43.585,5.837 -95.733,17.512c-52.147,11.674 -83.15,18.16 -93.008,19.458c-29.576,4.151 -44.364,12.064 -44.364,23.738l0.389,14.788c-0,17.383 -1.686,35.933 -5.059,55.65c-3.113,0.259 -8.043,0.648 -14.788,1.167c-6.746,0.519 -11.999,0.973 -15.761,1.362c-3.762,0.39 -8.302,1.233 -13.621,2.53c-5.318,1.297 -10.442,3.502 -15.371,6.616c-4.93,3.113 -7.394,9.21 -7.394,18.29c-0,12.453 7.653,18.68 22.96,18.68c6.226,-0 17.382,-0.39 33.468,-1.168c-13.232,47.477 -35.025,102.608 -65.379,165.392c-14.931,31.011 -25.731,56.58 -32.4,76.707Zm-2680.03,-206.33c2.715,-1.426 5.562,-3.312 8.425,-5.802c15.417,-9.6 31.867,-14.401 49.35,-14.401c16.864,0 30.484,5.838 40.862,17.513c10.377,11.674 15.566,29.251 15.566,52.73c0,23.48 -7.394,49.878 -22.182,79.194c-14.788,29.317 -34.311,53.639 -58.568,72.967c-24.258,19.328 -46.829,28.992 -67.714,28.992c-20.884,0 -34.894,-4.021 -42.029,-12.063c-7.134,-8.043 -10.702,-22.701 -10.702,-43.975c0,-21.274 7.524,-49.034 22.572,-83.28c18.81,-42.995 40.283,-73.62 64.42,-91.875Zm-43.615,188.205c2.899,0.366 6.417,0.713 9.354,0.713c13.002,-0 26.268,-7.748 41.369,-19.78c19.572,-15.595 35.236,-35.29 47.167,-58.944c11.273,-22.347 17.652,-42.256 17.652,-60.154c0,-10.729 -0.145,-19.309 -4.888,-24.644c-2.297,-2.585 -5.53,-3.323 -9.264,-3.323c-35.41,0 -59.731,32.501 -83.478,86.778l-0.013,0.03c-12.023,27.364 -19,49.275 -19,66.274c0,4.227 0.57,9.266 1.101,13.05Zm663.341,22.363c-16.864,0 -30.485,-5.837 -40.862,-17.512c-10.378,-11.675 -15.566,-29.252 -15.566,-52.731c-0,-23.479 7.394,-49.877 22.182,-79.194c14.788,-29.316 34.31,-53.639 58.568,-72.967c24.257,-19.328 46.829,-28.992 67.713,-28.992c20.885,0 34.895,4.021 42.029,12.064c7.135,8.043 10.702,22.701 10.702,43.975c0,21.274 -7.523,49.034 -22.571,83.28c-32.689,74.718 -73.421,112.077 -122.195,112.077Zm101.389,-208.407c-2.899,-0.367 -6.416,-0.713 -9.354,-0.713c-13.001,-0 -26.268,7.748 -41.368,19.78c-19.572,15.595 -35.236,35.289 -47.168,58.943c-11.272,22.347 -17.652,42.257 -17.652,60.154c0,10.729 0.146,19.309 4.888,24.644c2.298,2.585 5.531,3.323 9.265,3.323c35.41,0 59.731,-32.5 83.477,-86.777l0.014,-0.031c12.023,-27.363 18.999,-49.275 18.999,-66.273c0,-4.228 -0.569,-9.266 -1.101,-13.05Zm-4579.26,238.912c0.964,-2.595 1.979,-5.305 3.046,-8.128c5.365,-14.203 11.007,-28.928 16.925,-44.175c-2.756,1.184 -5.739,2.548 -8.948,4.091c-13.75,6.616 -35.737,14.14 -65.962,22.572c-30.224,8.431 -54.158,12.647 -71.799,12.647c-16.345,0 -24.517,-8.561 -24.517,-25.684c-0,-17.123 8.172,-45.532 24.517,-85.226c16.344,-39.694 32.689,-80.101 49.033,-121.223c16.345,-41.121 24.517,-70.632 24.517,-88.533c0,-4.929 -1.686,-9.405 -5.059,-13.426c-3.372,-4.021 -8.431,-6.032 -15.177,-6.032l-192.244,4.281c-25.165,-0 -37.748,6.486 -37.748,19.458l0.389,14.788c0,49.553 -21.274,123.233 -63.822,221.041c-22.571,51.629 -33.857,84.059 -33.857,97.29c0,21.793 11.286,38.008 33.857,48.645c22.571,10.637 50.591,15.955 84.058,15.955c53.963,0 115.321,-10.637 184.072,-31.911c40.099,-12.408 73.006,-24.551 98.719,-36.43Zm19.971,-52.303c9.057,-3.888 15.673,-5.832 19.85,-5.832c10.897,-0 16.345,5.448 16.345,16.345c-0,4.929 -4.021,10.507 -12.064,16.733c-11.028,8.217 -25.729,16.57 -44.102,25.057c-8.996,24.232 -13.493,38.516 -13.493,42.851c-0,4.8 1.751,8.951 5.253,12.453c3.503,3.503 6.681,5.254 9.535,5.254l200.416,-4.281c10.637,0 17.577,-5.188 20.82,-15.566c3.243,-10.378 17.512,-53.444 42.807,-129.2c25.295,-75.757 42.872,-131.017 52.731,-165.782c20.755,-4.151 39.305,-6.226 55.65,-6.226c36.062,-0 54.093,11.545 54.093,34.635c-0,20.495 -13.037,60.125 -39.111,118.888c-26.073,58.762 -39.11,99.559 -39.11,122.39c-0,35.283 38.527,52.925 115.58,52.925c32.689,0 67,-3.697 102.932,-11.091c35.932,-7.394 67.584,-16.28 94.955,-26.657c27.37,-10.378 50.266,-19.912 68.686,-28.603c1.635,-0.772 3.235,-1.536 4.8,-2.292c0.83,-12.231 5.644,-29.71 14.442,-52.437c-2.791,1.035 -5.768,2.22 -8.929,3.555c-14.14,5.967 -35.933,13.555 -65.379,22.765c-29.446,9.21 -50.266,13.815 -62.46,13.815c-19.198,0 -28.797,-12.064 -28.797,-36.191c-0,-12.194 12.063,-44.105 36.191,-95.733c24.128,-51.628 36.192,-93.398 36.192,-125.309c-0,-31.133 -11.415,-54.352 -34.246,-69.659c-20.496,-13.751 -43.196,-20.626 -68.103,-20.626c-58.633,0 -133.61,19.069 -224.933,57.207c2.854,-12.972 4.281,-22.377 4.281,-28.214c-0,-5.838 -1.686,-10.767 -5.059,-14.788c-3.373,-4.022 -8.432,-6.032 -15.177,-6.032l-184.461,4.28c-25.166,0 -37.749,6.486 -37.749,19.458l0.39,14.788c-0,26.463 -5.513,59.866 -16.54,100.208c-11.026,40.343 -23.219,77.313 -36.58,110.91c-6.86,17.249 -13.412,33.916 -19.656,50.002Zm731.015,-0.436c9.695,-3.598 17.161,-5.396 22.398,-5.396c9.599,-0 14.399,4.475 14.399,13.426c-0,8.95 -4.735,16.798 -14.205,23.544c-8.628,6.146 -20.973,13.101 -37.034,20.863c-0.087,1.275 -0.13,2.493 -0.13,3.654c-0,20.236 9.729,36.127 29.187,47.672c19.458,11.545 47.607,17.317 84.447,17.317c64.86,0 135.686,-8.432 212.48,-25.295c69.274,-15.212 122.82,-33.802 160.638,-55.77c-7.147,-10.645 -12.59,-22.338 -16.33,-35.08c-55.582,21.391 -117.694,32.087 -186.337,32.087c-22.83,0 -34.246,-9.21 -34.246,-27.63c0,-16.864 18.031,-67.324 54.093,-151.383c17.642,-40.991 30.873,-73.032 39.694,-96.122c63.822,-6.226 104.814,-11.22 122.974,-14.982c18.161,-3.762 27.241,-13.167 27.241,-28.214c0,-15.048 -9.599,-22.571 -28.797,-22.571l-102.349,13.231c12.972,-39.435 19.458,-70.308 19.458,-92.619c-0,-12.972 -9.34,-19.458 -28.019,-19.458c-11.675,-0 -43.586,5.837 -95.733,17.512c-52.147,11.674 -83.15,18.16 -93.009,19.458c-29.576,4.151 -44.364,12.064 -44.364,23.738l0.389,14.788c0,17.383 -1.686,35.933 -5.059,55.65c-3.113,0.259 -8.042,0.648 -14.788,1.167c-6.745,0.519 -11.999,0.973 -15.761,1.362c-3.762,0.39 -8.302,1.233 -13.62,2.53c-5.319,1.297 -10.443,3.502 -15.372,6.616c-4.929,3.113 -7.394,9.21 -7.394,18.29c-0,12.453 7.653,18.68 22.96,18.68c6.227,-0 17.383,-0.39 33.468,-1.168c-13.232,47.477 -35.024,102.608 -65.379,165.392c-10.791,22.413 -19.424,41.983 -25.9,58.711Zm455.85,4.935c4.08,-1.57 8.124,-3.198 12.134,-4.883c8.561,-3.632 15.307,-5.448 20.236,-5.448c9.599,-0 14.399,4.281 14.399,12.842c-0,8.562 -6.227,16.993 -18.68,25.295c-3.734,2.465 -7.654,4.889 -11.759,7.274c36.284,54.043 116.479,81.065 240.584,81.065c92.36,0 175.251,-12.842 248.672,-38.526c31.911,-11.156 56.947,-20.82 75.107,-28.993c4.269,-1.921 8.376,-3.813 12.322,-5.676c5.733,-15.545 11.776,-31.693 18.13,-48.445c-112.366,35.692 -198.532,53.538 -258.498,53.538c-15.307,-0 -29.836,-1.168 -43.586,-3.503c-53.444,-9.859 -82.242,-34.894 -86.393,-75.107c63.303,-4.67 119.472,-12.713 168.506,-24.128c48.774,-11.415 87.884,-28.798 117.331,-52.147c29.446,-23.35 44.169,-53.445 44.169,-90.285c0,-35.802 -15.372,-63.952 -46.115,-84.447c-30.744,-20.496 -79.194,-30.744 -145.351,-30.744c-66.156,0 -127.254,10.832 -183.293,32.495c-56.039,21.663 -100.727,52.925 -134.065,93.787c-33.338,40.862 -50.007,87.625 -50.007,140.291c0,16.512 2.053,31.76 6.157,45.745Zm611.145,-5.495c1.39,-0.442 2.785,-0.887 4.184,-1.334c7.004,-2.335 12.323,-3.502 15.955,-3.502c9.08,-0 13.621,4.216 13.621,12.648c-0,8.431 -6.162,16.214 -18.485,23.349c-9.427,5.458 -20.562,11.219 -33.405,17.284c-0.411,1.117 -0.822,2.231 -1.231,3.341c-11.026,29.966 -16.539,47.348 -16.539,52.148c0,4.799 1.751,8.95 5.254,12.453c3.502,3.502 8.432,5.253 14.788,5.253c6.356,0 31.068,-2.01 74.134,-6.032c43.067,-4.021 83.41,-6.032 121.029,-6.032c10.637,0 17.901,-6.097 21.792,-18.29c2.335,-7.783 14.529,-45.337 36.581,-112.661c22.053,-67.325 38.138,-118.369 48.256,-153.134c10.637,-2.076 23.09,-3.113 37.359,-3.113c37.1,-0 71.346,11.674 102.738,35.024c7.005,5.189 14.593,7.783 22.765,7.783c8.173,0 15.113,-2.075 20.82,-6.226c11.675,-9.34 24.128,-28.733 37.36,-58.18c13.231,-29.446 19.847,-54.741 19.847,-75.885c-0,-21.145 -24.517,-31.717 -73.551,-31.717c-23.09,0 -49.812,9.21 -80.167,27.631c-30.354,18.42 -55.649,39.694 -75.886,63.821c0.779,-3.113 2.595,-10.183 5.449,-21.209c2.854,-11.026 5.188,-20.43 7.005,-28.214c1.816,-7.783 2.724,-13.361 2.724,-16.733c-0,-3.373 -1.687,-7.07 -5.059,-11.091c-3.373,-4.022 -8.432,-6.032 -15.178,-6.032l-184.46,4.28c-25.166,0 -37.749,6.486 -37.749,19.458l0.389,14.788c0,26.463 -5.513,60.32 -16.539,101.57c-11.026,41.251 -23.22,79.129 -36.581,113.635c-5.973,15.426 -11.713,30.399 -17.22,44.919Zm-388.088,-67.88c3.632,-45.142 15.307,-86.004 35.025,-122.584c9.339,-17.642 20.82,-31.911 34.44,-42.808c13.621,-10.896 26.722,-16.344 39.305,-16.344c12.583,-0 21.987,2.853 28.214,8.561c6.226,5.708 9.34,13.361 9.34,22.96c-0,36.322 -13.102,67.325 -39.305,93.009c-26.204,25.684 -61.876,44.753 -107.019,57.206Zm103.248,-137.802c-2.347,1.323 -4.722,3.301 -7.373,5.422c-9.363,7.49 -17.067,17.449 -23.561,29.715l-0.075,0.139c-5.356,9.937 -10.012,20.243 -13.973,30.917c6.965,-4.843 13.354,-10.097 19.16,-15.788c14.642,-14.352 23.273,-31.143 25.822,-50.405Zm1527.65,259.217c0.212,-0.578 0.426,-1.161 0.642,-1.749c5.725,-15.557 11.764,-31.726 18.118,-48.507c-1.193,0.631 -2.432,1.299 -3.719,2.003c-12.323,6.745 -33.987,14.853 -64.99,24.322c-31.002,9.47 -55.26,14.205 -72.772,14.205c-17.512,-0 -26.268,-9.859 -26.268,-29.576c-0,-19.718 8.042,-51.045 24.128,-93.982c16.085,-42.937 32.17,-84.512 48.255,-124.725c16.085,-40.213 24.128,-66.546 24.128,-78.999c-0,-3.113 -1.751,-6.421 -5.254,-9.924c-3.502,-3.502 -8.431,-5.253 -14.788,-5.253c-6.356,-0 -30.289,0.778 -71.799,2.335c-41.511,1.556 -81.075,2.335 -118.693,2.335c-12.454,-0 -19.329,4.799 -20.626,14.398c-7.524,47.478 -29.706,116.748 -66.546,207.811c-14.528,36.321 -24.906,65.508 -31.133,87.56c-19.457,4.151 -37.359,6.227 -53.703,6.227c-34.246,-0 -51.369,-16.085 -51.369,-48.256c-0,-17.123 7.264,-44.299 21.793,-81.528c14.528,-37.23 28.992,-72.384 43.391,-105.462c14.399,-33.079 21.598,-53.574 21.598,-61.487c0,-7.913 -1.686,-13.88 -5.059,-17.901c-3.373,-4.022 -8.432,-6.032 -15.177,-6.032l-175.9,4.28c-16.085,0 -26.462,2.27 -31.132,6.811c-4.67,4.54 -7.005,14.788 -7.005,30.743c-0,15.956 -13.361,57.012 -40.083,123.169c-10.118,24.906 -19.328,52.73 -27.63,83.474c-8.303,30.743 -12.454,56.882 -12.454,78.415c0,62.266 38.138,93.398 114.413,93.398c23.868,0 50.072,-3.308 78.61,-9.923c28.538,-6.616 50.85,-12.843 66.935,-18.68c16.085,-5.837 36.711,-13.945 61.876,-24.322c8.302,35.283 45.272,52.925 110.91,52.925c65.638,0 130.109,-10.896 193.412,-32.689c27.5,-9.599 51.044,-18.745 70.632,-27.436c6.022,-2.672 11.775,-5.332 17.259,-7.98Zm18.76,-50.256c10.223,-5.41 16.961,-8.115 20.214,-8.115c9.859,-0 14.788,4.67 14.788,14.01c0,9.339 -6.94,18.225 -20.82,26.657c-9.612,5.839 -20.593,11.74 -32.942,17.704c-10.598,28.894 -15.897,45.693 -15.897,50.399c-0,4.799 1.751,8.95 5.253,12.453c3.503,3.502 8.432,5.253 14.788,5.253c6.357,0 31.068,-2.01 74.135,-6.032c43.067,-4.021 83.41,-6.032 121.028,-6.032c10.637,0 17.901,-6.097 21.793,-18.29c2.335,-7.783 14.529,-45.337 36.581,-112.661c22.052,-67.325 38.137,-118.369 48.255,-153.134c10.637,-2.076 23.09,-3.113 37.36,-3.113c37.099,-0 71.345,11.674 102.737,35.024c7.005,5.189 14.594,7.783 22.766,7.783c8.172,0 15.112,-2.075 20.82,-6.226c11.675,-9.34 24.128,-28.733 37.359,-58.18c13.231,-29.446 19.847,-54.741 19.847,-75.885c0,-21.145 -24.517,-31.717 -73.551,-31.717c-23.09,0 -49.812,9.21 -80.166,27.631c-30.355,18.42 -55.65,39.694 -75.886,63.821c0.778,-3.113 2.594,-10.183 5.448,-21.209c2.854,-11.026 5.189,-20.43 7.005,-28.214c1.816,-7.783 2.724,-13.361 2.724,-16.733c0,-3.373 -1.686,-7.07 -5.059,-11.091c-3.373,-4.022 -8.432,-6.032 -15.177,-6.032l-184.461,4.28c-25.165,0 -37.748,6.486 -37.748,19.458l0.389,14.788c-0,26.463 -5.513,60.32 -16.539,101.57c-11.026,41.251 -23.22,79.129 -36.581,113.635c-6.424,16.591 -12.579,32.657 -18.463,48.198Z" style="fill:#fff;"/></g><g transform="matrix(157.102,0,0,157.102,1724.34,409.576)"></g><text x="267.479px" y="409.576px" style="font-family:'SonsieOne-Regular', 'Sonsie One';font-size:157.102px;">interur<tspan x="1041.42px 1172.37px 1309.75px 1446.11px 1520.65px 1632.51px " y="409.576px 409.576px 409.576px 409.576px 409.576px 409.576px ">banist</tspan></text></g></svg>